<?xml version="1.0" encoding="UTF-8" standalone="no"?>
<svg
   xmlns:dc="http://purl.org/dc/elements/1.1/"
   xmlns:cc="http://creativecommons.org/ns#"
   xmlns:rdf="http://www.w3.org/1999/02/22-rdf-syntax-ns#"
   xmlns:svg="http://www.w3.org/2000/svg"
   xmlns="http://www.w3.org/2000/svg"
   viewBox="0 0 355.70667 116"
   height="116"
   width="355.70667"
   xml:space="preserve"
   id="svg2"
   version="1.1"><metadata
     id="metadata8"><rdf:RDF><cc:Work
         rdf:about=""><dc:format>image/svg+xml</dc:format><dc:type
           rdf:resource="http://purl.org/dc/dcmitype/StillImage" /></cc:Work></rdf:RDF></metadata><defs
     id="defs6" /><g
     transform="matrix(1.3333333,0,0,-1.3333333,0,116)"
     id="g10"><g
       transform="scale(0.1)"
       id="g12"><path
         id="path14"
         style="fill:#ffffff;fill-opacity:1;fill-rule:nonzero;stroke:none"
         d="m 1002.44,527.277 c 30.07,-10.406 47.42,-11.562 82.11,-11.562 98.3,0 160.76,53.195 160.76,143.402 0,70.547 -39.33,165.375 -160.76,165.375 h -82.11 z m 0,-215.109 c 0,-82.109 19.66,-105.234 75.17,-105.234 V 187.266 H 839.379 v 19.668 c 46.258,0 75.168,15.039 75.168,102.929 v 415.172 c 0,80.957 -19.656,105.238 -75.168,105.238 v 19.665 h 241.701 c 182.73,0 256.74,-97.145 256.74,-188.508 0,-109.867 -83.27,-171.16 -233.61,-171.16 -28.91,0 -53.2,1.156 -101.77,6.937 V 312.168" /><path
         id="path16"
         style="fill:#ffffff;fill-opacity:1;fill-rule:nonzero;stroke:none"
         d="m 1576.05,456.734 c 3.48,90.204 -57.81,127.211 -109.86,127.211 -68.22,0 -108.71,-50.886 -113.34,-127.211 z m -223.2,-19.664 c -2.31,-183.886 107.56,-230.136 163.07,-230.136 56.68,0 85.58,19.648 144.57,85.586 v -30.079 c -49.73,-63.613 -97.15,-87.89 -168.85,-87.89 -128.38,0 -220.89,89.043 -220.89,212.793 0,123.742 90.2,220.89 205.85,220.89 94.84,0 182.73,-76.332 176.95,-171.164 h -300.7" /><path
         id="path18"
         style="fill:#ffffff;fill-opacity:1;fill-rule:nonzero;stroke:none"
         d="m 2097.61,276.328 c 0,-53.203 11.59,-69.394 69.4,-69.394 v -19.668 h -218.58 v 19.668 c 55.51,0 70.55,12.714 70.55,50.879 V 471.77 c 0,65.918 -47.42,93.671 -91.37,93.671 -40.46,0 -76.32,-25.441 -116.79,-79.796 V 285.566 c 0,-62.441 8.08,-78.632 69.39,-78.632 v -19.668 h -216.27 v 19.668 c 54.36,0 68.24,4.629 68.24,78.632 v 230.149 c 0,49.726 -12.73,60.137 -68.24,60.137 v 19.656 l 127.21,12.726 h 19.67 v -82.117 c 48.57,55.516 95.99,82.117 148.03,82.117 68.24,0 138.76,-48.578 138.76,-146.875 V 276.328" /><path
         id="path20"
         style="fill:#ffffff;fill-opacity:1;fill-rule:nonzero;stroke:none"
         d="m 2598.38,276.328 c 0,-53.203 11.56,-69.394 69.39,-69.394 V 187.266 H 2449.2 v 19.668 c 55.5,0 70.52,12.714 70.52,50.879 V 471.77 c 0,65.918 -47.4,93.671 -91.34,93.671 -40.49,0 -76.33,-25.441 -116.82,-79.796 V 285.566 c 0,-62.441 8.11,-78.632 69.39,-78.632 v -19.668 h -216.27 v 19.668 c 54.36,0 68.25,4.629 68.25,78.632 v 230.149 c 0,49.726 -12.72,60.137 -68.25,60.137 v 19.656 l 127.23,12.726 h 19.65 v -82.117 c 48.57,55.516 96,82.117 148.03,82.117 68.24,0 138.79,-48.578 138.79,-146.875 V 276.328" /><path
         id="path22"
         style="fill:#ffffff;fill-opacity:1;fill-rule:nonzero;stroke:none"
         d="m 862.879,69.668 c 0,-18.3594 4.984,-32.4024 24.535,-32.4024 17.973,0 27.422,12.0703 27.422,33.0664 v 36.465 c 0,2.754 -0.527,4.98 -0.789,7.09 -0.656,4.726 -5.117,6.562 -11.281,7.207 v 3.418 h 30.961 v -3.418 c -6.297,-0.645 -10.629,-2.481 -11.286,-7.207 -0.261,-2.11 -0.785,-4.336 -0.785,-7.09 V 69.8047 c 0,-28.2031 -17.972,-38.7109 -34.894,-38.7109 -27.953,0 -36.61,14.1796 -36.61,37.9101 v 39.1011 c 0,12.208 0.528,11.543 -11.285,12.989 v 3.418 h 35.293 v -3.418 c -11.805,-1.446 -11.281,-0.781 -11.281,-12.989 V 69.668" /><path
         id="path24"
         style="fill:#ffffff;fill-opacity:1;fill-rule:nonzero;stroke:none"
         d="m 1008.01,32.6758 c -16.1,19.0234 -32.803,38.9648 -49.303,58.3984 V 46.3281 c 0,-2.1093 0.406,-3.8281 0.606,-5.4492 0.507,-3.6523 3.953,-5.0781 10.628,-5.5664 v -2.6367 h -24.8 v 2.6367 c 4.863,0.4883 8.203,1.9141 8.703,5.5664 0.207,1.6211 0.609,3.3399 0.609,5.4492 v 47.6953 c -2.836,3.6329 -5.969,6.8746 -11.742,6.8746 v 2.637 h 18.426 C 976.219,85.2148 991.91,66.582 1006.99,48.2617 h 0.2 v 41.6016 c 0,2.1289 -0.4,3.8476 -0.6,5.4687 -0.51,3.6524 -3.95,5.059 -10.629,5.566 v 2.637 h 24.799 v -2.637 c -4.76,-0.507 -8.2,-1.9136 -8.7,-5.566 -0.21,-1.6211 -0.61,-3.3398 -0.61,-5.4687 V 32.6758 h -3.44" /><path
         id="path26"
         style="fill:#ffffff;fill-opacity:1;fill-rule:nonzero;stroke:none"
         d="m 1059.94,45.332 c 0,-9.414 -0.41,-8.9062 8.7,-10.0195 v -2.6367 h -27.23 v 2.6367 c 9.11,1.1133 8.71,0.6055 8.71,10.0195 v 45.5469 c 0,9.4141 0.4,8.9063 -8.71,10.0191 v 2.637 h 27.23 v -2.637 c -9.11,-1.1128 -8.7,-0.605 -8.7,-10.0191 V 45.332" /><path
         id="path28"
         style="fill:#ffffff;fill-opacity:1;fill-rule:nonzero;stroke:none"
         d="m 1111.77,100.898 c -5.57,0 -9.62,-1.6207 -6.28,-11.3277 3.95,-11.9531 9.82,-29.3555 15.09,-44.7461 6.47,15.4883 12.65,31.0742 18.93,46.5625 2.53,6.3672 -0.1,9.5113 -6.99,9.5113 v 2.637 h 21.87 v -2.637 c -2.94,0 -6.28,-1.0152 -8.41,-6.0738 -8.5,-20.7422 -17.1,-41.4062 -25.61,-62.1484 h -5.16 c -6.17,17.5 -13.06,37.0508 -19.23,54.2578 -3.75,10.8203 -6.89,13.9644 -11.74,13.9644 v 2.637 h 27.53 v -2.637" /><path
         id="path30"
         style="fill:#ffffff;fill-opacity:1;fill-rule:nonzero;stroke:none"
         d="m 1169.98,35.3125 c 9.11,1.1133 8.7,0.6055 8.7,10.0195 v 45.5469 c 0,9.4141 0.41,8.9063 -8.7,10.0191 v 2.637 h 45.25 V 87.2266 h -2.63 c -1.02,7.5 -3.04,13.0664 -10.33,13.0664 H 1188.5 V 71.3477 h 8.51 c 6.38,0 9.11,2.5195 9.31,8.8086 h 2.63 V 58.5938 h -2.63 c -0.2,5.957 -2.53,9.5117 -9.31,9.5117 h -8.51 V 45.2148 c 0,-8.5937 3.95,-9.2968 13.06,-9.2968 14.68,0 13.97,4.1406 18.63,14.9804 h 2.63 l -3.04,-18.2226 h -49.8 v 2.6367" /><path
         id="path32"
         style="fill:#ffffff;fill-opacity:1;fill-rule:nonzero;stroke:none"
         d="m 1256.83,67.2852 h 8.41 c 8.81,0 12.86,6.6796 12.86,18.125 0,11.0351 -6.08,14.8828 -13.47,14.8828 h -7.8 z m -18.52,36.2498 h 29.46 c 10.22,0 20.45,-5.3709 20.45,-17.2069 0,-10.4297 -6.38,-17.6172 -14.17,-20.664 l 9.92,-15.0782 c 5.06,-7.3828 10.73,-14.4726 14.26,-16.6015 v -1.3086 h -10.42 c -5.97,0 -9.21,11.0351 -21.46,31.3867 h -9.52 V 45.332 c 0,-9.414 -0.4,-8.9062 8.71,-10.0195 v -2.6367 h -27.23 v 2.6367 c 9.11,1.1133 8.7,0.6055 8.7,10.0195 v 45.5469 c 0,9.4141 0.41,8.9063 -8.7,10.0191 v 2.637" /><path
         id="path34"
         style="fill:#ffffff;fill-opacity:1;fill-rule:nonzero;stroke:none"
         d="m 1348.36,88.457 c -0.82,7.0703 -4.67,12.754 -12.76,12.754 -5.88,0 -11.14,-3.0469 -11.14,-10.5274 0,-7.0898 7.09,-11.3477 17.22,-18.9453 10.72,-7.9883 14.16,-13.1445 14.16,-21.5625 0,-12.0313 -12.35,-18.711 -24.5,-18.711 -6.47,0 -12.04,1.211 -17.3,3.2227 -0.41,0.2148 -0.72,0.625 -0.72,1.4258 v 14.5703 h 2.64 C 1317.07,39.4531 1324.46,35 1332.26,35 c 7.19,0 13.05,5.4688 13.05,12.8516 0,6.582 -3.54,11.9531 -18.73,21.9726 -5.46,3.6524 -12.24,7.5977 -12.24,18.6328 0,9.1016 10.12,16.289 21.76,16.289 4.35,0 10.13,-0.508 14.17,-1.914 0.61,-0.215 0.7,-0.605 0.7,-1.113 V 88.457 h -2.61" /><path
         id="path36"
         style="fill:#ffffff;fill-opacity:1;fill-rule:nonzero;stroke:none"
         d="m 1392.6,45.332 c 0,-9.414 -0.42,-8.9062 8.69,-10.0195 v -2.6367 h -27.23 v 2.6367 c 9.12,1.1133 8.71,0.6055 8.71,10.0195 v 45.5469 c 0,9.4141 0.41,8.9063 -8.71,10.0191 v 2.637 h 27.23 v -2.637 c -9.11,-1.1128 -8.69,-0.605 -8.69,-10.0191 V 45.332" /><path
         id="path38"
         style="fill:#ffffff;fill-opacity:1;fill-rule:nonzero;stroke:none"
         d="m 1451.31,45.332 c 0,-9.414 -0.41,-8.9062 8.71,-10.0195 v -2.6367 h -27.25 v 2.6367 c 9.12,1.1133 8.71,0.6055 8.71,10.0195 v 54.961 h -9.1 c -8.81,0 -10.84,-5.5664 -14.18,-12.2461 h -2.54 l 2.74,15.4881 h 55.99 l 2.74,-15.4881 h -2.54 c -3.34,6.6797 -5.37,12.2461 -14.18,12.2461 h -9.1 V 45.332" /><path
         id="path40"
         style="fill:#ffffff;fill-opacity:1;fill-rule:nonzero;stroke:none"
         d="m 1506.58,35.3125 c 9.1,1.1133 8.71,0.6055 8.71,10.0195 v 15.586 l -15.61,30.8789 c -3.33,6.582 -6.17,9.1011 -10.82,9.1011 v 2.637 h 25.81 v -2.637 c -7.68,0 -6.98,-3.8472 -4.46,-9.1011 l 12.27,-25.4102 13.96,25.4102 c 3.44,6.1719 0.2,9.1011 -5.78,9.1011 v 2.637 h 20.86 v -2.637 c -2.83,0 -5.57,-1.3082 -8.3,-6.1714 l -16.89,-30.6641 c -1.02,-2.0312 -1.23,-4.8633 -1.23,-7.4023 V 45.332 c 0,-9.414 -0.4,-8.9062 8.71,-10.0195 v -2.6367 h -27.23 v 2.6367" /><path
         id="path42"
         style="fill:#ffffff;fill-opacity:1;fill-rule:nonzero;stroke:none"
         d="m 1643.53,82.5195 c 0,13.6524 -8.26,14.1797 -10.35,14.1797 -14.18,0 -23.5,-25.4492 -23.5,-42.5195 0,-6.8164 1.2,-19.1406 10.9,-19.1406 14.96,0 22.95,24.6679 22.95,47.4804 z m -45.92,-25.5859 c 0,17.1875 14.83,42.9102 36.74,42.9102 17.46,0 21.25,-11.8165 21.25,-23.6133 0,-14.4336 -11.54,-45.1367 -36.6,-45.1367 -16.8,0 -21.39,13.5156 -21.39,25.8398" /><path
         id="path44"
         style="fill:#ffffff;fill-opacity:1;fill-rule:nonzero;stroke:none"
         d="m 1721.6,95.5078 -3.15,-2.7539 h -17.18 C 1694.84,61.543 1684.33,19.9414 1676.87,0 h -5.92 l 18.77,92.7539 h -12.46 l 1.17,5.5078 h 12.35 c 6.95,27.9493 30.04,30.8403 35.55,30.8403 3,0 9.31,-0.528 11.28,-2.364 l -1.58,-8.652 -3.28,-1.582 c -1.83,3.535 -6.03,7.617 -11.54,7.617 -7.87,0 -13.77,-5.391 -16.94,-19.551 l -1.42,-6.3083 h 19.28 l -0.53,-2.7539" /><path
         id="path46"
         style="fill:#ffffff;fill-opacity:1;fill-rule:nonzero;stroke:none"
         d="m 1801.64,49.0625 c 0,-12.1875 -0.53,-11.543 11.27,-12.9883 v -3.3984 h -35.3 v 3.3984 c 11.82,1.4453 11.29,0.8008 11.29,12.9883 v 59.0425 c 0,12.208 0.53,11.543 -11.29,12.989 v 3.418 h 34.38 c 21.78,0 32.54,-8.653 32.54,-24.414 0,-18.8871 -17.05,-29.1214 -37.13,-27.93 v 2.6172 c 16.41,-0.2539 24,9.5703 24,24.0039 0,14.7069 -7.07,21.5239 -21.77,21.5239 h -7.99 V 49.0625" /><path
         id="path48"
         style="fill:#ffffff;fill-opacity:1;fill-rule:nonzero;stroke:none"
         d="m 1862.61,35.3125 c 9.13,1.1133 8.72,0.6055 8.72,10.0195 v 45.5469 c 0,9.4141 0.41,8.9063 -8.72,10.0191 v 2.637 h 45.26 V 87.2266 h -2.64 c -1.01,7.5 -3.03,13.0664 -10.31,13.0664 h -13.77 V 71.3477 h 8.5 c 6.38,0 9.12,2.5195 9.31,8.8086 h 2.64 V 58.5938 h -2.64 c -0.19,5.957 -2.54,9.5117 -9.31,9.5117 h -8.5 V 45.2148 c 0,-8.5937 3.95,-9.2968 13.05,-9.2968 14.68,0 13.98,4.1406 18.63,14.9804 h 2.64 l -3.05,-18.2226 h -49.81 v 2.6367" /><path
         id="path50"
         style="fill:#ffffff;fill-opacity:1;fill-rule:nonzero;stroke:none"
         d="m 1995.84,32.6758 c -16.1,19.0234 -32.8,38.9648 -49.3,58.3984 V 46.3281 c 0,-2.1093 0.41,-3.8281 0.61,-5.4492 0.5,-3.6523 3.94,-5.0781 10.62,-5.5664 v -2.6367 h -24.78 v 2.6367 c 4.84,0.4883 8.18,1.9141 8.69,5.5664 0.21,1.6211 0.6,3.3399 0.6,5.4492 v 47.6953 c -2.83,3.6329 -5.95,6.8746 -11.74,6.8746 v 2.637 h 18.42 c 15.1,-18.3202 30.78,-36.953 45.86,-55.2733 h 0.22 v 41.6016 c 0,2.1289 -0.41,3.8476 -0.61,5.4687 -0.51,3.6524 -3.94,5.059 -10.64,5.566 v 2.637 h 24.8 v -2.637 c -4.74,-0.507 -8.2,-1.9136 -8.69,-5.566 -0.22,-1.6211 -0.63,-3.3398 -0.63,-5.4687 V 32.6758 h -3.43" /><path
         id="path52"
         style="fill:#ffffff;fill-opacity:1;fill-rule:nonzero;stroke:none"
         d="m 2086.54,32.6758 c -16.09,19.0234 -32.79,38.9648 -49.3,58.3984 V 46.3281 c 0,-2.1093 0.41,-3.8281 0.61,-5.4492 0.51,-3.6523 3.94,-5.0781 10.62,-5.5664 v -2.6367 h -24.78 v 2.6367 c 4.84,0.4883 8.18,1.9141 8.69,5.5664 0.22,1.6211 0.61,3.3399 0.61,5.4492 v 47.6953 c -2.84,3.6329 -5.96,6.8746 -11.74,6.8746 v 2.637 h 18.42 c 15.09,-18.3202 30.78,-36.953 45.85,-55.2733 h 0.22 v 41.6016 c 0,2.1289 -0.41,3.8476 -0.61,5.4687 -0.5,3.6524 -3.94,5.059 -10.64,5.566 v 2.637 h 24.8 v -2.637 c -4.74,-0.507 -8.2,-1.9136 -8.69,-5.566 -0.21,-1.6211 -0.62,-3.3398 -0.62,-5.4687 V 32.6758 h -3.44" /><path
         id="path54"
         style="fill:#ffffff;fill-opacity:1;fill-rule:nonzero;stroke:none"
         d="m 2152.44,88.457 c -0.8,7.0703 -4.65,12.754 -12.76,12.754 -5.85,0 -11.13,-3.0469 -11.13,-10.5274 0,-7.0898 7.09,-11.3477 17.21,-18.9453 10.74,-7.9883 14.18,-13.1445 14.18,-21.5625 0,-12.0313 -12.34,-18.711 -24.49,-18.711 -6.49,0 -12.05,1.211 -17.33,3.2227 -0.39,0.2148 -0.7,0.625 -0.7,1.4258 v 14.5703 h 2.64 C 2121.17,39.4531 2128.55,35 2136.35,35 c 7.18,0 13.06,5.4688 13.06,12.8516 0,6.582 -3.53,11.9531 -18.73,21.9726 -5.47,3.6524 -12.25,7.5977 -12.25,18.6328 0,9.1016 10.12,16.289 21.76,16.289 4.36,0 10.14,-0.508 14.18,-1.914 0.61,-0.215 0.71,-0.605 0.71,-1.113 V 88.457 h -2.64" /><path
         id="path56"
         style="fill:#ffffff;fill-opacity:1;fill-rule:nonzero;stroke:none"
         d="m 2193.24,35.3125 c 9.12,1.1133 8.71,0.6055 8.71,10.0195 v 15.586 l -15.59,30.8789 c -3.34,6.582 -6.17,9.1011 -10.84,9.1011 v 2.637 h 25.83 v -2.637 c -7.7,0 -7,-3.8472 -4.46,-9.1011 l 12.25,-25.4102 13.96,25.4102 c 3.44,6.1719 0.22,9.1011 -5.76,9.1011 v 2.637 h 20.86 v -2.637 c -2.85,0 -5.59,-1.3082 -8.3,-6.1714 l -16.91,-30.6641 c -1.02,-2.0312 -1.22,-4.8633 -1.22,-7.4023 V 45.332 c 0,-9.414 -0.41,-8.9062 8.7,-10.0195 v -2.6367 h -27.23 v 2.6367" /><path
         id="path58"
         style="fill:#ffffff;fill-opacity:1;fill-rule:nonzero;stroke:none"
         d="m 2254.78,35.3125 c 9.12,1.1133 8.71,0.6055 8.71,10.0195 v 45.5469 c 0,9.4141 0.41,8.9063 -8.71,10.0191 v 2.637 h 27.25 v -2.637 c -9.12,-1.1128 -8.71,-0.605 -8.71,-10.0191 v -47.168 c 0,-7.0898 3.94,-7.7929 12.95,-7.7929 14.68,0 14.08,4.1406 18.73,14.9804 h 2.54 l -3.05,-18.2226 h -49.71 v 2.6367" /><path
         id="path60"
         style="fill:#ffffff;fill-opacity:1;fill-rule:nonzero;stroke:none"
         d="m 2342.87,100.898 c -5.57,0 -9.63,-1.6207 -6.29,-11.3277 3.96,-11.9531 9.82,-29.3555 15.1,-44.7461 6.46,15.4883 12.65,31.0742 18.92,46.5625 2.54,6.3672 -0.09,9.5113 -6.99,9.5113 v 2.637 h 21.88 v -2.637 c -2.93,0 -6.29,-1.0152 -8.4,-6.0738 -8.52,-20.7422 -17.11,-41.4062 -25.63,-62.1484 h -5.15 c -6.18,17.5 -13.07,37.0508 -19.24,54.2578 -3.75,10.8203 -6.88,13.9644 -11.74,13.9644 v 2.637 h 27.54 v -2.637" /><path
         id="path62"
         style="fill:#ffffff;fill-opacity:1;fill-rule:nonzero;stroke:none"
         d="m 2426.79,60 -10.74,32.9102 h -0.19 L 2403.81,60 Z m -24.51,-3.8477 -4.65,-13.5546 c -1.32,-3.9454 0.61,-7.2852 5.06,-7.2852 v -2.6367 h -18.42 v 2.6367 c 2.74,0 5.67,1.7188 7.29,5.0586 4.36,8.9062 16.19,42.0117 24.59,64.3749 h 5.68 c 6.88,-20.3515 17.21,-51.5233 20.65,-60.5272 2.22,-5.6836 3.85,-8.9063 8.2,-8.9063 v -2.6367 h -23.59 v 2.6367 c 6.38,0 6.99,3.3398 5.37,7.793 l -4.36,13.0468 h -25.82" /><path
         id="path64"
         style="fill:#ffffff;fill-opacity:1;fill-rule:nonzero;stroke:none"
         d="m 2528.63,32.6758 c -16.09,19.0234 -32.81,38.9648 -49.3,58.3984 V 46.3281 c 0,-2.1093 0.39,-3.8281 0.61,-5.4492 0.51,-3.6523 3.94,-5.0781 10.62,-5.5664 v -2.6367 h -24.8 v 2.6367 c 4.86,0.4883 8.2,1.9141 8.71,5.5664 0.2,1.6211 0.61,3.3399 0.61,5.4492 v 47.6953 c -2.84,3.6329 -5.98,6.8746 -11.74,6.8746 v 2.637 h 18.42 c 15.07,-18.3202 30.78,-36.953 45.85,-55.2733 h 0.2 v 41.6016 c 0,2.1289 -0.39,3.8476 -0.61,5.4687 -0.5,3.6524 -3.94,5.059 -10.62,5.566 v 2.637 h 24.8 v -2.637 c -4.76,-0.507 -8.2,-1.9136 -8.71,-5.566 -0.19,-1.6211 -0.6,-3.3398 -0.6,-5.4687 V 32.6758 h -3.44" /><path
         id="path66"
         style="fill:#ffffff;fill-opacity:1;fill-rule:nonzero;stroke:none"
         d="m 2576.5,45.332 c 0,-9.414 -0.39,-8.9062 8.71,-10.0195 v -2.6367 h -27.22 v 2.6367 c 9.1,1.1133 8.71,0.6055 8.71,10.0195 v 45.5469 c 0,9.4141 0.39,8.9063 -8.71,10.0191 v 2.637 h 27.22 v -2.637 c -9.1,-1.1128 -8.71,-0.605 -8.71,-10.0191 V 45.332" /><path
         id="path68"
         style="fill:#ffffff;fill-opacity:1;fill-rule:nonzero;stroke:none"
         d="m 2643.32,60 -10.72,32.9102 h -0.22 L 2620.35,60 Z m -24.49,-3.8477 -4.67,-13.5546 c -1.31,-3.9454 0.6,-7.2852 5.07,-7.2852 v -2.6367 h -18.43 v 2.6367 c 2.73,0 5.66,1.7188 7.28,5.0586 4.36,8.9062 16.21,42.0117 24.61,64.3749 h 5.67 c 6.89,-20.3515 17.2,-51.5233 20.66,-60.5272 2.23,-5.6836 3.83,-8.9063 8.18,-8.9063 v -2.6367 h -23.57 v 2.6367 c 6.37,0 6.97,3.3398 5.35,7.793 l -4.33,13.0468 h -25.82" /><path
         id="path70"
         style="fill:#ffffff;fill-opacity:1;fill-rule:nonzero;stroke:none"
         d="M 0.0820313,870.023 H 762.617 c 0,0 0,-374.597 0,-381.21 C 757.465,178.086 409.25,14.7461 365.441,16.25 319.887,17.8125 -0.953125,177.617 0.00390625,490.426 0.0195313,496.059 0.0820313,870.023 0.0820313,870.023" /><path
         id="path72"
         style="fill:#ffffff;fill-opacity:1;fill-rule:nonzero;stroke:none"
         d="M 18.4688,849.758 H 744.711 c 0,0 0,-356.77 0,-363.059 C 739.785,190.762 408.152,35.2148 366.434,36.6406 323.043,38.125 17.4883,190.332 18.3945,488.242 c 0.0157,5.352 0.0743,361.516 0.0743,361.516" /><path
         id="path74"
         style="fill:#a80c30;fill-opacity:1;fill-rule:nonzero;stroke:none"
         d="m 18.3984,629.117 c 1.0586,-1.047 0.0469,220.578 0.0469,220.578 H 744.152 c 0,0 0,-118.859 0,-220.586 l -725.7536,0.008" /><path
         id="path76"
         style="fill:#a80c30;fill-opacity:1;fill-rule:nonzero;stroke:none"
         d="m 20.75,631.641 720.879,-0.004 V 847.172 H 20.9805 C 21.707,686.887 21.6641,643.648 20.75,631.641 Z m 725.926,-5.055 -728.2737,0.008 -0.4257,2.609 -2.0157,0.426 c 0.7657,5.621 0.2344,160.758 -0.039,220.059 l -0.0117,2.535 H 746.676 V 626.586" /><path
         id="path78"
         style="fill:#154281;fill-opacity:1;fill-rule:nonzero;stroke:none"
         d="M 59.0586,306.191 C 86.9805,247.52 121.484,200.273 169.934,160.078 L 381.246,373.73 584.656,165.098 c 41.93,38.34 82.774,84.765 112.035,139.765 l -315.687,303.703 -320.4923,-303 -1.4531,0.625" /><path
         id="path80"
         style="fill:#154281;fill-opacity:1;fill-rule:nonzero;stroke:none"
         d="M 62.7852,304.246 C 91.0078,245.828 125.102,200.988 169.773,163.496 L 381.262,377.324 584.754,168.613 c 47.039,43.313 83.633,88.965 108.812,135.75 L 380.988,605.082 Z M 170.102,156.66 168.32,158.137 C 121.422,197.051 85.9844,243.75 56.7852,305.109 l -2.8829,6.051 6.0821,-2.625 321.0356,303.512 1.73,-1.664 317.063,-305.02 -0.895,-1.679 C 673.121,255.195 635.25,207.949 586.355,163.234 l -1.8,-1.64 L 381.23,370.137 170.102,156.66" /><path
         id="path82"
         style="fill:#154281;fill-opacity:1;fill-rule:nonzero;stroke:none"
         d="m 18.4023,625.094 v 5.047 l 725.7067,0.097 v -5.047 L 18.4023,625.094" /><path
         id="path84"
         style="fill:#ffffff;fill-opacity:1;fill-rule:nonzero;stroke:none"
         d="m 562.316,794.883 h 19.75 c 14.481,3.305 19.758,11.699 34.602,11.699 10.684,0 15.711,-7.094 23.559,-7.094 6.625,0 16.812,7.563 27.972,7.563 11.418,0 17.063,-6.856 24.547,-10.043 6.625,-2.836 15.332,-2.688 24.535,-2.688 -0.25,-6.621 0,-10.55 0,-16.101 0,-5.676 7.61,-3.43 7.61,-12.653 0,-9.691 -9.825,-7.796 -9.825,-11.699 l -0.363,-36.047 c 0.492,-4.492 9.57,-5.082 9.57,-11.929 0,-10.168 -10.105,-6.649 -9.449,-14.661 0.489,-5.91 0,-18.437 0,-18.437 -19.504,0 -144.972,-1.148 -151.117,-0.914 0.371,13.355 2.445,12.559 2.906,18.996 0.371,5.199 -11.285,8.395 -11.285,17.137 0,6.031 6.988,5.676 7.598,11.347 v 35.93 c -0.36,4.727 -10.91,7.09 -10.551,13.82 0.438,8.063 9.82,7.036 9.82,12.418 0,2.36 0.243,11.11 0.121,13.356" /><path
         id="path86"
         style="fill:#154281;fill-opacity:1;fill-rule:nonzero;stroke:none"
         d="m 566.328,674.375 c 10.5,-0.113 49.641,0.258 84.567,0.523 26.46,0.196 51.226,0.383 61.492,0.415 0.109,3.902 0.265,11.566 -0.074,15.707 -0.446,5.425 2.933,7.335 5.398,8.73 2.434,1.375 4.039,2.281 4.039,6.141 0,2.363 -1.641,3.558 -4.316,5.304 -2.293,1.5 -4.895,3.2 -5.239,6.356 l 0.344,36.34 c 0,3.144 2.785,4.351 4.816,5.23 2.797,1.215 5.008,2.172 5.008,6.445 0,3.809 -1.398,4.727 -3.347,6.008 -1.797,1.176 -4.258,2.785 -4.258,6.645 0,1.855 -0.024,3.531 -0.055,5.183 -0.043,2.633 -0.086,5.223 -0.019,8.395 -0.02,0 -0.039,0 -0.059,0 -8.465,0 -16.426,0.133 -22.871,2.891 -2.539,1.085 -4.867,2.542 -7.117,3.96 -4.805,3.028 -9.348,5.879 -16.438,5.879 -5.812,0 -11.527,-2.3 -16.57,-4.328 -4.309,-1.738 -8.027,-3.234 -11.402,-3.234 -4.219,0 -7.676,1.73 -11.028,3.406 -3.625,1.813 -7.375,3.688 -12.531,3.688 -7.926,0 -12.848,-2.539 -18.539,-5.485 -4.234,-2.191 -9.039,-4.676 -15.5,-6.152 l -17.758,-0.055 c -0.008,-1.976 -0.055,-4.554 -0.094,-6.777 -0.035,-1.746 -0.058,-3.27 -0.058,-4.063 0,-3.894 -2.957,-5.613 -5.336,-6.996 -2.684,-1.558 -4.332,-2.66 -4.488,-5.554 -0.122,-2.239 1.859,-3.903 4.89,-6.188 2.664,-2.004 5.406,-4.074 5.656,-7.309 l 0.008,-36.121 c -0.426,-4.089 -2.976,-6.007 -4.836,-7.406 -1.867,-1.402 -2.758,-2.152 -2.758,-3.941 0,-3.727 2.993,-6.332 5.887,-8.852 2.774,-2.41 5.641,-4.906 5.387,-8.465 -0.195,-2.781 -0.695,-4.433 -1.172,-6.031 -0.625,-2.074 -1.324,-4.398 -1.629,-10.289 z m 2.055,-5.051 c -2.528,0 -4.176,0.012 -4.774,0.035 l -2.496,0.094 0.075,2.496 c 0.234,8.496 1.175,11.641 1.933,14.164 0.461,1.52 0.817,2.715 0.977,4.942 0.074,1.047 -1.914,2.773 -3.664,4.3 -3.403,2.958 -7.629,6.637 -7.629,12.657 0,4.386 2.761,6.461 4.773,7.976 1.75,1.313 2.672,2.071 2.84,3.641 l -0.016,35.66 c -0.062,0.766 -2.05,2.266 -3.648,3.465 -3.191,2.406 -7.172,5.406 -6.899,10.496 0.313,5.762 4.333,8.098 6.989,9.641 2.191,1.277 2.828,1.773 2.828,2.636 0,0.813 0.027,2.371 0.062,4.157 0.063,3.375 0.141,7.609 0.063,9.062 l -0.141,2.66 h 22.41 c 5.274,1.266 9.582,3.496 13.747,5.653 6.015,3.109 11.699,6.046 20.855,6.046 6.348,0 10.836,-2.246 14.789,-4.222 3.082,-1.543 5.742,-2.871 8.77,-2.871 2.39,0 5.855,1.39 9.515,2.867 5.469,2.203 11.664,4.695 18.457,4.695 8.547,0 14.164,-3.535 19.121,-6.652 2.184,-1.375 4.239,-2.668 6.414,-3.594 5.832,-2.5 13.782,-2.461 22.215,-2.488 l 3.949,0.008 -0.097,-2.618 c -0.16,-4.335 -0.106,-7.5 -0.055,-10.742 0.031,-1.679 0.063,-3.386 0.063,-5.269 0,-1.039 0.32,-1.344 1.976,-2.426 2.238,-1.473 5.629,-3.691 5.629,-10.227 0,-7.586 -5.043,-9.769 -8.055,-11.074 -0.668,-0.289 -1.671,-0.722 -1.894,-0.972 l -0.235,-35.723 c 0.067,-0.481 1.543,-1.445 2.961,-2.375 2.789,-1.824 6.61,-4.317 6.61,-9.531 0,-6.805 -3.977,-9.051 -6.61,-10.536 -2.351,-1.328 -3.027,-1.804 -2.851,-3.917 0.496,-5.993 0.023,-18.223 0.008,-18.743 l -0.094,-2.425 h -2.43 c -8.179,0 -35.031,-0.2 -63.89,-0.415 -34.375,-0.261 -69.731,-0.531 -82.551,-0.531" /><path
         id="path88"
         style="fill:#154281;fill-opacity:1;fill-rule:nonzero;stroke:none"
         d="m 636.633,692.426 c -28.399,0 -55.934,0.054 -58.246,0.058 l -2.551,0.004 0.031,2.555 c 0.246,18.672 0.004,98.434 0,99.234 l 5.047,0.02 c 0,-0.77 0.227,-74.301 0.027,-96.766 37.735,-0.093 103.641,-0.125 117.125,0.149 -0.003,24.308 -0.117,97.199 -0.117,97.199 l 5.051,0.008 c 0,0 0.117,-78.246 0.117,-99.637 v -2.301 l -2.297,-0.211 c -2.683,-0.25 -33.922,-0.312 -64.187,-0.312" /><path
         id="path90"
         style="fill:#154281;fill-opacity:1;fill-rule:nonzero;stroke:none"
         d="m 642.141,694.777 h -5.047 v 104.477 h 5.047 V 694.777" /><path
         id="path92"
         style="fill:#154281;fill-opacity:1;fill-rule:nonzero;stroke:none"
         d="m 641.461,707.656 c 5.152,-0.234 14.609,-3.711 23.805,-6.5 11.894,-3.601 24.515,-1.078 33.855,-2.953 2.945,-0.59 -57.66,-1.062 -57.66,-1.062 0.238,11.703 0,10.515 0,10.515" /><path
         id="path94"
         style="fill:#154281;fill-opacity:1;fill-rule:nonzero;stroke:none"
         d="m 644.094,704.777 c 0.011,-1.328 -0.02,-3 -0.059,-5.093 5.289,0.043 11.117,0.097 16.945,0.16 -1.078,0.344 -2.144,0.683 -3.207,1.019 -5.144,1.649 -10.07,3.219 -13.679,3.914 z m -5.203,-10.183 0.05,2.597 c 0.082,4.149 0.106,6.602 0.106,8.047 l -0.641,0.032 1.039,5.144 2.309,-0.219 c 0.223,-0.023 0.418,-0.043 0.598,-0.074 4.199,-0.375 10.14,-2.273 16.957,-4.445 2.203,-0.703 4.453,-1.426 6.687,-2.106 6.567,-1.988 13.387,-2.007 19.984,-2.031 4.875,-0.016 9.493,-0.031 13.641,-0.859 l 2.231,-0.45 -0.114,-2.308 c -0.101,-1.031 -0.16,-1.692 -3.097,-2.129 l -0.016,-0.066 c -0.059,0.015 -0.113,0.027 -0.172,0.039 -5.277,-0.746 -19.285,-0.856 -56.973,-1.153 l -2.589,-0.019" /><path
         id="path96"
         style="fill:#154281;fill-opacity:1;fill-rule:nonzero;stroke:none"
         d="m 632.742,692.172 c 0,2.613 3.051,4.73 6.813,4.73 3.765,0 6.808,-2.117 6.808,-4.73 0,-2.606 -3.043,-4.723 -6.808,-4.723 -3.762,0 -6.813,2.117 -6.813,4.723" /><path
         id="path98"
         style="fill:#154281;fill-opacity:1;fill-rule:nonzero;stroke:none"
         d="m 639.555,694.379 c -2.578,0 -4.289,-1.328 -4.289,-2.207 0,-0.871 1.711,-2.195 4.289,-2.195 2.617,0 4.285,1.296 4.285,2.195 0,0.898 -1.668,2.207 -4.285,2.207 z m 0,-9.453 c -5.239,0 -9.336,3.183 -9.336,7.246 0,4.066 4.097,7.258 9.336,7.258 5.23,0 9.336,-3.192 9.336,-7.258 0,-4.063 -4.106,-7.246 -9.336,-7.246" /><path
         id="path100"
         style="fill:#154281;fill-opacity:1;fill-rule:nonzero;stroke:none"
         d="m 636.215,707.656 c -5.152,-0.234 -14.613,-3.711 -23.805,-6.5 -11.898,-3.601 -24.523,-1.078 -33.859,-2.953 -2.946,-0.59 57.664,-1.062 57.664,-1.062 -0.246,11.703 0,10.515 0,10.515" /><path
         id="path102"
         style="fill:#154281;fill-opacity:1;fill-rule:nonzero;stroke:none"
         d="m 616.695,699.844 c 5.828,-0.063 11.657,-0.117 16.946,-0.16 -0.043,2.093 -0.071,3.765 -0.067,5.093 -3.605,-0.695 -8.527,-2.265 -13.676,-3.914 -1.058,-0.336 -2.128,-0.675 -3.203,-1.019 z m 22.098,-5.25 -2.602,0.019 c -37.683,0.297 -51.691,0.407 -56.968,1.153 -0.063,-0.012 -0.114,-0.024 -0.172,-0.032 l -0.016,0.059 c -2.933,0.437 -3,1.098 -3.101,2.129 l -0.215,2.266 2.336,0.492 c 4.148,0.828 8.758,0.843 13.64,0.859 6.594,0.024 13.414,0.043 19.981,2.031 2.238,0.68 4.488,1.403 6.691,2.106 6.824,2.176 12.774,4.074 16.973,4.445 0.176,0.031 0.363,0.051 0.574,0.074 l 2.285,0.258 1.078,-5.183 -0.652,-0.032 c 0,-1.445 0.023,-3.894 0.105,-8.047 l 0.063,-2.597" /><path
         id="path104"
         style="fill:#ffffff;fill-opacity:1;fill-rule:nonzero;stroke:none"
         d="m 234.059,662.281 c 1.964,-7.679 7.73,-12.765 17.179,-12.765 17.543,0 34.477,13.004 44.657,20.328 7.98,5.676 16.199,11.699 16.199,24.109 l -1.473,-4.723 c 0,0 13.746,13.704 47.606,2.836 9.406,-3.023 49.695,-25.644 58.406,-29.312 7.484,-3.191 33.719,-22.012 74.722,-14.754 0,0 62.598,8.609 48.614,73.074 -9.996,46.074 -6.895,49.348 -3.09,64.121 -1.473,0.707 -38.281,8.981 -37.301,-42.074 -15.957,-1.656 -36.324,-13.707 -23.07,-45.387 5.398,8.043 12.633,16.547 22.578,16.547 6.254,0 12.844,-8.988 13.25,-15.597 0.98,-16.075 -15.215,-23.164 -35.332,-19.856 -10.203,1.676 -19.602,12.981 -33.66,23.156 2.453,1.18 4.695,9.461 4.695,12.774 0,8.152 -6.992,11.933 -11.773,14.656 0.98,2.832 2.933,6.617 2.933,9.453 0,6.5 -9.195,6.028 -12.746,8.508 1.465,2.012 1.465,0.824 1.465,3.781 0,9.457 1.473,14.66 -17.668,14.18 1.598,9.344 -0.371,15.367 -6.867,17.969 l -14.235,1.89 c -8.835,1.653 -0.027,4.594 -8.179,12.453 -7.27,7.016 -19.242,0 -19.242,0 0,6.497 -4.485,11.661 -12.336,11.661 -4.168,0 -9.321,-0.36 -12.266,-1.899 l -5.887,-4.722 c -7.363,0 -9.207,6.621 -17.672,6.621 -8.461,0 -11.898,-6.621 -15.214,-10.875 -5.766,2.718 -6.504,7.562 -14.235,7.562 -4.535,0 -5.883,-4.844 -7.851,-7.09 -5.028,-5.554 -4.672,-11.312 -12.524,-14.148 l -2.922,5.137 c -0.09,0.32 -0.179,0.648 -0.257,0.972 -11.54,-5.554 -37.559,-64.883 -37.559,-77.051 0,-11.586 10.074,-6.507 10.074,-18.918 0,-7.324 -10.797,-12.648 -10.797,-18.906 0,-7.922 9.199,-11.816 17.172,-11.816 l -5.394,-1.895" /><path
         id="path106"
         style="fill:#154281;fill-opacity:1;fill-rule:nonzero;stroke:none"
         d="m 334.059,698.789 c 6.777,0 15.039,-1.148 24.937,-4.32 5.774,-1.856 22.117,-10.489 36.543,-18.106 9.57,-5.054 18.609,-9.832 22.07,-11.285 1.121,-0.476 2.637,-1.277 4.528,-2.289 11.179,-5.965 34.441,-18.379 68.777,-12.309 0.352,0.051 26.258,3.872 39.992,23.551 8.446,12.106 10.668,27.75 6.598,46.512 -9.231,42.559 -7.395,49.316 -4.055,61.59 l 0.309,1.16 c -3.781,0.52 -12.145,0.906 -19.313,-4.289 -8.531,-6.191 -12.683,-18.246 -12.347,-35.836 l 0.043,-2.316 -2.305,-0.243 c -9.801,-1.015 -18.035,-5.636 -22.027,-12.363 -3.875,-6.527 -4.082,-14.984 -0.625,-25.187 5.285,7.035 12.324,13.742 21.902,13.742 7.762,0 15.281,-10.043 15.766,-17.961 0.398,-6.563 -1.789,-12.199 -6.325,-16.297 -6.828,-6.16 -18.453,-8.438 -31.933,-6.199 -7.528,1.234 -14.379,7 -22.317,13.679 -3.859,3.258 -7.859,6.622 -12.414,9.918 l -3.429,2.481 3.812,1.832 c 1.207,0.906 3.274,7.41 3.274,10.504 0,6.492 -5.629,9.695 -10.157,12.269 l -1.82,1.036 0.34,2.175 c 0.277,0.809 0.637,1.692 1.004,2.606 0.843,2.082 1.797,4.445 1.797,6.023 0,2.125 -1.633,2.965 -6.227,4.274 -2.031,0.574 -3.957,1.121 -5.449,2.168 l -2.106,1.468 1.516,2.082 c 0.414,0.571 0.73,0.93 0.98,1.196 0.004,0.258 0,0.609 0,1.101 l 0.012,1.926 c 0.039,3.934 0.008,6.227 -1.297,7.504 -1.711,1.691 -6.23,2.406 -13.797,2.23 l -3.07,-0.078 0.52,3.024 c 1.855,10.843 -1.871,13.824 -5.325,15.207 l -13.625,1.726 c -5.664,1.055 -6.668,3.207 -6.531,6.575 0.07,1.625 0.145,3.468 -3.062,6.562 -5.797,5.598 -16.121,-0.293 -16.227,-0.363 l -3.785,-2.196 -0.004,4.375 c 0,5.551 -3.852,9.141 -9.816,9.141 -5.168,0 -9.11,-0.574 -11.098,-1.613 l -6.168,-5.008 h -0.887 c -4.332,0 -7.121,1.898 -9.586,3.574 -2.402,1.629 -4.48,3.047 -8.086,3.047 -5.996,0 -8.925,-4.039 -11.761,-7.941 -0.504,-0.684 -0.985,-1.348 -1.465,-1.961 l -1.242,-1.594 -1.821,0.859 c -2.496,1.176 -4.148,2.672 -5.605,3.989 -2.223,2.007 -3.688,3.336 -7.555,3.336 -1.738,0 -2.656,-1.188 -4.203,-3.7 -0.582,-0.953 -1.148,-1.843 -1.754,-2.531 -1.629,-1.805 -2.656,-3.672 -3.644,-5.473 -1.965,-3.558 -3.993,-7.246 -9.918,-9.39 l -1.996,-0.719 -3.047,5.363 c -10.926,-10.453 -34.032,-61.578 -34.032,-73.207 0,-4.367 1.52,-5.406 3.817,-6.984 2.785,-1.914 6.258,-4.297 6.258,-11.938 0,-4.765 -3.375,-8.55 -6.352,-11.886 -2.285,-2.559 -4.445,-4.977 -4.445,-7.02 0,-6.773 8.992,-9.297 14.652,-9.297 l 0.836,-4.898 -3.078,-1.082 c 2.242,-5.692 7.051,-8.68 14.027,-8.68 15.75,0 31.2,11.184 41.418,18.578 l 1.766,1.278 c 6.383,4.535 12.937,9.203 14.695,17.539 l -0.902,0.547 1.469,4.726 3.664,-0.558 c 3.992,2.164 10.75,4.644 20.711,4.644 z m 138.914,-54.961 c -26.008,0 -44.422,9.824 -53.211,14.512 -1.727,0.922 -3.106,1.66 -4.121,2.094 -3.653,1.539 -12.368,6.144 -22.453,11.472 -13.54,7.149 -30.383,16.043 -35.735,17.758 -25.305,8.129 -38.828,1.953 -43.332,-0.949 -2.051,-10.461 -10.109,-16.195 -16.766,-20.926 l -1.742,-1.262 c -10.75,-7.777 -26.988,-19.531 -44.375,-19.531 -10.09,0 -17.242,5.344 -19.621,14.66 l -0.316,1.235 c -6.403,2.015 -11.539,6.472 -11.539,13.101 0,3.969 2.906,7.227 5.718,10.375 2.497,2.797 5.079,5.684 5.079,8.531 0,4.985 -1.707,6.157 -4.075,7.778 -2.671,1.836 -6,4.121 -6,11.144 0,13.106 26.485,73.301 38.985,79.321 l 2.816,1.355 0.957,-3.906 1.539,-2.621 c 2.703,1.484 3.84,3.551 5.313,6.234 1.082,1.961 2.301,4.18 4.304,6.395 0.411,0.472 0.797,1.132 1.223,1.82 1.496,2.426 3.75,6.098 8.496,6.098 5.813,0 8.535,-2.461 10.938,-4.633 0.84,-0.762 1.656,-1.5 2.609,-2.153 0.02,0.028 0.039,0.059 0.059,0.083 3.074,4.226 7.281,10.015 15.843,10.015 5.157,0 8.219,-2.082 10.922,-3.922 1.989,-1.347 3.602,-2.445 5.91,-2.66 l 5.153,4.133 c 3.176,1.715 7.699,2.449 13.84,2.449 7.363,0 12.851,-4.133 14.41,-10.418 4.594,1.824 12.898,3.848 18.922,-1.945 4.84,-4.668 4.691,-8.258 4.601,-10.402 -0.011,-0.29 -0.027,-0.665 -0.008,-0.848 0.043,0.043 0.625,-0.231 2.293,-0.539 l 14.106,-1.871 c 7.269,-2.836 10.277,-8.817 9.422,-17.918 7.558,-0.059 11.976,-1.207 14.519,-3.711 2.887,-2.848 2.844,-6.696 2.793,-11.153 l -0.011,-1.867 c 0,-1.211 0,-2.019 -0.188,-2.703 0.516,-0.156 1.055,-0.312 1.59,-0.465 3.933,-1.125 9.883,-2.812 9.883,-9.121 0,-2.554 -1.149,-5.398 -2.16,-7.91 -0.059,-0.144 -0.118,-0.289 -0.176,-0.43 5.136,-3.027 11.172,-7.39 11.172,-15.769 0,-2.348 -1.196,-8.613 -3.512,-12.379 3.828,-2.895 7.332,-5.848 10.48,-8.496 7.364,-6.203 13.727,-11.555 19.887,-12.57 11.746,-1.915 22.133,-0.075 27.734,4.972 3.411,3.074 4.981,7.195 4.672,12.246 -0.328,5.34 -6.039,13.231 -10.734,13.231 -8.973,0 -15.66,-8.246 -20.484,-15.434 l -2.614,-3.887 -1.804,4.321 c -5.743,13.722 -5.981,25.176 -0.711,34.058 4.476,7.543 13.179,12.868 23.566,14.508 0.039,18.965 5.324,31.957 15.742,38.637 10.977,7.047 23.864,4.144 25.192,3.5 l 1.863,-0.899 -1.52,-5.753 c -3.132,-11.512 -4.855,-17.848 4.118,-59.208 4.379,-20.199 1.882,-37.191 -7.422,-50.496 -15.024,-21.496 -42.168,-25.449 -43.317,-25.605 -6.609,-1.172 -12.859,-1.672 -18.722,-1.676" /><path
         id="path108"
         style="fill:#154281;fill-opacity:1;fill-rule:nonzero;stroke:none"
         d="m 261.176,712.125 c 0,0 12.762,-4.914 12.762,-7.562 0,-3.594 -8.247,-7.559 -13.747,-12.293 h -6.871 c 2.457,8.039 0,5.109 0,12.293 0,5.386 5.696,7.562 7.856,7.562" /><path
         id="path110"
         style="fill:#154281;fill-opacity:1;fill-rule:nonzero;stroke:none"
         d="m 256.609,694.797 h 2.664 c 1.719,1.398 3.633,2.742 5.469,4.027 2.223,1.547 5.801,4.047 6.539,5.379 -1.316,1.211 -5.843,3.531 -10.476,5.36 -1.395,-0.247 -4.957,-1.641 -4.957,-5 0,-2.508 0.312,-3.497 0.593,-4.372 0.508,-1.601 0.719,-2.828 0.168,-5.394 z m 4.52,-5.051 h -11.215 l 0.996,3.262 c 1.235,4.043 1.055,4.613 0.723,5.648 -0.352,1.106 -0.836,2.617 -0.836,5.907 0,6.71 6.652,10.085 10.379,10.085 l 0.906,-0.171 c 14.379,-5.532 14.379,-8.715 14.379,-9.914 0,-3.719 -4.09,-6.571 -8.828,-9.879 -1.961,-1.368 -4.028,-2.805 -5.793,-4.329 l -0.711,-0.609" /><path
         id="path112"
         style="fill:#154281;fill-opacity:1;fill-rule:nonzero;stroke:none"
         d="m 434.469,669.758 -5.008,0.613 c 0.957,7.797 -1.574,8.707 -5.395,10.078 -2.765,0.996 -6.203,2.227 -7.304,6.469 -0.36,1.449 -0.598,3.121 -0.84,4.891 -0.617,4.406 -1.313,9.406 -4.383,11.304 -2.289,1.414 -6.043,1.262 -11.16,-0.461 l -3.461,-1.168 0.137,3.653 c 0.258,7.051 -1.375,11.957 -4.852,14.582 -5.781,4.347 -15.305,1.398 -15.398,1.367 L 373,719.84 l 0.52,3.965 c 0.613,4.781 -0.934,9.691 -4.258,13.472 -2.434,2.766 -5.485,4.481 -7.969,4.481 -3.605,0 -6.258,-1.391 -9.063,-2.871 -2.621,-1.375 -5.32,-2.801 -8.605,-2.801 -4.812,0 -8.18,1.769 -11.426,3.48 -3.066,1.61 -5.957,3.133 -10.172,3.133 -4.808,0 -5.687,-1.699 -7.14,-4.519 -1.133,-2.188 -2.547,-4.914 -5.992,-6.575 l -2.188,4.551 c 1.93,0.93 2.711,2.434 3.695,4.344 1.668,3.227 3.75,7.25 11.625,7.25 5.461,0 9.211,-1.977 12.52,-3.723 2.957,-1.55 5.508,-2.894 9.078,-2.894 2.035,0 3.988,1.023 6.254,2.219 3.078,1.621 6.559,3.457 11.414,3.457 3.949,0 8.348,-2.321 11.758,-6.204 3.469,-3.949 5.437,-8.875 5.629,-13.91 4.129,0.715 11.179,1.102 16.554,-2.949 4.215,-3.176 6.512,-8.324 6.848,-15.348 5.082,1.227 9.063,0.887 12.109,-0.992 5.094,-3.148 5.997,-9.672 6.723,-14.91 0.223,-1.574 0.422,-3.066 0.734,-4.336 0.391,-1.488 1.442,-2 4.122,-2.961 4.039,-1.449 10.144,-3.64 8.699,-15.441" /><path
         id="path114"
         style="fill:#ffffff;fill-opacity:1;fill-rule:nonzero;stroke:none"
         d="m 45.8672,794.242 h 19.75 c 14.4766,3.313 19.7578,11.703 34.6058,11.703 10.672,0 15.703,-7.093 23.554,-7.093 6.621,0 16.813,7.566 27.973,7.566 11.41,0 17.055,-6.855 24.543,-10.047 6.625,-2.836 15.336,-2.687 24.539,-2.687 -0.25,-6.618 0,-10.547 0,-16.106 0,-5.676 7.602,-3.426 7.602,-12.64 0,-9.696 -9.813,-7.805 -9.813,-11.7 l -0.367,-36.054 c 0.488,-4.489 9.57,-5.079 9.57,-11.934 0,-10.168 -10.113,-6.645 -9.449,-14.652 0.488,-5.914 0,-18.442 0,-18.442 -19.512,0 -142.3281,-0.121 -148.4609,0.121 0.3711,13.352 -0.211,11.528 0.2422,17.961 0.3671,5.203 -11.2852,8.391 -11.2852,17.141 0,6.023 6.9961,5.672 7.6055,11.344 v 35.929 c -0.3672,4.723 -10.918,7.09 -10.5508,13.828 0.4375,8.051 9.8164,7.024 9.8164,12.411 0,2.363 0.2461,11.105 0.125,13.351" /><path
         id="path116"
         style="fill:#154281;fill-opacity:1;fill-rule:nonzero;stroke:none"
         d="m 52.4961,674.758 c 15.1562,-0.153 89.7659,-0.11 127.1209,-0.086 l 16.317,0.008 c 0.113,3.906 0.269,11.558 -0.075,15.707 -0.449,5.426 2.934,7.328 5.399,8.726 2.433,1.371 4.043,2.278 4.043,6.137 0,2.367 -1.641,3.559 -4.321,5.313 -2.292,1.5 -4.89,3.199 -5.238,6.347 l 0.356,36.352 c 0,3.144 2.777,4.347 4.808,5.226 2.797,1.215 5.004,2.172 5.004,6.45 0,3.796 -1.402,4.718 -3.344,5.996 -1.796,1.175 -4.257,2.789 -4.257,6.644 0,1.86 -0.028,3.535 -0.055,5.192 -0.043,2.632 -0.086,5.218 -0.02,8.386 -8.492,0 -16.472,0.133 -22.933,2.899 -2.539,1.082 -4.867,2.547 -7.121,3.965 -4.805,3.019 -9.344,5.871 -16.43,5.871 -5.816,0 -11.531,-2.297 -16.578,-4.328 -4.305,-1.735 -8.027,-3.235 -11.395,-3.235 -4.218,0 -7.687,1.735 -11.031,3.41 -3.629,1.809 -7.375,3.684 -12.523,3.684 -7.9339,0 -12.8519,-2.543 -18.5472,-5.488 -4.2383,-2.192 -9.0352,-4.672 -15.4961,-6.153 L 48.4219,791.73 c -0.0078,-1.98 -0.0547,-4.55 -0.0938,-6.773 -0.0351,-1.75 -0.0586,-3.273 -0.0586,-4.066 0,-3.899 -2.9648,-5.618 -5.3437,-7 -2.6758,-1.555 -4.3242,-2.657 -4.4805,-5.547 -0.1211,-2.239 1.8594,-3.91 4.8985,-6.199 2.6562,-1.997 5.3984,-4.071 5.6484,-7.297 L 49,718.723 c -0.4297,-4.094 -2.9766,-6.008 -4.8437,-7.41 -1.8672,-1.403 -2.7618,-2.153 -2.7618,-3.934 0,-3.727 2.9922,-6.332 5.8946,-8.859 2.7734,-2.407 5.6367,-4.903 5.3828,-8.457 -0.2071,-3.02 -0.1836,-4.157 -0.1485,-6.008 0.0391,-1.774 0.0899,-4.18 -0.0273,-9.297 z m 65.8909,-5.153 c -33.6682,0 -65.4925,0.028 -68.5706,0.153 l -2.4961,0.097 0.0742,2.489 c 0.1875,6.773 0.1289,9.601 0.0821,11.605 -0.0391,2 -0.0625,3.215 0.1679,6.465 0.0743,1.051 -1.914,2.781 -3.6679,4.305 -3.3985,2.953 -7.6328,6.633 -7.6328,12.66 0,4.383 2.7656,6.453 4.7851,7.973 1.75,1.312 2.6719,2.07 2.8399,3.636 l -0.0157,35.664 c -0.0625,0.762 -2.0508,2.262 -3.6484,3.461 -3.1992,2.414 -7.1758,5.414 -6.8984,10.504 0.3164,5.758 4.332,8.094 6.9882,9.637 2.1914,1.273 2.8243,1.769 2.8243,2.637 0,0.808 0.0312,2.367 0.0664,4.16 0.0625,3.371 0.1406,7.601 0.0625,9.054 l -0.1407,2.665 h 22.4102 c 5.2695,1.269 9.5742,3.496 13.7422,5.648 6.0195,3.109 11.7031,6.055 20.8636,6.055 6.343,0 10.824,-2.246 14.781,-4.223 3.078,-1.543 5.746,-2.871 8.773,-2.871 2.391,0 5.848,1.391 9.512,2.863 5.469,2.203 11.668,4.699 18.461,4.699 8.539,0 14.16,-3.535 19.117,-6.656 2.176,-1.371 4.238,-2.664 6.41,-3.594 5.84,-2.496 13.786,-2.449 22.262,-2.488 l 3.91,0.004 -0.097,-2.617 c -0.161,-4.332 -0.11,-7.496 -0.055,-10.738 0.031,-1.684 0.058,-3.383 0.058,-5.274 0,-1.039 0.325,-1.344 1.981,-2.426 2.234,-1.468 5.625,-3.691 5.625,-10.214 0,-7.59 -5.039,-9.77 -8.051,-11.075 -0.668,-0.293 -1.668,-0.726 -1.89,-0.972 l -0.243,-35.735 c 0.071,-0.48 1.539,-1.441 2.961,-2.371 2.785,-1.82 6.61,-4.32 6.61,-9.535 0,-6.801 -3.981,-9.051 -6.61,-10.531 -2.355,-1.328 -3.023,-1.809 -2.847,-3.914 0.492,-6 0.023,-18.227 0.004,-18.742 l -0.09,-2.43 -21.188,-0.004 c -16.074,-0.012 -39.054,-0.024 -61.23,-0.024" /><path
         id="path118"
         style="fill:#154281;fill-opacity:1;fill-rule:nonzero;stroke:none"
         d="m 120.188,691.793 c -28.3989,0 -55.9419,0.055 -58.2583,0.059 l -2.5469,0.003 0.0274,2.555 c 0.2461,18.672 0.0078,98.434 0,99.235 l 5.0507,0.019 c 0,-0.773 0.2188,-74.305 0.0235,-96.769 37.7346,-0.079 103.6486,-0.114 117.1326,0.152 -0.004,24.305 -0.125,97.191 -0.125,97.191 l 5.047,0.012 c 0,0 0.129,-78.242 0.129,-99.637 v -2.297 l -2.297,-0.211 c -2.683,-0.25 -33.922,-0.312 -64.183,-0.312" /><path
         id="path120"
         style="fill:#154281;fill-opacity:1;fill-rule:nonzero;stroke:none"
         d="m 125.688,694.141 h -5.051 v 104.476 h 5.051 V 694.141" /><path
         id="path122"
         style="fill:#154281;fill-opacity:1;fill-rule:nonzero;stroke:none"
         d="m 125.004,707.023 c 5.152,-0.242 14.617,-3.718 23.805,-6.5 11.894,-3.609 24.519,-1.082 33.859,-2.957 2.949,-0.589 -57.664,-1.062 -57.664,-1.062 0.242,11.699 0,10.519 0,10.519" /><path
         id="path124"
         style="fill:#154281;fill-opacity:1;fill-rule:nonzero;stroke:none"
         d="m 127.641,704.137 c 0.004,-1.328 -0.024,-2.992 -0.067,-5.09 5.289,0.047 11.117,0.098 16.949,0.164 -1.082,0.34 -2.164,0.687 -3.226,1.023 -5.137,1.641 -10.051,3.207 -13.656,3.903 z m -5.215,-10.176 0.051,2.598 c 0.089,4.148 0.113,6.605 0.113,8.05 l -0.652,0.032 1.058,5.144 2.309,-0.222 c 0.207,-0.028 0.394,-0.047 0.57,-0.075 4.199,-0.375 10.137,-2.269 16.953,-4.445 2.207,-0.707 4.469,-1.426 6.715,-2.109 6.566,-1.993 13.391,-2.012 19.984,-2.032 4.879,-0.011 9.489,-0.027 13.641,-0.859 l 2.227,-0.449 -0.11,-2.309 c -0.101,-1.031 -0.16,-1.687 -3.094,-2.129 l -0.015,-0.062 c -0.059,0.015 -0.117,0.023 -0.176,0.039 -5.277,-0.746 -19.289,-0.856 -56.977,-1.153 l -2.597,-0.019" /><path
         id="path126"
         style="fill:#154281;fill-opacity:1;fill-rule:nonzero;stroke:none"
         d="m 116.289,691.539 c 0,2.613 3.051,4.731 6.813,4.731 3.765,0 6.808,-2.118 6.808,-4.731 0,-2.609 -3.043,-4.726 -6.808,-4.726 -3.762,0 -6.813,2.117 -6.813,4.726" /><path
         id="path128"
         style="fill:#154281;fill-opacity:1;fill-rule:nonzero;stroke:none"
         d="m 123.102,693.746 c -2.618,0 -4.286,-1.308 -4.286,-2.207 0,-0.879 1.707,-2.203 4.286,-2.203 2.617,0 4.285,1.305 4.285,2.203 0,0.899 -1.668,2.207 -4.285,2.207 z m 0,-9.461 c -5.235,0 -9.336,3.192 -9.336,7.254 0,4.066 4.101,7.254 9.336,7.254 5.23,0 9.332,-3.188 9.332,-7.254 0,-4.062 -4.102,-7.254 -9.332,-7.254" /><path
         id="path130"
         style="fill:#154281;fill-opacity:1;fill-rule:nonzero;stroke:none"
         d="m 119.762,707.023 c -5.153,-0.242 -14.614,-3.718 -23.7972,-6.5 -11.9062,-3.609 -24.5234,-1.082 -33.8671,-2.957 -2.9454,-0.589 57.6643,-1.062 57.6643,-1.062 -0.242,11.699 0,10.519 0,10.519" /><path
         id="path132"
         style="fill:#154281;fill-opacity:1;fill-rule:nonzero;stroke:none"
         d="m 100.25,699.211 c 5.82,-0.066 11.652,-0.117 16.941,-0.164 -0.046,2.098 -0.07,3.762 -0.066,5.09 -3.602,-0.696 -8.52,-2.262 -13.656,-3.903 -1.067,-0.339 -2.141,-0.683 -3.219,-1.023 z m 22.09,-5.25 -2.598,0.019 c -37.6873,0.297 -51.699,0.407 -56.9764,1.153 -0.0586,-0.016 -0.1172,-0.024 -0.1718,-0.039 l -0.0118,0.062 c -2.9414,0.442 -3,1.098 -3.1015,2.129 l -0.2149,2.266 2.3321,0.492 c 4.1523,0.832 8.7617,0.848 13.6445,0.859 6.5976,0.02 13.418,0.039 19.9883,2.032 2.2422,0.679 4.5,1.402 6.7075,2.105 6.816,2.18 12.757,4.074 16.953,4.449 0.175,0.028 0.363,0.047 0.57,0.075 l 2.289,0.257 1.078,-5.179 -0.652,-0.032 c 0,-1.445 0.023,-3.902 0.105,-8.05 l 0.059,-2.598" /><path
         id="path134"
         style="fill:#ffffff;fill-opacity:1;fill-rule:nonzero;stroke:none"
         d="m 143.172,330.371 c 0,33.711 28.363,61.055 63.359,61.055 34.992,0 63.364,-27.344 63.364,-61.055 0,-33.711 -28.372,-61.016 -63.364,-61.016 -34.996,0 -63.359,27.305 -63.359,61.016" /><path
         id="path136"
         style="fill:#154281;fill-opacity:1;fill-rule:nonzero;stroke:none"
         d="m 206.531,388.906 c -33.547,0 -60.836,-26.258 -60.836,-58.535 0,-32.258 27.289,-58.496 60.836,-58.496 33.547,0 60.84,26.238 60.84,58.496 0,32.277 -27.293,58.535 -60.84,58.535 z m 0,-122.07 c -36.328,0 -65.883,28.496 -65.883,63.535 0,35.059 29.555,63.574 65.883,63.574 36.328,0 65.887,-28.515 65.887,-63.574 0,-35.039 -29.559,-63.535 -65.887,-63.535" /><path
         id="path138"
         style="fill:#ffffff;fill-opacity:1;fill-rule:nonzero;stroke:none"
         d="m 317.371,476.977 c 0,33.711 28.367,61.035 63.359,61.035 34.997,0 63.36,-27.324 63.36,-61.035 0,-33.715 -28.363,-61.02 -63.36,-61.02 -34.992,0 -63.359,27.305 -63.359,61.02" /><path
         id="path140"
         style="fill:#154281;fill-opacity:1;fill-rule:nonzero;stroke:none"
         d="m 380.73,535.492 c -33.546,0 -60.839,-26.25 -60.839,-58.515 0,-32.254 27.293,-58.5 60.839,-58.5 33.543,0 60.84,26.246 60.84,58.5 0,32.265 -27.297,58.515 -60.84,58.515 z m 0,-122.054 c -36.328,0 -65.878,28.5 -65.878,63.539 0,35.046 29.55,63.554 65.878,63.554 36.329,0 65.879,-28.508 65.879,-63.554 0,-35.039 -29.55,-63.539 -65.879,-63.539" /><path
         id="path142"
         style="fill:#ffffff;fill-opacity:1;fill-rule:nonzero;stroke:none"
         d="m 481.723,330.371 c 0,33.711 28.367,61.055 63.367,61.055 34.988,0 63.359,-27.344 63.359,-61.055 0,-33.711 -28.371,-61.016 -63.359,-61.016 -35,0 -63.367,27.305 -63.367,61.016" /><path
         id="path144"
         style="fill:#154281;fill-opacity:1;fill-rule:nonzero;stroke:none"
         d="m 545.09,388.906 c -33.551,0 -60.844,-26.258 -60.844,-58.535 0,-32.258 27.293,-58.496 60.844,-58.496 33.547,0 60.836,26.238 60.836,58.496 0,32.277 -27.289,58.535 -60.836,58.535 z m 0,-122.07 c -36.332,0 -65.895,28.496 -65.895,63.535 0,35.059 29.563,63.574 65.895,63.574 36.328,0 65.883,-28.515 65.883,-63.574 0,-35.039 -29.555,-63.535 -65.883,-63.535" /><path
         id="path146"
         style="fill:#154281;fill-opacity:1;fill-rule:nonzero;stroke:none"
         d="m 442.418,702.797 c -8.875,9.766 -17.191,20.476 -23.262,28.293 -3.91,5.035 -7.957,10.242 -9.004,10.98 -2.218,0.899 -4.797,3.727 -8.707,8.004 -10.695,11.735 -30.617,33.563 -68.269,35.653 -16.367,0.91 -59.571,-5.102 -60.805,-14.325 l -5,0.672 c 2.156,16.086 56.652,19.239 66.09,18.692 39.707,-2.207 60.523,-25.028 71.719,-37.289 2.941,-3.227 5.726,-6.282 7.136,-6.864 1.586,-0.675 3.465,-2.957 10.825,-12.429 6.019,-7.754 14.269,-18.368 23.007,-27.996 l -3.73,-3.391" /><path
         id="path148"
         style="fill:#154281;fill-opacity:1;fill-rule:nonzero;stroke:none"
         d="m 314.902,690.355 -4.976,0.782 c 0.101,0.664 0.176,1.351 0.219,2.066 -1.536,0.203 -4.286,0.235 -6.079,0.258 -3.375,0.035 -5.515,0.078 -6.882,0.488 l -1.618,0.481 -0.511,1.957 c -0.231,2.187 1.863,3.332 4.277,4.652 0.453,0.25 0.856,0.461 1.07,0.613 l 0.953,-1.363 -0.359,1.91 c 10.813,4.164 18.777,9.125 19.371,12.059 0.043,0.207 0.117,0.586 -0.574,1.262 -4.145,3.988 -7.281,8.175 -9.801,11.543 -1.465,1.957 -2.777,3.714 -4.058,5.121 -4.649,5.054 -9.821,7.211 -17.282,7.211 -4.547,0 -12.464,-6.93 -17.699,-11.508 -2.195,-1.926 -4.105,-3.586 -5.488,-4.563 l -3.207,3.879 1.277,1.211 c 3.68,3.457 12.285,11.551 12.285,17.289 0,9.664 -4.777,18.766 -9.402,27.563 -3.191,6.082 -6.207,11.824 -7.691,17.672 l 4.894,1.242 c 1.332,-5.274 4.215,-10.758 7.266,-16.563 4.906,-9.347 9.984,-19.004 9.984,-29.914 0,-1.418 -0.289,-2.848 -0.793,-4.273 2.985,1.812 5.918,3.015 8.574,3.015 8.895,0 15.371,-2.73 21.004,-8.855 1.387,-1.52 2.801,-3.402 4.375,-5.508 2.535,-3.383 5.41,-7.219 9.258,-10.93 2.227,-2.144 2.328,-4.39 2.027,-5.894 -1.179,-5.813 -11.011,-11.094 -19.988,-14.766 5.817,-0.086 9.902,-0.351 9.902,-3.847 0,-1.508 -0.117,-2.946 -0.328,-4.29" /><path
         id="path150"
         style="fill:#154281;fill-opacity:1;fill-rule:nonzero;stroke:none"
         d="m 239.039,662.34 v 5.047 c 13.781,0 20.672,1.035 26.324,3.972 8.715,4.563 19.145,11.899 21.414,17.192 l 4.641,-1.992 c -3.824,-8.899 -20.43,-17.95 -23.723,-19.68 -7.328,-3.797 -16.05,-4.539 -28.656,-4.539" /><path
         id="path152"
         style="fill:#154281;fill-opacity:1;fill-rule:nonzero;stroke:none"
         d="M 23.2344,844.699 C 23.2266,801.508 23.1758,493.145 23.1602,488.16 22.2617,192.727 326.438,42.9492 366.367,41.582 c 0.156,-0.0117 0.321,-0.0117 0.485,-0.0117 21.679,-0.0078 129.871,45.3242 224.23,135.0117 66.391,63.106 146.023,168.137 148.383,310.137 v 357.98 z M 366.684,31.5703 c -0.227,0 -0.442,0.0117 -0.657,0.0117 -41.054,1.4063 -353.7887,154.578 -352.8668,456.606 0.0156,5.363 0.0742,361.511 0.0742,361.511 v 5 H 749.465 V 486.637 C 747.047,341.086 665.75,233.75 597.973,169.336 502.707,78.7891 392.348,31.5703 366.684,31.5703" /></g></g></svg>