<?xml version="1.0" encoding="UTF-8" standalone="no"?>
<svg
   xmlns:dc="http://purl.org/dc/elements/1.1/"
   xmlns:cc="http://creativecommons.org/ns#"
   xmlns:rdf="http://www.w3.org/1999/02/22-rdf-syntax-ns#"
   xmlns:svg="http://www.w3.org/2000/svg"
   xmlns="http://www.w3.org/2000/svg"
   viewBox="0 0 412.45334 113.84"
   height="113.84"
   width="412.45334"
   xml:space="preserve"
   id="svg2"
   version="1.1"><metadata
     id="metadata8"><rdf:RDF><cc:Work
         rdf:about=""><dc:format>image/svg+xml</dc:format><dc:type
           rdf:resource="http://purl.org/dc/dcmitype/StillImage" /></cc:Work></rdf:RDF></metadata><defs
     id="defs6" /><g
     transform="matrix(1.3333333,0,0,-1.3333333,0,113.84)"
     id="g10"><g
       transform="scale(0.1)"
       id="g12"><path
         id="path14"
         style="fill:#011f5b;fill-opacity:1;fill-rule:nonzero;stroke:none"
         d="m 1028.15,438.453 c 37.29,-12.906 58.8,-14.351 101.83,-14.351 121.9,0 199.35,65.988 199.35,177.855 0,87.481 -48.76,205.086 -199.35,205.086 h -101.83 z m 0,-266.754 c 0,-101.8357 24.38,-130.5193 93.22,-130.5193 V 16.7852 H 825.922 v 24.3945 c 57.367,0 93.219,18.6562 93.219,127.6483 v 514.871 c 0,100.399 -24.375,130.512 -93.219,130.512 v 24.387 h 299.748 c 226.61,0 318.4,-120.473 318.4,-233.774 0,-136.25 -103.27,-212.265 -289.72,-212.265 -35.85,0 -65.97,1.433 -126.2,8.613 V 171.699" /><path
         id="path16"
         style="fill:#011f5b;fill-opacity:1;fill-rule:nonzero;stroke:none"
         d="m 1739.51,350.977 c 4.31,111.855 -71.7,157.75 -136.25,157.75 -84.62,0 -134.82,-63.106 -140.56,-157.75 z M 1462.7,326.582 c -2.84,-228.0468 133.4,-285.4023 202.23,-285.4023 70.29,0 106.14,24.3672 179.29,106.1333 V 110.02 C 1782.55,31.1328 1723.73,1.01563 1634.82,1.01563 c -159.21,0 -273.94,110.42937 -273.94,263.90637 0,153.445 111.88,273.926 255.29,273.926 117.62,0 226.62,-94.664 219.45,-212.266 H 1462.7" /><path
         id="path18"
         style="fill:#011f5b;fill-opacity:1;fill-rule:nonzero;stroke:none"
         d="m 2386.32,127.246 c 0,-65.9843 14.37,-86.0663 86.07,-86.0663 V 16.7852 h -271.07 v 24.3945 c 68.83,0 87.49,15.7539 87.49,63.0973 v 265.332 c 0,81.746 -58.82,116.168 -113.32,116.168 -50.19,0 -94.66,-31.543 -144.84,-98.953 V 138.699 c 0,-77.4373 10.03,-97.5193 86.06,-97.5193 V 16.7852 h -268.2 v 24.3945 c 67.4,0 84.63,5.7344 84.63,97.5193 v 285.403 c 0,61.675 -15.8,74.586 -84.63,74.586 v 24.375 l 157.75,15.785 h 24.39 V 437.012 c 60.24,68.847 119.06,101.836 183.58,101.836 84.62,0 172.09,-60.239 172.09,-182.149 V 127.246" /><path
         id="path20"
         style="fill:#011f5b;fill-opacity:1;fill-rule:nonzero;stroke:none"
         d="m 3007.34,127.246 c 0,-65.9843 14.34,-86.0663 86.06,-86.0663 V 16.7852 h -271.06 v 24.3945 c 68.83,0 87.46,15.7539 87.46,63.0973 v 265.332 c 0,81.746 -58.78,116.168 -113.28,116.168 -50.21,0 -94.66,-31.543 -144.88,-98.953 V 138.699 c 0,-77.4373 10.06,-97.5193 86.07,-97.5193 V 16.7852 H 2469.5 v 24.3945 c 67.41,0 84.63,5.7344 84.63,97.5193 v 285.403 c 0,61.675 -15.77,74.586 -84.63,74.586 v 24.375 l 157.79,15.785 h 24.35 V 437.012 c 60.25,68.847 119.06,101.836 183.59,101.836 84.61,0 172.11,-60.239 172.11,-182.149 V 127.246" /><path
         id="path22"
         style="fill:#ffffff;fill-opacity:1;fill-rule:nonzero;stroke:none"
         d="M 0.0820313,853.777 H 762.617 c 0,0 0,-374.597 0,-381.211 C 757.465,161.836 409.25,-1.49219 365.441,0.0117188 319.887,1.5625 -0.953125,161.379 0.00390625,474.18 0.0195313,479.813 0.0820313,853.777 0.0820313,853.777" /><path
         id="path24"
         style="fill:#ffffff;fill-opacity:1;fill-rule:nonzero;stroke:none"
         d="M 18.4688,833.512 H 744.711 c 0,0 0,-356.77 0,-363.059 C 739.785,174.512 408.152,18.9648 366.434,20.3906 323.043,21.875 17.4883,174.082 18.3945,471.996 c 0.0157,5.352 0.0743,361.516 0.0743,361.516" /><path
         id="path26"
         style="fill:#990000;fill-opacity:1;fill-rule:nonzero;stroke:none"
         d="m 18.3984,612.871 c 1.0586,-1.047 0.0469,220.582 0.0469,220.582 H 744.152 c 0,0 0,-118.863 0,-220.586 l -725.7536,0.004" /><path
         id="path28"
         style="fill:#990000;fill-opacity:1;fill-rule:nonzero;stroke:none"
         d="m 20.75,615.395 720.879,-0.004 V 830.926 H 20.9766 C 21.707,670.641 21.6602,627.402 20.75,615.395 Z m 725.926,-5.051 -728.2776,0.004 -0.4218,2.613 -2.0196,0.422 c 0.7696,5.621 0.2344,160.758 -0.039,220.058 l -0.0078,2.536 H 746.676 V 610.344" /><path
         id="path30"
         style="fill:#011f5b;fill-opacity:1;fill-rule:nonzero;stroke:none"
         d="M 59.0586,289.941 C 86.9805,231.27 121.484,184.023 169.934,143.828 L 381.246,357.48 584.656,148.848 c 41.93,38.34 82.774,84.765 112.035,139.765 L 381.004,592.32 60.5117,289.316 l -1.4531,0.625" /><path
         id="path32"
         style="fill:#011f5b;fill-opacity:1;fill-rule:nonzero;stroke:none"
         d="M 62.7852,287.996 C 91.0078,229.578 125.102,184.734 169.773,147.246 L 381.262,361.074 584.754,152.363 c 47.039,43.313 83.633,88.965 108.812,135.75 L 380.988,588.84 Z M 170.102,140.41 168.32,141.887 C 121.422,180.801 85.9844,227.5 56.7852,288.855 l -2.8829,6.055 6.0782,-2.625 321.0395,303.516 1.73,-1.664 317.063,-305.028 -0.895,-1.679 C 673.121,238.945 635.25,191.699 586.355,146.98 l -1.8,-1.636 L 381.23,353.887 170.102,140.41" /><path
         id="path34"
         style="fill:#011f5b;fill-opacity:1;fill-rule:nonzero;stroke:none"
         d="m 18.3984,608.848 v 5.047 l 725.7106,0.097 v -5.047 L 18.3984,608.848" /><path
         id="path36"
         style="fill:#ffffff;fill-opacity:1;fill-rule:nonzero;stroke:none"
         d="m 562.316,778.637 h 19.75 c 14.481,3.304 19.758,11.699 34.602,11.699 10.684,0 15.711,-7.094 23.559,-7.094 6.625,0 16.812,7.563 27.972,7.563 11.418,0 17.063,-6.856 24.547,-10.043 6.625,-2.836 15.332,-2.688 24.535,-2.688 -0.25,-6.621 0,-10.551 0,-16.101 0,-5.672 7.61,-3.426 7.61,-12.653 0,-9.691 -9.825,-7.797 -9.825,-11.699 l -0.363,-36.043 c 0.492,-4.492 9.57,-5.086 9.57,-11.933 0,-10.168 -10.105,-6.649 -9.449,-14.661 0.489,-5.906 0,-18.437 0,-18.437 -19.504,0 -144.972,-1.149 -151.117,-0.91 0.371,13.351 2.445,12.554 2.906,18.992 0.371,5.199 -11.285,8.394 -11.285,17.137 0,6.031 6.988,5.675 7.598,11.347 v 35.93 c -0.36,4.727 -10.914,7.09 -10.551,13.824 0.438,8.059 9.82,7.031 9.82,12.414 0,2.36 0.243,11.11 0.121,13.356" /><path
         id="path38"
         style="fill:#011f5b;fill-opacity:1;fill-rule:nonzero;stroke:none"
         d="m 566.328,658.129 c 10.598,-0.094 49.641,0.262 84.567,0.523 26.46,0.196 51.226,0.387 61.492,0.414 0.109,3.903 0.265,11.571 -0.074,15.707 -0.446,5.426 2.933,7.336 5.398,8.735 2.434,1.371 4.039,2.277 4.039,6.137 0,2.363 -1.641,3.558 -4.316,5.304 -2.293,1.5 -4.895,3.199 -5.239,6.356 l 0.344,36.34 c 0,3.148 2.785,4.351 4.816,5.23 2.797,1.219 5.008,2.176 5.008,6.445 0,3.809 -1.398,4.727 -3.347,6.008 -1.797,1.176 -4.258,2.785 -4.258,6.645 0,1.855 -0.024,3.531 -0.055,5.183 -0.043,2.633 -0.086,5.223 -0.019,8.395 -0.02,0 -0.036,0 -0.051,0 -8.469,0 -16.434,0.133 -22.879,2.89 -2.539,1.086 -4.867,2.543 -7.117,3.961 -4.805,3.028 -9.348,5.879 -16.438,5.879 -5.812,0 -11.527,-2.301 -16.57,-4.328 -4.309,-1.738 -8.027,-3.234 -11.402,-3.234 -4.219,0 -7.676,1.73 -11.028,3.406 -3.625,1.813 -7.375,3.688 -12.531,3.688 -7.926,0 -12.848,-2.54 -18.539,-5.485 -4.234,-2.191 -9.039,-4.676 -15.5,-6.152 l -17.758,-0.055 c -0.008,-1.976 -0.055,-4.555 -0.094,-6.777 -0.035,-1.746 -0.058,-3.27 -0.058,-4.063 0,-3.894 -2.957,-5.613 -5.336,-6.996 -2.684,-1.558 -4.332,-2.66 -4.488,-5.555 -0.122,-2.238 1.859,-3.902 4.89,-6.187 2.664,-2 5.406,-4.07 5.656,-7.309 l 0.008,-36.121 c -0.429,-4.09 -2.976,-6.004 -4.836,-7.406 -1.867,-1.398 -2.761,-2.152 -2.761,-3.941 0,-3.723 2.996,-6.332 5.89,-8.852 2.774,-2.41 5.641,-4.906 5.387,-8.465 -0.195,-2.777 -0.695,-4.433 -1.172,-6.031 -0.625,-2.074 -1.324,-4.398 -1.629,-10.289 z m 2.055,-5.047 c -2.528,0 -4.176,0.008 -4.774,0.031 l -2.496,0.094 0.075,2.496 c 0.234,8.496 1.175,11.641 1.933,14.164 0.461,1.52 0.817,2.715 0.977,4.942 0.074,1.046 -1.914,2.773 -3.664,4.3 -3.403,2.957 -7.629,6.637 -7.629,12.657 0,4.386 2.761,6.461 4.773,7.976 1.75,1.313 2.672,2.071 2.84,3.641 l -0.016,35.66 c -0.062,0.766 -2.05,2.266 -3.648,3.469 -3.195,2.406 -7.172,5.402 -6.899,10.492 0.317,5.762 4.333,8.098 6.989,9.641 2.191,1.277 2.828,1.773 2.828,2.636 0,0.813 0.027,2.371 0.062,4.157 0.063,3.375 0.141,7.609 0.063,9.062 l -0.141,2.66 h 22.41 c 5.274,1.27 9.582,3.496 13.747,5.653 6.015,3.109 11.699,6.046 20.855,6.046 6.348,0 10.836,-2.246 14.789,-4.222 3.082,-1.543 5.742,-2.871 8.77,-2.871 2.39,0 5.855,1.39 9.515,2.867 5.469,2.203 11.664,4.695 18.457,4.695 8.547,0 14.164,-3.535 19.121,-6.652 2.184,-1.375 4.239,-2.668 6.41,-3.594 5.836,-2.496 13.747,-2.508 22.219,-2.488 l 3.949,0.008 -0.097,-2.618 c -0.16,-4.336 -0.106,-7.5 -0.055,-10.742 0.031,-1.679 0.063,-3.387 0.063,-5.269 0,-1.039 0.32,-1.344 1.976,-2.426 2.238,-1.473 5.629,-3.692 5.629,-10.227 0,-7.586 -5.043,-9.769 -8.059,-11.074 -0.664,-0.285 -1.667,-0.723 -1.89,-0.973 l -0.238,-35.718 c 0.07,-0.485 1.543,-1.45 2.964,-2.379 2.789,-1.824 6.61,-4.317 6.61,-9.531 0,-6.801 -3.977,-9.047 -6.61,-10.536 -2.351,-1.328 -3.027,-1.804 -2.851,-3.918 0.496,-5.992 0.023,-18.222 0.008,-18.742 l -0.094,-2.426 h -2.43 c -8.179,0 -35.031,-0.199 -63.89,-0.414 -34.375,-0.265 -69.731,-0.527 -82.551,-0.527" /><path
         id="path40"
         style="fill:#011f5b;fill-opacity:1;fill-rule:nonzero;stroke:none"
         d="m 636.633,676.18 c -28.399,0 -55.934,0.054 -58.246,0.058 l -2.551,0.008 0.031,2.555 c 0.246,18.672 0.004,98.429 0,99.23 l 5.047,0.02 c 0,-0.77 0.227,-74.301 0.024,-96.766 37.73,-0.086 103.648,-0.117 117.128,0.149 -0.003,24.308 -0.117,97.199 -0.117,97.199 l 5.051,0.008 c 0,0 0.117,-78.246 0.117,-99.637 v -2.301 l -2.297,-0.211 c -2.683,-0.246 -33.925,-0.312 -64.187,-0.312" /><path
         id="path42"
         style="fill:#011f5b;fill-opacity:1;fill-rule:nonzero;stroke:none"
         d="m 642.141,678.531 h -5.047 v 104.477 h 5.047 V 678.531" /><path
         id="path44"
         style="fill:#011f5b;fill-opacity:1;fill-rule:nonzero;stroke:none"
         d="m 641.461,691.41 c 5.152,-0.234 14.609,-3.711 23.805,-6.5 11.894,-3.601 24.515,-1.078 33.855,-2.953 2.945,-0.59 -57.66,-1.062 -57.66,-1.062 0.238,11.703 0,10.515 0,10.515" /><path
         id="path46"
         style="fill:#011f5b;fill-opacity:1;fill-rule:nonzero;stroke:none"
         d="m 644.094,688.531 c 0.008,-1.328 -0.02,-3 -0.059,-5.093 5.289,0.042 11.117,0.097 16.942,0.16 -1.075,0.343 -2.141,0.683 -3.204,1.019 -5.144,1.649 -10.07,3.219 -13.679,3.914 z m -5.203,-10.183 0.05,2.597 c 0.082,4.149 0.106,6.606 0.106,8.047 l -0.641,0.031 1.039,5.149 2.309,-0.223 c 0.223,-0.023 0.418,-0.043 0.598,-0.07 4.199,-0.379 10.14,-2.277 16.957,-4.449 2.203,-0.703 4.453,-1.426 6.687,-2.106 6.567,-1.988 13.387,-2.008 19.981,-2.031 4.878,-0.016 9.496,-0.027 13.644,-0.863 l 2.231,-0.446 -0.114,-2.308 c -0.101,-1.031 -0.164,-1.692 -3.097,-2.129 l -0.016,-0.067 c -0.055,0.016 -0.113,0.028 -0.172,0.04 -5.277,-0.747 -19.285,-0.852 -56.973,-1.153 l -2.589,-0.019" /><path
         id="path48"
         style="fill:#011f5b;fill-opacity:1;fill-rule:nonzero;stroke:none"
         d="m 632.742,675.926 c 0,2.613 3.051,4.734 6.813,4.734 3.765,0 6.808,-2.121 6.808,-4.734 0,-2.606 -3.043,-4.719 -6.808,-4.719 -3.762,0 -6.813,2.113 -6.813,4.719" /><path
         id="path50"
         style="fill:#011f5b;fill-opacity:1;fill-rule:nonzero;stroke:none"
         d="m 639.555,678.137 c -2.578,0 -4.289,-1.332 -4.289,-2.207 0,-0.875 1.711,-2.2 4.289,-2.2 2.617,0 4.285,1.297 4.285,2.2 0,0.894 -1.668,2.207 -4.285,2.207 z m 0,-9.457 c -5.239,0 -9.336,3.183 -9.336,7.25 0,4.066 4.097,7.254 9.336,7.254 5.23,0 9.336,-3.188 9.336,-7.254 0,-4.067 -4.106,-7.25 -9.336,-7.25" /><path
         id="path52"
         style="fill:#011f5b;fill-opacity:1;fill-rule:nonzero;stroke:none"
         d="m 636.215,691.41 c -5.152,-0.234 -14.613,-3.711 -23.805,-6.5 -11.898,-3.601 -24.523,-1.078 -33.859,-2.953 -2.946,-0.59 57.664,-1.062 57.664,-1.062 -0.246,11.703 0,10.515 0,10.515" /><path
         id="path54"
         style="fill:#011f5b;fill-opacity:1;fill-rule:nonzero;stroke:none"
         d="m 616.695,683.598 c 5.825,-0.063 11.657,-0.118 16.946,-0.16 -0.043,2.093 -0.071,3.765 -0.067,5.093 -3.605,-0.695 -8.527,-2.265 -13.676,-3.914 -1.058,-0.336 -2.128,-0.676 -3.203,-1.019 z m 22.098,-5.25 -2.602,0.019 c -37.683,0.301 -51.691,0.406 -56.968,1.153 -0.063,-0.012 -0.114,-0.024 -0.172,-0.04 l -0.016,0.067 c -2.933,0.437 -3,1.098 -3.101,2.129 l -0.215,2.265 2.336,0.493 c 4.148,0.832 8.758,0.843 13.64,0.859 6.594,0.023 13.414,0.043 19.981,2.031 2.238,0.68 4.488,1.403 6.691,2.106 6.824,2.175 12.774,4.078 16.973,4.449 0.176,0.027 0.363,0.047 0.574,0.07 l 2.285,0.262 1.078,-5.188 -0.652,-0.031 c 0,-1.441 0.023,-3.894 0.105,-8.047 l 0.063,-2.597" /><path
         id="path56"
         style="fill:#ffffff;fill-opacity:1;fill-rule:nonzero;stroke:none"
         d="m 234.059,646.035 c 1.964,-7.68 7.73,-12.765 17.179,-12.765 17.543,0 34.477,13.003 44.657,20.328 7.98,5.675 16.199,11.699 16.199,24.113 l -1.473,-4.727 c 0,0 13.746,13.704 47.602,2.836 9.41,-3.023 49.699,-25.644 58.41,-29.312 7.484,-3.192 33.719,-22.012 74.722,-14.754 0,0 62.598,8.613 48.614,73.074 -9.996,46.074 -6.895,49.348 -3.09,64.121 -1.473,0.707 -38.285,8.981 -37.301,-42.074 -15.957,-1.656 -36.324,-13.707 -23.07,-45.387 5.398,8.043 12.633,16.547 22.578,16.547 6.254,0 12.844,-8.988 13.25,-15.597 0.98,-16.075 -15.215,-23.165 -35.332,-19.856 -10.203,1.676 -19.602,12.981 -33.66,23.156 2.453,1.18 4.695,9.461 4.695,12.774 0,8.152 -6.992,11.933 -11.773,14.656 0.98,2.832 2.933,6.617 2.933,9.453 0,6.5 -9.195,6.027 -12.746,8.508 1.465,2.012 1.465,0.824 1.465,3.781 0,9.461 1.473,14.66 -17.668,14.184 1.598,9.34 -0.371,15.363 -6.867,17.965 l -14.235,1.89 c -8.835,1.653 -0.027,4.598 -8.179,12.453 -7.27,7.016 -19.242,0 -19.242,0 0,6.496 -4.485,11.661 -12.336,11.661 -4.168,0 -9.321,-0.36 -12.266,-1.895 l -5.887,-4.727 c -7.363,0 -9.207,6.622 -17.672,6.622 -8.461,0 -11.898,-6.622 -15.214,-10.875 -5.766,2.718 -6.504,7.562 -14.235,7.562 -4.535,0 -5.883,-4.844 -7.851,-7.09 -5.028,-5.555 -4.672,-11.312 -12.524,-14.148 l -2.922,5.136 c -0.09,0.321 -0.179,0.649 -0.257,0.977 -11.54,-5.559 -37.559,-64.883 -37.559,-77.051 0,-11.59 10.074,-6.511 10.074,-18.922 0,-7.324 -10.797,-12.644 -10.797,-18.906 0,-7.922 9.199,-11.816 17.172,-11.816 l -5.394,-1.895" /><path
         id="path58"
         style="fill:#011f5b;fill-opacity:1;fill-rule:nonzero;stroke:none"
         d="m 334.059,682.543 c 6.777,0 15.039,-1.148 24.937,-4.32 5.774,-1.856 22.117,-10.489 36.543,-18.106 9.57,-5.054 18.609,-9.828 22.07,-11.285 1.121,-0.477 2.637,-1.277 4.528,-2.289 11.179,-5.961 34.418,-18.383 68.777,-12.309 0.352,0.051 26.258,3.871 39.992,23.555 8.446,12.102 10.668,27.746 6.598,46.508 -9.231,42.558 -7.395,49.316 -4.055,61.59 l 0.309,1.16 c -3.793,0.516 -12.141,0.91 -19.313,-4.289 -8.531,-6.192 -12.683,-18.246 -12.347,-35.832 l 0.043,-2.321 -2.305,-0.242 c -9.801,-1.015 -18.035,-5.636 -22.027,-12.359 -3.875,-6.531 -4.082,-14.988 -0.625,-25.191 5.285,7.035 12.324,13.746 21.902,13.746 7.762,0 15.281,-10.047 15.766,-17.965 0.398,-6.563 -1.789,-12.199 -6.325,-16.293 -6.82,-6.164 -18.457,-8.434 -31.933,-6.203 -7.531,1.234 -14.379,7 -22.317,13.679 -3.859,3.258 -7.859,6.621 -12.414,9.918 l -3.429,2.481 3.812,1.832 c 1.207,0.91 3.274,7.414 3.274,10.504 0,6.492 -5.629,9.695 -10.157,12.269 l -1.82,1.035 0.34,2.176 c 0.277,0.809 0.637,1.692 1.004,2.606 0.843,2.086 1.797,4.449 1.797,6.023 0,2.125 -1.633,2.965 -6.227,4.274 -2.031,0.578 -3.957,1.121 -5.449,2.168 l -2.106,1.468 1.516,2.082 c 0.414,0.571 0.73,0.934 0.98,1.196 0.004,0.257 0,0.609 0,1.101 l 0.012,1.926 c 0.039,3.934 0.008,6.227 -1.297,7.504 -1.711,1.695 -6.226,2.406 -13.8,2.23 l -3.067,-0.078 0.52,3.024 c 1.855,10.843 -1.871,13.824 -5.325,15.207 l -13.625,1.726 c -5.664,1.055 -6.668,3.207 -6.531,6.574 0.07,1.625 0.145,3.469 -3.062,6.563 -5.793,5.605 -16.129,-0.301 -16.227,-0.363 l -3.785,-2.196 -0.004,4.375 c 0,5.551 -3.855,9.141 -9.816,9.141 -5.168,0 -9.11,-0.574 -11.098,-1.613 l -6.168,-5.008 h -0.887 c -4.332,0 -7.121,1.898 -9.586,3.574 -2.402,1.629 -4.48,3.047 -8.086,3.047 -5.996,0 -8.925,-4.039 -11.761,-7.941 -0.504,-0.684 -0.985,-1.348 -1.465,-1.961 l -1.242,-1.594 -1.821,0.859 c -2.496,1.176 -4.148,2.672 -5.605,3.989 -2.223,2.007 -3.688,3.335 -7.555,3.335 -1.738,0 -2.656,-1.187 -4.203,-3.699 -0.582,-0.953 -1.148,-1.843 -1.754,-2.531 -1.629,-1.805 -2.656,-3.672 -3.644,-5.473 -1.965,-3.558 -3.993,-7.246 -9.918,-9.39 l -1.996,-0.719 -3.047,5.363 c -10.926,-10.453 -34.032,-61.578 -34.032,-73.207 0,-4.367 1.52,-5.406 3.817,-6.984 2.785,-1.914 6.258,-4.297 6.258,-11.938 0,-4.765 -3.375,-8.55 -6.352,-11.886 -2.285,-2.555 -4.445,-4.973 -4.445,-7.02 0,-6.773 8.992,-9.297 14.652,-9.297 l 0.836,-4.898 -3.078,-1.082 c 2.242,-5.692 7.051,-8.676 14.027,-8.676 15.75,0 31.2,11.18 41.418,18.578 l 1.766,1.274 c 6.383,4.535 12.937,9.203 14.695,17.539 l -0.902,0.546 1.469,4.727 3.664,-0.559 c 3.992,2.165 10.75,4.645 20.711,4.645 z m 138.914,-54.961 c -26.008,0 -44.422,9.824 -53.211,14.512 -1.727,0.922 -3.106,1.66 -4.121,2.094 -3.653,1.539 -12.368,6.144 -22.453,11.472 -13.54,7.149 -30.383,16.043 -35.735,17.758 -25.297,8.137 -38.824,1.953 -43.332,-0.945 -2.051,-10.465 -10.109,-16.2 -16.766,-20.93 l -1.742,-1.262 c -10.75,-7.777 -26.988,-19.527 -44.375,-19.527 -10.09,0 -17.242,5.34 -19.621,14.656 l -0.316,1.235 c -6.403,2.015 -11.539,6.476 -11.539,13.101 0,3.969 2.906,7.227 5.718,10.375 2.497,2.801 5.079,5.684 5.079,8.531 0,4.985 -1.707,6.157 -4.075,7.778 -2.671,1.836 -6,4.121 -6,11.144 0,13.106 26.485,73.301 38.985,79.321 l 2.816,1.355 0.957,-3.906 1.539,-2.621 c 2.699,1.484 3.84,3.55 5.313,6.234 1.082,1.961 2.301,4.18 4.301,6.395 0.414,0.472 0.8,1.132 1.226,1.82 1.496,2.426 3.75,6.098 8.496,6.098 5.813,0 8.535,-2.461 10.938,-4.633 0.84,-0.762 1.656,-1.5 2.609,-2.153 0.02,0.028 0.039,0.059 0.059,0.082 3.074,4.227 7.281,10.016 15.843,10.016 5.157,0 8.219,-2.082 10.922,-3.922 1.989,-1.347 3.602,-2.445 5.91,-2.66 l 5.153,4.133 c 3.176,1.715 7.699,2.449 13.84,2.449 7.363,0 12.851,-4.133 14.41,-10.418 4.59,1.828 12.898,3.848 18.922,-1.945 4.84,-4.668 4.691,-8.258 4.601,-10.403 -0.011,-0.289 -0.027,-0.664 -0.008,-0.847 0.047,0.062 0.625,-0.231 2.293,-0.539 l 14.106,-1.871 c 7.269,-2.836 10.277,-8.817 9.422,-17.918 7.558,-0.059 11.976,-1.207 14.519,-3.711 2.887,-2.848 2.844,-6.696 2.793,-11.153 l -0.011,-1.867 c 0,-1.211 0,-2.019 -0.188,-2.703 0.516,-0.156 1.055,-0.312 1.59,-0.465 3.933,-1.121 9.883,-2.812 9.883,-9.121 0,-2.555 -1.149,-5.398 -2.16,-7.91 -0.059,-0.145 -0.118,-0.285 -0.176,-0.43 5.136,-3.027 11.172,-7.39 11.172,-15.769 0,-2.344 -1.196,-8.614 -3.512,-12.379 3.828,-2.895 7.332,-5.844 10.48,-8.496 7.364,-6.203 13.727,-11.551 19.887,-12.571 11.742,-1.914 22.141,-0.07 27.734,4.973 3.411,3.074 4.981,7.195 4.672,12.246 -0.328,5.344 -6.039,13.231 -10.734,13.231 -8.973,0 -15.66,-8.246 -20.484,-15.434 l -2.614,-3.887 -1.804,4.321 c -5.746,13.722 -5.981,25.175 -0.711,34.058 4.476,7.543 13.179,12.867 23.566,14.508 0.039,18.965 5.324,31.957 15.742,38.637 10.977,7.047 23.864,4.152 25.192,3.5 l 1.863,-0.899 -1.52,-5.754 c -3.132,-11.507 -4.855,-17.847 4.118,-59.207 4.379,-20.199 1.882,-37.191 -7.422,-50.496 -15.024,-21.496 -42.168,-25.449 -43.317,-25.605 -6.605,-1.172 -12.859,-1.668 -18.722,-1.676" /><path
         id="path60"
         style="fill:#011f5b;fill-opacity:1;fill-rule:nonzero;stroke:none"
         d="m 261.176,695.879 c 0,0 12.762,-4.91 12.762,-7.563 0,-3.593 -8.247,-7.558 -13.747,-12.293 h -6.871 c 2.457,8.04 0,5.11 0,12.293 0,5.391 5.696,7.563 7.856,7.563" /><path
         id="path62"
         style="fill:#011f5b;fill-opacity:1;fill-rule:nonzero;stroke:none"
         d="m 256.609,678.551 h 2.664 c 1.719,1.398 3.633,2.742 5.469,4.027 2.223,1.547 5.801,4.047 6.539,5.383 -1.316,1.211 -5.843,3.527 -10.476,5.355 -1.395,-0.246 -4.957,-1.64 -4.957,-5 0,-2.507 0.312,-3.496 0.593,-4.371 0.508,-1.601 0.719,-2.828 0.168,-5.394 z m 4.52,-5.051 h -11.215 l 0.996,3.262 c 1.235,4.043 1.055,4.617 0.723,5.648 -0.352,1.106 -0.836,2.617 -0.836,5.906 0,6.711 6.652,10.086 10.379,10.086 l 0.906,-0.172 c 14.379,-5.531 14.379,-8.714 14.379,-9.914 0,-3.718 -4.09,-6.57 -8.828,-9.878 -1.961,-1.368 -4.028,-2.801 -5.793,-4.329 l -0.711,-0.609" /><path
         id="path64"
         style="fill:#011f5b;fill-opacity:1;fill-rule:nonzero;stroke:none"
         d="m 434.469,653.512 -5.008,0.613 c 0.957,7.801 -1.574,8.707 -5.398,10.078 -2.762,0.996 -6.2,2.227 -7.301,6.473 -0.36,1.449 -0.598,3.117 -0.84,4.887 -0.617,4.41 -1.313,9.41 -4.383,11.308 -2.289,1.422 -6.039,1.258 -11.16,-0.465 l -3.461,-1.168 0.137,3.653 c 0.258,7.05 -1.375,11.957 -4.852,14.582 -5.773,4.355 -15.301,1.398 -15.398,1.367 l -3.805,-1.246 0.52,3.965 c 0.613,4.781 -0.934,9.691 -4.258,13.472 -2.434,2.77 -5.485,4.481 -7.969,4.481 -3.605,0 -6.258,-1.391 -9.066,-2.871 -2.618,-1.375 -5.317,-2.801 -8.602,-2.801 -4.812,0 -8.18,1.769 -11.426,3.48 -3.066,1.614 -5.957,3.133 -10.172,3.133 -4.808,0 -5.687,-1.695 -7.14,-4.519 -1.133,-2.188 -2.547,-4.914 -5.992,-6.575 l -2.188,4.551 c 1.93,0.93 2.711,2.434 3.695,4.344 1.668,3.226 3.75,7.25 11.625,7.25 5.461,0 9.211,-1.977 12.52,-3.723 2.957,-1.551 5.508,-2.894 9.078,-2.894 2.035,0 3.988,1.027 6.254,2.218 3.078,1.622 6.559,3.458 11.414,3.458 3.949,0 8.348,-2.321 11.758,-6.204 3.469,-3.949 5.437,-8.875 5.629,-13.91 4.129,0.723 11.183,1.106 16.554,-2.949 4.215,-3.176 6.512,-8.324 6.848,-15.348 5.09,1.215 9.07,0.891 12.109,-0.992 5.094,-3.148 5.997,-9.672 6.723,-14.91 0.223,-1.57 0.422,-3.066 0.734,-4.336 0.391,-1.488 1.442,-1.996 4.122,-2.961 4.039,-1.449 10.144,-3.64 8.699,-15.441" /><path
         id="path66"
         style="fill:#ffffff;fill-opacity:1;fill-rule:nonzero;stroke:none"
         d="m 45.8672,777.996 h 19.75 c 14.4766,3.313 19.7578,11.707 34.6058,11.707 10.672,0 15.703,-7.098 23.554,-7.098 6.621,0 16.813,7.567 27.973,7.567 11.41,0 17.055,-6.856 24.543,-10.043 6.625,-2.84 15.336,-2.691 24.539,-2.691 -0.25,-6.618 0,-10.547 0,-16.106 0,-5.672 7.602,-3.426 7.602,-12.641 0,-9.691 -9.813,-7.804 -9.813,-11.699 l -0.367,-36.054 c 0.488,-4.489 9.57,-5.079 9.57,-11.934 0,-10.164 -10.113,-6.645 -9.449,-14.652 0.488,-5.914 0,-18.438 0,-18.438 -19.512,0 -142.3281,-0.121 -148.4609,0.117 0.3711,13.356 -0.211,11.528 0.2422,17.961 0.3671,5.203 -11.2891,8.391 -11.2891,17.141 0,6.023 7,5.672 7.6094,11.344 v 35.929 c -0.3672,4.723 -10.918,7.09 -10.5508,13.828 0.4375,8.055 9.8164,7.024 9.8164,12.411 0,2.363 0.2461,11.109 0.125,13.351" /><path
         id="path68"
         style="fill:#011f5b;fill-opacity:1;fill-rule:nonzero;stroke:none"
         d="m 52.4961,658.512 c 15.1523,-0.149 89.7739,-0.106 127.1209,-0.082 l 16.317,0.004 c 0.113,3.906 0.269,11.566 -0.075,15.707 -0.449,5.425 2.934,7.328 5.399,8.726 2.433,1.371 4.043,2.278 4.043,6.137 0,2.367 -1.641,3.559 -4.324,5.312 -2.289,1.5 -4.887,3.2 -5.235,6.348 l 0.356,36.352 c 0,3.144 2.777,4.347 4.808,5.226 2.797,1.215 5.004,2.172 5.004,6.449 0,3.797 -1.402,4.723 -3.344,5.997 -1.796,1.175 -4.257,2.789 -4.257,6.644 0,1.859 -0.028,3.535 -0.055,5.191 -0.043,2.633 -0.086,5.219 -0.02,8.387 -8.492,0 -16.472,0.133 -22.933,2.899 -2.539,1.082 -4.867,2.546 -7.121,3.964 -4.805,3.02 -9.344,5.872 -16.43,5.872 -5.816,0 -11.531,-2.297 -16.578,-4.329 -4.305,-1.734 -8.027,-3.234 -11.395,-3.234 -4.218,0 -7.687,1.734 -11.031,3.41 -3.629,1.809 -7.375,3.684 -12.523,3.684 -7.9378,0 -12.8519,-2.543 -18.5472,-5.488 -4.2383,-2.192 -9.0391,-4.672 -15.4961,-6.153 L 48.418,775.484 c -0.0039,-1.98 -0.0508,-4.55 -0.0899,-6.773 -0.0351,-1.75 -0.0586,-3.273 -0.0586,-4.066 0,-3.899 -2.9648,-5.618 -5.3437,-7 -2.6758,-1.555 -4.3242,-2.657 -4.4805,-5.547 -0.125,-2.239 1.8594,-3.91 4.8945,-6.2 2.6563,-1.996 5.4024,-4.066 5.6524,-7.296 L 49,702.477 c -0.4297,-4.094 -2.9766,-6.008 -4.8437,-7.411 -1.8711,-1.398 -2.7618,-2.152 -2.7618,-3.933 0,-3.727 2.9922,-6.332 5.8907,-8.86 2.7734,-2.406 5.6406,-4.902 5.3867,-8.457 -0.211,-3.019 -0.1836,-4.152 -0.1524,-6.007 0.0391,-1.774 0.0938,-4.18 -0.0234,-9.297 z m 65.8989,-5.153 c -33.6684,0 -65.5044,0.032 -68.5786,0.153 l -2.4961,0.097 0.0742,2.489 c 0.1836,6.773 0.125,9.601 0.0821,11.605 -0.0391,2 -0.0625,3.215 0.1679,6.469 0.0703,1.047 -1.914,2.777 -3.6679,4.301 -3.3985,2.953 -7.6328,6.632 -7.6328,12.66 0,4.383 2.7656,6.457 4.7851,7.972 1.75,1.317 2.6719,2.071 2.8359,3.637 l -0.0117,35.664 c -0.0664,0.766 -2.0508,2.262 -3.6484,3.465 -3.1992,2.41 -7.1797,5.41 -6.8984,10.5 0.3164,5.758 4.3281,8.094 6.9843,9.637 2.1953,1.273 2.8282,1.769 2.8282,2.637 0,0.808 0.0312,2.367 0.0625,4.16 0.0664,3.371 0.1445,7.601 0.0664,9.054 l -0.1446,2.664 h 22.4141 c 5.2695,1.27 9.5742,3.497 13.7383,5.649 6.0234,3.109 11.707,6.055 20.8675,6.055 6.34,0 10.824,-2.247 14.781,-4.223 3.078,-1.543 5.746,-2.871 8.773,-2.871 2.391,0 5.848,1.39 9.512,2.863 5.469,2.203 11.668,4.699 18.461,4.699 8.539,0 14.16,-3.535 19.117,-6.656 2.176,-1.371 4.238,-2.664 6.41,-3.594 5.84,-2.496 13.77,-2.429 22.262,-2.488 l 3.91,0.004 -0.097,-2.617 c -0.161,-4.332 -0.11,-7.496 -0.055,-10.739 0.031,-1.683 0.058,-3.382 0.058,-5.273 0,-1.039 0.325,-1.344 1.981,-2.426 2.234,-1.468 5.625,-3.691 5.625,-10.215 0,-7.589 -5.039,-9.769 -8.051,-11.074 -0.668,-0.293 -1.668,-0.726 -1.89,-0.972 l -0.243,-35.731 c 0.071,-0.484 1.539,-1.445 2.961,-2.375 2.785,-1.82 6.61,-4.32 6.61,-9.535 0,-6.801 -3.981,-9.047 -6.61,-10.531 -2.355,-1.328 -3.023,-1.809 -2.847,-3.914 0.492,-6 0.023,-18.227 0.004,-18.743 l -0.09,-2.425 -21.188,-0.008 c -16.07,-0.008 -39.043,-0.024 -61.222,-0.024" /><path
         id="path70"
         style="fill:#011f5b;fill-opacity:1;fill-rule:nonzero;stroke:none"
         d="m 120.18,675.547 c -28.3948,0 -55.9339,0.055 -58.2503,0.058 l -2.5469,0.004 0.0274,2.555 c 0.2461,18.672 0.0039,98.434 0,99.234 l 5.0507,0.02 c 0,-0.773 0.2188,-74.305 0.0235,-96.77 37.7386,-0.085 103.6486,-0.117 117.1326,0.153 -0.004,24.304 -0.125,97.191 -0.125,97.191 l 5.047,0.012 c 0,0 0.129,-78.242 0.129,-99.637 v -2.297 l -2.297,-0.211 c -2.683,-0.25 -33.93,-0.312 -64.191,-0.312" /><path
         id="path72"
         style="fill:#011f5b;fill-opacity:1;fill-rule:nonzero;stroke:none"
         d="m 125.684,677.895 h -5.047 v 104.476 h 5.047 V 677.895" /><path
         id="path74"
         style="fill:#011f5b;fill-opacity:1;fill-rule:nonzero;stroke:none"
         d="m 125.004,690.777 c 5.152,-0.242 14.617,-3.718 23.805,-6.5 11.894,-3.609 24.519,-1.078 33.859,-2.953 2.949,-0.594 -57.664,-1.066 -57.664,-1.066 0.242,11.699 0,10.519 0,10.519" /><path
         id="path76"
         style="fill:#011f5b;fill-opacity:1;fill-rule:nonzero;stroke:none"
         d="m 127.641,687.891 c 0.004,-1.328 -0.024,-2.993 -0.067,-5.086 5.289,0.043 11.117,0.093 16.949,0.16 -1.085,0.34 -2.164,0.687 -3.226,1.023 -5.137,1.641 -10.051,3.207 -13.656,3.903 z m -5.215,-10.176 0.051,2.598 c 0.089,4.152 0.113,6.605 0.113,8.05 l -0.656,0.032 1.062,5.144 2.309,-0.223 c 0.207,-0.023 0.394,-0.046 0.57,-0.074 4.199,-0.375 10.137,-2.269 16.953,-4.441 2.207,-0.711 4.469,-1.43 6.715,-2.113 6.566,-1.993 13.391,-2.008 19.984,-2.032 4.879,-0.011 9.489,-0.027 13.641,-0.855 l 2.227,-0.453 -0.11,-2.309 c -0.101,-1.027 -0.16,-1.687 -3.097,-2.129 l -0.012,-0.062 c -0.059,0.015 -0.117,0.023 -0.176,0.039 -5.277,-0.746 -19.289,-0.856 -56.98,-1.153 l -2.594,-0.019" /><path
         id="path78"
         style="fill:#011f5b;fill-opacity:1;fill-rule:nonzero;stroke:none"
         d="m 116.289,675.293 c 0,2.613 3.051,4.73 6.813,4.73 3.765,0 6.808,-2.117 6.808,-4.73 0,-2.609 -3.043,-4.727 -6.808,-4.727 -3.762,0 -6.813,2.118 -6.813,4.727" /><path
         id="path80"
         style="fill:#011f5b;fill-opacity:1;fill-rule:nonzero;stroke:none"
         d="m 123.102,677.5 c -2.618,0 -4.286,-1.309 -4.286,-2.207 0,-0.879 1.707,-2.203 4.286,-2.203 2.617,0 4.285,1.305 4.285,2.203 0,0.898 -1.668,2.207 -4.285,2.207 z m 0,-9.457 c -5.235,0 -9.336,3.187 -9.336,7.25 0,4.066 4.101,7.258 9.336,7.258 5.23,0 9.332,-3.192 9.332,-7.258 0,-4.063 -4.102,-7.25 -9.332,-7.25" /><path
         id="path82"
         style="fill:#011f5b;fill-opacity:1;fill-rule:nonzero;stroke:none"
         d="m 119.762,690.777 c -5.153,-0.242 -14.614,-3.718 -23.7972,-6.5 -11.9062,-3.609 -24.5234,-1.078 -33.8671,-2.953 -2.9454,-0.594 57.6643,-1.066 57.6643,-1.066 -0.242,11.699 0,10.519 0,10.519" /><path
         id="path84"
         style="fill:#011f5b;fill-opacity:1;fill-rule:nonzero;stroke:none"
         d="m 100.25,682.965 c 5.82,-0.067 11.652,-0.117 16.938,-0.16 -0.043,2.093 -0.067,3.758 -0.063,5.086 -3.602,-0.696 -8.52,-2.262 -13.656,-3.903 -1.067,-0.34 -2.141,-0.683 -3.219,-1.023 z m 22.09,-5.25 -2.598,0.019 c -37.6912,0.297 -51.699,0.407 -56.9764,1.153 -0.0586,-0.016 -0.1172,-0.024 -0.1718,-0.039 l -0.0157,0.062 c -2.9375,0.442 -2.9961,1.102 -3.0976,2.129 l -0.2149,2.266 2.3321,0.496 c 4.1523,0.828 8.7617,0.844 13.6445,0.855 6.5937,0.024 13.418,0.039 19.9883,2.032 2.2422,0.679 4.4961,1.402 6.7035,2.105 6.82,2.18 12.761,4.074 16.957,4.449 0.172,0.028 0.363,0.051 0.57,0.074 l 2.289,0.258 1.078,-5.179 -0.652,-0.032 c 0,-1.445 0.023,-3.898 0.109,-8.05 l 0.055,-2.598" /><path
         id="path86"
         style="fill:#ffffff;fill-opacity:1;fill-rule:nonzero;stroke:none"
         d="m 143.172,314.121 c 0,33.711 28.363,61.055 63.359,61.055 34.992,0 63.364,-27.344 63.364,-61.055 0,-33.711 -28.372,-61.016 -63.364,-61.016 -34.996,0 -63.359,27.305 -63.359,61.016" /><path
         id="path88"
         style="fill:#011f5b;fill-opacity:1;fill-rule:nonzero;stroke:none"
         d="m 206.531,372.656 c -33.547,0 -60.836,-26.261 -60.836,-58.535 0,-32.258 27.289,-58.496 60.836,-58.496 33.547,0 60.84,26.238 60.84,58.496 0,32.274 -27.293,58.535 -60.84,58.535 z m 0,-122.07 c -36.328,0 -65.886,28.496 -65.886,63.535 0,35.059 29.558,63.574 65.886,63.574 36.328,0 65.887,-28.515 65.887,-63.574 0,-35.039 -29.559,-63.535 -65.887,-63.535" /><path
         id="path90"
         style="fill:#ffffff;fill-opacity:1;fill-rule:nonzero;stroke:none"
         d="m 317.371,460.73 c 0,33.711 28.367,61.036 63.359,61.036 34.993,0 63.36,-27.325 63.36,-61.036 0,-33.714 -28.367,-61.023 -63.36,-61.023 -34.992,0 -63.359,27.309 -63.359,61.023" /><path
         id="path92"
         style="fill:#011f5b;fill-opacity:1;fill-rule:nonzero;stroke:none"
         d="m 380.73,519.25 c -33.546,0 -60.839,-26.254 -60.839,-58.52 0,-32.257 27.293,-58.503 60.839,-58.503 33.543,0 60.84,26.246 60.84,58.503 0,32.266 -27.297,58.52 -60.84,58.52 z m 0,-122.062 c -36.328,0 -65.878,28.503 -65.878,63.542 0,35.047 29.55,63.555 65.878,63.555 36.329,0 65.879,-28.508 65.879,-63.555 0,-35.039 -29.55,-63.542 -65.879,-63.542" /><path
         id="path94"
         style="fill:#ffffff;fill-opacity:1;fill-rule:nonzero;stroke:none"
         d="m 481.719,314.121 c 0,33.711 28.371,61.055 63.371,61.055 34.988,0 63.359,-27.344 63.359,-61.055 0,-33.711 -28.371,-61.016 -63.359,-61.016 -35,0 -63.371,27.305 -63.371,61.016" /><path
         id="path96"
         style="fill:#011f5b;fill-opacity:1;fill-rule:nonzero;stroke:none"
         d="m 545.09,372.656 c -33.551,0 -60.844,-26.261 -60.844,-58.535 0,-32.258 27.293,-58.496 60.844,-58.496 33.547,0 60.836,26.238 60.836,58.496 0,32.274 -27.289,58.535 -60.836,58.535 z m 0,-122.07 c -36.332,0 -65.895,28.496 -65.895,63.535 0,35.059 29.563,63.574 65.895,63.574 36.328,0 65.883,-28.515 65.883,-63.574 0,-35.039 -29.555,-63.535 -65.883,-63.535" /><path
         id="path98"
         style="fill:#011f5b;fill-opacity:1;fill-rule:nonzero;stroke:none"
         d="m 442.418,686.555 c -8.875,9.761 -17.191,20.472 -23.262,28.289 -3.91,5.035 -7.957,10.246 -9.004,10.98 -2.218,0.899 -4.8,3.727 -8.707,8.004 -10.695,11.735 -30.617,33.563 -68.269,35.652 -16.387,0.958 -59.574,-5.089 -60.805,-14.324 l -5,0.672 c 2.16,16.09 56.781,19.176 66.09,18.692 39.707,-2.207 60.523,-25.028 71.719,-37.29 2.941,-3.226 5.726,-6.277 7.136,-6.863 1.586,-0.676 3.465,-2.957 10.825,-12.429 6.019,-7.754 14.269,-18.368 23.007,-27.997 l -3.73,-3.386" /><path
         id="path100"
         style="fill:#011f5b;fill-opacity:1;fill-rule:nonzero;stroke:none"
         d="m 314.902,674.109 -4.976,0.782 c 0.101,0.664 0.176,1.355 0.219,2.066 -1.536,0.207 -4.286,0.234 -6.082,0.262 -3.372,0.031 -5.512,0.078 -6.879,0.484 l -1.618,0.481 -0.511,1.957 c -0.231,2.187 1.863,3.332 4.277,4.656 0.453,0.246 0.856,0.457 1.07,0.609 l 0.953,-1.363 -0.359,1.91 c 10.813,4.164 18.777,9.125 19.371,12.059 0.043,0.207 0.117,0.586 -0.574,1.261 -4.148,3.989 -7.281,8.176 -9.801,11.543 -1.465,1.957 -2.777,3.715 -4.058,5.122 -4.649,5.054 -9.821,7.21 -17.282,7.21 -4.55,0 -12.464,-6.925 -17.703,-11.507 -2.191,-1.922 -4.101,-3.582 -5.484,-4.563 l -3.207,3.879 1.277,1.211 c 3.68,3.457 12.285,11.555 12.285,17.289 0,9.664 -4.777,18.766 -9.402,27.563 -3.191,6.082 -6.207,11.824 -7.691,17.671 l 4.894,1.243 c 1.332,-5.274 4.215,-10.758 7.266,-16.563 4.906,-9.348 9.984,-19.004 9.984,-29.914 0,-1.414 -0.289,-2.848 -0.793,-4.273 2.985,1.812 5.918,3.015 8.574,3.015 8.895,0 15.371,-2.73 21.004,-8.851 1.387,-1.52 2.801,-3.407 4.375,-5.508 2.532,-3.387 5.41,-7.223 9.258,-10.934 2.227,-2.144 2.328,-4.39 2.024,-5.894 -1.176,-5.813 -11.008,-11.094 -19.985,-14.766 5.817,-0.082 9.902,-0.351 9.902,-3.848 0,-1.507 -0.117,-2.945 -0.328,-4.289" /><path
         id="path102"
         style="fill:#011f5b;fill-opacity:1;fill-rule:nonzero;stroke:none"
         d="m 239.039,646.094 v 5.047 c 13.781,0 20.672,1.039 26.324,3.972 8.715,4.567 19.145,11.899 21.414,17.192 l 4.641,-1.992 c -3.824,-8.895 -20.43,-17.95 -23.723,-19.676 -7.328,-3.801 -16.05,-4.543 -28.656,-4.543" /><path
         id="path104"
         style="fill:#011f5b;fill-opacity:1;fill-rule:nonzero;stroke:none"
         d="M 23.2344,828.453 C 23.2227,785.262 23.1758,476.898 23.1602,471.914 22.2617,176.473 326.438,26.6992 366.367,25.332 c 0.156,-0.0117 0.321,-0.0117 0.485,-0.0117 21.679,-0.0078 129.871,45.3242 224.23,135.0117 66.391,63.106 146.023,168.137 148.383,310.141 v 357.98 z M 366.684,15.3203 c -0.227,0 -0.442,0.0117 -0.657,0.0117 -41.054,1.4063 -353.7887,154.59 -352.8668,456.609 0.0156,5.364 0.0742,361.512 0.0742,361.512 v 5 H 749.465 V 470.391 C 747.047,324.836 665.75,217.5 597.973,153.086 502.707,62.5391 392.348,15.3203 366.684,15.3203" /></g></g></svg>