<?xml version="1.0" encoding="UTF-8" standalone="no"?>
<svg
   xmlns:dc="http://purl.org/dc/elements/1.1/"
   xmlns:cc="http://creativecommons.org/ns#"
   xmlns:rdf="http://www.w3.org/1999/02/22-rdf-syntax-ns#"
   xmlns:svg="http://www.w3.org/2000/svg"
   xmlns="http://www.w3.org/2000/svg"
   viewBox="0 0 410.13333 114.76"
   height="114.76"
   width="410.13333"
   xml:space="preserve"
   id="svg2"
   version="1.1"><metadata
     id="metadata8"><rdf:RDF><cc:Work
         rdf:about=""><dc:format>image/svg+xml</dc:format><dc:type
           rdf:resource="http://purl.org/dc/dcmitype/StillImage" /></cc:Work></rdf:RDF></metadata><defs
     id="defs6" /><g
     transform="matrix(1.3333333,0,0,-1.3333333,0,114.76)"
     id="g10"><g
       transform="scale(0.1)"
       id="g12"><path
         id="path14"
         style="fill:#ffffff;fill-opacity:1;fill-rule:nonzero;stroke:none"
         d="m 872.008,85.0195 c 0,-22.414 6.09,-39.5468 29.941,-39.5468 21.934,0 33.457,14.7226 33.457,40.3554 V 130.32 c 0,3.368 -0.636,6.075 -0.968,8.649 -0.793,5.773 -6.25,8.008 -13.754,8.804 v 4.176 h 37.785 v -4.176 c -7.692,-0.796 -12.981,-3.031 -13.781,-8.804 -0.325,-2.574 -0.942,-5.281 -0.942,-8.649 V 85.1836 c 0,-34.4219 -21.945,-47.2461 -42.59,-47.2461 -34.113,0 -44.676,17.3047 -44.676,46.2734 v 47.7151 c 0,14.894 0.649,14.082 -13.765,15.847 v 4.176 h 43.055 v -4.176 c -14.407,-1.765 -13.762,-0.953 -13.762,-15.847 V 85.0195" /><path
         id="path16"
         style="fill:#ffffff;fill-opacity:1;fill-rule:nonzero;stroke:none"
         d="m 1049.1,39.8672 c -19.64,23.2187 -40.03,47.5586 -60.159,71.2698 V 56.5273 c 0,-2.5781 0.497,-4.6718 0.747,-6.6445 0.621,-4.457 4.808,-6.207 12.962,-6.7969 v -3.2187 h -30.263 v 3.2187 c 5.937,0.5899 10.008,2.3399 10.625,6.7969 0.246,1.9727 0.742,4.0664 0.742,6.6445 v 58.2147 c -3.457,4.43 -7.293,8.383 -14.324,8.383 v 3.223 h 22.472 c 18.408,-22.364 37.558,-45.098 55.968,-67.4613 h 0.24 v 50.7693 c 0,2.602 -0.49,4.699 -0.74,6.676 -0.62,4.453 -4.82,6.176 -12.97,6.793 v 3.223 h 30.26 v -3.223 c -5.8,-0.617 -10.01,-2.34 -10.62,-6.793 -0.24,-1.977 -0.73,-4.074 -0.73,-6.676 V 39.8672 h -4.21" /><path
         id="path18"
         style="fill:#ffffff;fill-opacity:1;fill-rule:nonzero;stroke:none"
         d="m 1112.48,55.3164 c 0,-11.5 -0.5,-10.875 10.62,-12.2305 v -3.2187 h -33.24 v 3.2187 c 11.12,1.3555 10.63,0.7305 10.63,12.2305 v 55.5816 c 0,11.485 0.49,10.864 -10.63,12.227 v 3.223 h 33.24 v -3.223 c -11.12,-1.363 -10.62,-0.742 -10.62,-12.227 V 55.3164" /><path
         id="path20"
         style="fill:#ffffff;fill-opacity:1;fill-rule:nonzero;stroke:none"
         d="m 1175.72,123.125 c -6.8,0 -11.74,-1.984 -7.66,-13.828 4.82,-14.5822 11.99,-35.8322 18.4,-54.6056 7.91,18.9024 15.43,37.9219 23.1,56.8286 3.1,7.773 -0.12,11.605 -8.52,11.605 v 3.223 h 26.68 v -3.223 c -3.58,0 -7.65,-1.234 -10.25,-7.41 -10.38,-25.3166 -20.87,-50.5392 -31.26,-75.8478 h -6.3 c -7.53,21.3594 -15.93,45.2305 -23.45,66.2228 -4.58,13.203 -8.41,17.035 -14.35,17.035 v 3.223 h 33.61 v -3.223" /><path
         id="path22"
         style="fill:#ffffff;fill-opacity:1;fill-rule:nonzero;stroke:none"
         d="m 1246.75,43.0859 c 11.11,1.3555 10.62,0.7305 10.62,12.2305 v 55.5816 c 0,11.485 0.49,10.864 -10.62,12.227 v 3.223 h 55.21 v -19.914 h -3.21 c -1.24,9.156 -3.71,15.949 -12.59,15.949 h -16.81 V 87.0742 h 10.38 c 7.77,0 11.1,3.0625 11.36,10.7461 h 3.21 V 71.5 h -3.21 c -0.26,7.2734 -3.09,11.6094 -11.36,11.6094 h -10.38 V 55.168 c 0,-10.4922 4.83,-11.3516 15.95,-11.3516 17.89,0 17.03,5.0625 22.71,18.2891 h 3.22 l -3.71,-22.2383 h -60.77 v 3.2187" /><path
         id="path24"
         style="fill:#ffffff;fill-opacity:1;fill-rule:nonzero;stroke:none"
         d="m 1352.74,82.1055 h 10.24 c 10.76,0 15.7,8.1562 15.7,22.1175 0,13.472 -7.43,18.16 -16.44,18.16 h -9.5 z m -22.62,44.2425 h 35.96 c 12.47,0 24.94,-6.559 24.94,-21.008 0,-12.7267 -7.76,-21.4923 -17.28,-25.2111 l 12.1,-18.4062 c 6.18,-9.0079 13.1,-17.6602 17.41,-20.2579 v -1.5976 h -12.71 c -7.28,0 -11.25,13.4609 -26.21,38.3164 h -11.59 V 55.3164 c 0,-11.5 -0.51,-10.875 10.61,-12.2305 v -3.2187 h -33.23 v 3.2187 c 11.12,1.3555 10.62,0.7305 10.62,12.2305 v 55.5816 c 0,11.485 0.5,10.864 -10.62,12.227 v 3.223" /><path
         id="path26"
         style="fill:#ffffff;fill-opacity:1;fill-rule:nonzero;stroke:none"
         d="m 1464.41,107.945 c -1,8.633 -5.69,15.567 -15.57,15.567 -7.17,0 -13.59,-3.723 -13.59,-12.848 0,-8.648 8.64,-13.8476 21.01,-23.1249 13.09,-9.7422 17.28,-16.0391 17.28,-26.3125 0,-14.6875 -15.06,-22.8399 -29.89,-22.8399 -7.9,0 -14.69,1.4805 -21.12,3.9414 -0.49,0.2657 -0.86,0.7578 -0.86,1.7344 v 17.7773 h 3.21 c 1.36,-13.6914 10.37,-19.1367 19.89,-19.1367 8.77,0 15.92,6.6758 15.92,15.6836 0,8.0391 -4.31,14.5899 -22.85,26.8164 -6.67,4.4649 -14.94,9.2735 -14.94,22.7419 0,11.114 12.35,19.875 26.56,19.875 5.31,0 12.36,-0.617 17.29,-2.336 0.74,-0.254 0.86,-0.738 0.86,-1.359 v -16.18 h -3.2" /><path
         id="path28"
         style="fill:#ffffff;fill-opacity:1;fill-rule:nonzero;stroke:none"
         d="m 1518.39,55.3164 c 0,-11.5 -0.48,-10.875 10.61,-12.2305 v -3.2187 h -33.22 v 3.2187 c 11.13,1.3555 10.63,0.7305 10.63,12.2305 v 55.5816 c 0,11.485 0.5,10.864 -10.63,12.227 v 3.223 H 1529 v -3.223 c -11.09,-1.363 -10.61,-0.742 -10.61,-12.227 V 55.3164" /><path
         id="path30"
         style="fill:#ffffff;fill-opacity:1;fill-rule:nonzero;stroke:none"
         d="m 1590.03,55.3164 c 0,-11.5 -0.49,-10.875 10.64,-12.2305 v -3.2187 h -33.25 v 3.2187 c 11.13,1.3555 10.63,0.7305 10.63,12.2305 v 67.0666 h -11.11 c -10.75,0 -13.21,-6.793 -17.3,-14.942 h -3.1 l 3.34,18.907 h 68.32 l 3.34,-18.907 h -3.09 c -4.07,8.149 -6.56,14.942 -17.31,14.942 h -11.11 V 55.3164" /><path
         id="path32"
         style="fill:#ffffff;fill-opacity:1;fill-rule:nonzero;stroke:none"
         d="m 1657.49,43.0859 c 11.1,1.3555 10.63,0.7305 10.63,12.2305 v 19.0078 l -19.05,37.6918 c -4.07,8.035 -7.53,11.109 -13.2,11.109 v 3.223 h 31.48 v -3.223 c -9.37,0 -8.51,-4.687 -5.43,-11.109 l 14.96,-31.0043 17.05,31.0043 c 4.2,7.535 0.24,11.109 -7.06,11.109 v 3.223 h 25.45 v -3.223 c -3.45,0 -6.79,-1.602 -10.12,-7.535 l -20.62,-37.4064 c -1.24,-2.4844 -1.5,-5.9492 -1.5,-9.0469 V 55.3164 c 0,-11.5 -0.48,-10.875 10.63,-12.2305 v -3.2187 h -33.22 v 3.2187" /><path
         id="path34"
         style="fill:#ffffff;fill-opacity:1;fill-rule:nonzero;stroke:none"
         d="m 1824.6,100.699 c 0,16.653 -10.07,17.309 -12.63,17.309 -17.3,0 -28.67,-31.0549 -28.67,-51.8947 0,-8.3203 1.46,-23.3594 13.3,-23.3594 18.25,0 28,30.0977 28,57.9451 z m -56.03,-31.2263 c 0,20.9726 18.09,52.3673 44.84,52.3673 21.31,0 25.92,-14.418 25.92,-28.8166 0,-17.6093 -14.09,-55.0859 -44.66,-55.0859 -20.5,0 -26.1,16.4961 -26.1,31.5352" /><path
         id="path36"
         style="fill:#ffffff;fill-opacity:1;fill-rule:nonzero;stroke:none"
         d="m 1919.86,116.559 -3.83,-3.371 h -20.98 C 1887.22,75.0938 1874.39,24.332 1865.28,0 h -7.21 l 22.9,113.188 h -15.2 l 1.43,6.718 h 15.05 c 8.49,34.106 36.66,37.637 43.38,37.637 3.68,0 11.37,-0.648 13.77,-2.887 l -1.93,-10.554 -3.99,-1.93 c -2.25,4.312 -7.37,9.281 -14.1,9.281 -9.6,0 -16.8,-6.566 -20.66,-23.851 l -1.74,-7.696 h 23.54 l -0.66,-3.347" /><path
         id="path38"
         style="fill:#ffffff;fill-opacity:1;fill-rule:nonzero;stroke:none"
         d="m 2017.51,59.8672 c 0,-14.8789 -0.63,-14.082 13.77,-15.8555 v -4.1445 h -43.08 v 4.1445 c 14.43,1.7735 13.78,0.9766 13.78,15.8555 v 72.0588 c 0,14.894 0.65,14.082 -13.78,15.847 v 4.176 h 41.96 c 26.58,0 39.7,-10.566 39.7,-29.804 0,-23.0473 -20.81,-35.5278 -45.3,-34.0708 v 3.1914 c 20.02,-0.3086 29.28,11.6794 29.28,29.2854 0,17.949 -8.63,26.269 -26.56,26.269 h -9.77 V 59.8672" /><path
         id="path40"
         style="fill:#ffffff;fill-opacity:1;fill-rule:nonzero;stroke:none"
         d="m 2091.92,43.0859 c 11.14,1.3555 10.63,0.7305 10.63,12.2305 v 55.5816 c 0,11.485 0.51,10.864 -10.63,12.227 v 3.223 h 55.24 v -19.914 h -3.22 c -1.25,9.156 -3.7,15.949 -12.59,15.949 h -16.8 V 87.0742 h 10.36 c 7.8,0 11.13,3.0625 11.38,10.7461 h 3.2 V 71.5 h -3.2 c -0.25,7.2734 -3.1,11.6094 -11.38,11.6094 h -10.36 V 55.168 c 0,-10.4922 4.82,-11.3516 15.93,-11.3516 17.91,0 17.06,5.0625 22.72,18.2891 h 3.23 l -3.72,-22.2383 h -60.79 v 3.2187" /><path
         id="path42"
         style="fill:#ffffff;fill-opacity:1;fill-rule:nonzero;stroke:none"
         d="m 2254.49,39.8672 c -19.64,23.2187 -40.01,47.5586 -60.14,71.2698 V 56.5273 c 0,-2.5781 0.48,-4.6718 0.73,-6.6445 0.61,-4.457 4.81,-6.207 12.97,-6.7969 v -3.2187 h -30.25 v 3.2187 c 5.92,0.5899 9.98,2.3399 10.61,6.7969 0.25,1.9727 0.74,4.0664 0.74,6.6445 v 58.2147 c -3.46,4.43 -7.27,8.383 -14.33,8.383 v 3.223 h 22.47 c 18.42,-22.364 37.56,-45.098 55.97,-67.4613 h 0.25 v 50.7693 c 0,2.602 -0.49,4.699 -0.73,6.676 -0.62,4.453 -4.81,6.176 -12.99,6.793 v 3.223 h 30.27 v -3.223 c -5.78,-0.617 -10.01,-2.34 -10.61,-6.793 -0.25,-1.977 -0.75,-4.074 -0.75,-6.676 V 39.8672 h -4.21" /><path
         id="path44"
         style="fill:#ffffff;fill-opacity:1;fill-rule:nonzero;stroke:none"
         d="m 2365.19,39.8672 c -19.65,23.2187 -40.02,47.5586 -60.18,71.2698 V 56.5273 c 0,-2.5781 0.51,-4.6718 0.74,-6.6445 0.63,-4.457 4.83,-6.207 12.97,-6.7969 v -3.2187 h -30.23 v 3.2187 c 5.89,0.5899 9.98,2.3399 10.59,6.7969 0.28,1.9727 0.74,4.0664 0.74,6.6445 v 58.2147 c -3.45,4.43 -7.28,8.383 -14.32,8.383 v 3.223 h 22.48 c 18.42,-22.364 37.56,-45.098 55.96,-67.4613 h 0.26 v 50.7693 c 0,2.602 -0.5,4.699 -0.73,6.676 -0.63,4.453 -4.82,6.176 -13.01,6.793 v 3.223 h 30.27 v -3.223 c -5.78,-0.617 -10,-2.34 -10.59,-6.793 -0.27,-1.977 -0.76,-4.074 -0.76,-6.676 V 39.8672 h -4.19" /><path
         id="path46"
         style="fill:#ffffff;fill-opacity:1;fill-rule:nonzero;stroke:none"
         d="m 2445.59,107.945 c -0.98,8.633 -5.67,15.567 -15.55,15.567 -7.17,0 -13.6,-3.723 -13.6,-12.848 0,-8.648 8.65,-13.8476 20.99,-23.1249 13.12,-9.7422 17.32,-16.0391 17.32,-26.3125 0,-14.6875 -15.07,-22.8399 -29.9,-22.8399 -7.91,0 -14.7,1.4805 -21.14,3.9414 -0.47,0.2657 -0.86,0.7578 -0.86,1.7344 v 17.7773 h 3.22 c 1.35,-13.6914 10.37,-19.1367 19.89,-19.1367 8.77,0 15.92,6.6758 15.92,15.6836 0,8.0391 -4.3,14.5899 -22.84,26.8164 -6.67,4.4649 -14.94,9.2735 -14.94,22.7419 0,11.114 12.34,19.875 26.53,19.875 5.33,0 12.39,-0.617 17.32,-2.336 0.75,-0.254 0.85,-0.738 0.85,-1.359 v -16.18 h -3.21" /><path
         id="path48"
         style="fill:#ffffff;fill-opacity:1;fill-rule:nonzero;stroke:none"
         d="m 2495.37,43.0859 c 11.14,1.3555 10.63,0.7305 10.63,12.2305 v 19.0078 l -19.01,37.6918 c -4.08,8.035 -7.54,11.109 -13.23,11.109 v 3.223 h 31.51 v -3.223 c -9.39,0 -8.54,-4.687 -5.44,-11.109 l 14.95,-31.0043 17.04,31.0043 c 4.19,7.535 0.26,11.109 -7.03,11.109 v 3.223 h 25.44 v -3.223 c -3.47,0 -6.81,-1.602 -10.11,-7.535 L 2519.48,78.1836 C 2518.23,75.6992 2518,72.2344 2518,69.1367 V 55.3164 c 0,-11.5 -0.51,-10.875 10.59,-12.2305 v -3.2187 h -33.22 v 3.2187" /><path
         id="path50"
         style="fill:#ffffff;fill-opacity:1;fill-rule:nonzero;stroke:none"
         d="m 2570.48,43.0859 c 11.12,1.3555 10.62,0.7305 10.62,12.2305 v 55.5816 c 0,11.485 0.5,10.864 -10.62,12.227 v 3.223 h 33.23 v -3.223 c -11.12,-1.363 -10.62,-0.742 -10.62,-12.227 V 53.3281 c 0,-8.6523 4.81,-9.5117 15.81,-9.5117 17.93,0 17.16,5.0625 22.85,18.2891 h 3.09 l -3.72,-22.2383 h -60.64 v 3.2187" /><path
         id="path52"
         style="fill:#ffffff;fill-opacity:1;fill-rule:nonzero;stroke:none"
         d="m 2677.97,123.125 c -6.8,0 -11.77,-1.984 -7.68,-13.828 4.83,-14.5822 11.98,-35.8322 18.42,-54.6056 7.9,18.9024 15.44,37.9219 23.1,56.8286 3.09,7.773 -0.12,11.605 -8.53,11.605 v 3.223 h 26.69 v -3.223 c -3.57,0 -7.68,-1.234 -10.25,-7.41 -10.39,-25.3166 -20.88,-50.5392 -31.27,-75.8478 h -6.29 c -7.54,21.3594 -15.96,45.2305 -23.48,66.2228 -4.59,13.203 -8.4,17.035 -14.31,17.035 v 3.223 h 33.6 v -3.223" /><path
         id="path54"
         style="fill:#ffffff;fill-opacity:1;fill-rule:nonzero;stroke:none"
         d="m 2780.37,73.207 -13.11,40.168 h -0.24 l -14.7,-40.168 z m -29.91,-4.6914 -5.67,-16.539 c -1.63,-4.8125 0.73,-8.8907 6.17,-8.8907 v -3.2187 h -22.46 v 3.2187 c 3.33,0 6.9,2.0977 8.87,6.1797 5.33,10.8633 19.77,51.2654 30.01,78.5544 h 6.94 c 8.39,-24.828 21,-62.8708 25.18,-73.8708 2.74,-6.9297 4.7,-10.8633 10.02,-10.8633 v -3.2187 h -28.79 v 3.2187 c 7.79,0 8.54,4.0782 6.55,9.5118 l -5.31,15.9179 h -31.51" /><path
         id="path56"
         style="fill:#ffffff;fill-opacity:1;fill-rule:nonzero;stroke:none"
         d="m 2904.63,39.8672 c -19.64,23.2187 -40.04,47.5586 -60.15,71.2698 V 56.5273 c 0,-2.5781 0.47,-4.6718 0.73,-6.6445 0.63,-4.457 4.83,-6.207 12.98,-6.7969 v -3.2187 h -30.28 v 3.2187 c 5.94,0.5899 10.02,2.3399 10.63,6.7969 0.25,1.9727 0.75,4.0664 0.75,6.6445 v 58.2147 c -3.46,4.43 -7.3,8.383 -14.33,8.383 v 3.223 h 22.46 c 18.41,-22.364 37.57,-45.098 55.97,-67.4613 h 0.24 v 50.7693 c 0,2.602 -0.47,4.699 -0.73,6.676 -0.61,4.453 -4.82,6.176 -12.97,6.793 v 3.223 h 30.28 v -3.223 c -5.83,-0.617 -10.02,-2.34 -10.64,-6.793 -0.23,-1.977 -0.74,-4.074 -0.74,-6.676 V 39.8672 h -4.2" /><path
         id="path58"
         style="fill:#ffffff;fill-opacity:1;fill-rule:nonzero;stroke:none"
         d="m 2963.06,55.3164 c 0,-11.5 -0.48,-10.875 10.62,-12.2305 v -3.2187 h -33.22 v 3.2187 c 11.1,1.3555 10.62,0.7305 10.62,12.2305 v 55.5816 c 0,11.485 0.48,10.864 -10.62,12.227 v 3.223 h 33.22 v -3.223 c -11.1,-1.363 -10.62,-0.742 -10.62,-12.227 V 55.3164" /><path
         id="path60"
         style="fill:#ffffff;fill-opacity:1;fill-rule:nonzero;stroke:none"
         d="m 3044.58,73.207 -13.09,40.168 h -0.26 l -14.68,-40.168 z m -29.88,-4.6914 -5.7,-16.539 c -1.6,-4.8125 0.74,-8.8907 6.2,-8.8907 v -3.2187 h -22.49 v 3.2187 c 3.33,0 6.91,2.0977 8.87,6.1797 5.32,10.8633 19.79,51.2654 30.03,78.5544 h 6.93 c 8.4,-24.828 20.99,-62.8708 25.2,-73.8708 2.72,-6.9297 4.67,-10.8633 9.99,-10.8633 v -3.2187 h -28.78 v 3.2187 c 7.77,0 8.54,4.0782 6.54,9.5118 l -5.29,15.9179 h -31.5" /><path
         id="path62"
         style="fill:#ffffff;fill-opacity:1;fill-rule:nonzero;stroke:none"
         d="m 942.09,670.844 c 17.691,-6.121 27.894,-6.801 48.305,-6.801 57.825,0 94.565,31.293 94.565,84.359 0,41.5 -23.13,97.286 -94.565,97.286 H 942.09 Z m 0,-126.531 c 0,-48.301 11.57,-61.915 44.223,-61.915 V 470.836 H 846.168 v 11.562 c 27.215,0 44.219,8.848 44.219,60.551 v 244.227 c 0,47.629 -11.563,61.914 -44.219,61.914 v 11.562 h 142.187 c 107.485,0 151.025,-57.14 151.025,-110.886 0,-64.633 -48.98,-100.688 -137.42,-100.688 -17.011,0 -31.296,0.68 -59.87,4.082 V 544.313" /><path
         id="path64"
         style="fill:#ffffff;fill-opacity:1;fill-rule:nonzero;stroke:none"
         d="m 1323.91,629.344 c 2.05,53.066 -34.01,74.84 -64.63,74.84 -40.14,0 -63.94,-29.938 -66.67,-74.84 z m -131.3,-11.563 c -1.36,-108.168 63.27,-135.383 95.93,-135.383 33.33,0 50.34,11.567 85.03,50.34 v -17.679 c -29.25,-37.422 -57.14,-51.711 -99.32,-51.711 -75.51,0 -129.94,52.39 -129.94,125.183 0,72.793 53.06,129.942 121.1,129.942 55.78,0 107.49,-44.903 104.09,-100.692 h -176.89" /><path
         id="path66"
         style="fill:#ffffff;fill-opacity:1;fill-rule:nonzero;stroke:none"
         d="m 1483.12,516.418 c 0,-26.535 8.16,-34.02 40.14,-34.02 v -11.562 h -127.22 v 11.562 c 36.73,0 40.82,9.528 40.82,46.262 v 131.301 c 0,35.375 -8.85,39.465 -49.67,39.465 v 11.558 l 84.36,7.489 h 11.57 v -52.387 c 44.9,38.777 65.99,52.387 82.31,52.387 13.61,0 31.98,-8.164 44.23,-19.047 l -18.38,-42.867 c -19.72,10.886 -40.81,21.086 -57.14,21.086 -15.65,0 -29.25,-8.157 -51.02,-29.247 v -131.98" /><path
         id="path68"
         style="fill:#ffffff;fill-opacity:1;fill-rule:nonzero;stroke:none"
         d="m 1813.93,629.344 c 2.04,53.066 -34.02,74.84 -64.63,74.84 -40.14,0 -63.95,-29.938 -66.68,-74.84 z m -131.31,-11.563 c -1.36,-108.168 63.27,-135.383 95.92,-135.383 33.34,0 50.36,11.567 85.04,50.34 v -17.679 c -29.25,-37.422 -57.14,-51.711 -99.31,-51.711 -75.52,0 -129.95,52.39 -129.95,125.183 0,72.793 53.06,129.942 121.1,129.942 55.78,0 107.49,-44.903 104.08,-100.692 h -176.88" /><path
         id="path70"
         style="fill:#ffffff;fill-opacity:1;fill-rule:nonzero;stroke:none"
         d="m 1932.31,805.273 c 0,23.133 -7.49,32.661 -32.65,32.661 H 1884 v 11.562 l 83,8.164 h 11.57 V 516.418 c 0,-25.855 8.17,-34.02 37.42,-34.02 h 6.12 v -11.562 h -134.02 v 11.562 h 12.24 c 24.49,0 31.98,10.207 31.98,45.586 v 277.289" /><path
         id="path72"
         style="fill:#ffffff;fill-opacity:1;fill-rule:nonzero;stroke:none"
         d="m 2469.08,515.738 c 0,-24.492 8.17,-33.34 40.83,-33.34 V 470.836 H 2382 v 11.562 c 34.03,0 40.83,6.805 40.83,46.262 v 114.293 c 0,31.293 -20.42,49.664 -52.39,49.664 -25.86,0 -46.94,-14.289 -68.03,-46.262 V 517.098 c 0,-25.172 7.48,-34.7 40.14,-34.7 v -11.562 h -126.54 v 11.562 c 32.65,0 40.13,3.403 40.13,46.262 v 111.574 c 0,36.059 -25.16,52.383 -51.01,52.383 -27.22,0 -53.75,-19.047 -69.4,-46.262 V 515.059 c 0,-24.496 10.21,-33.336 40.82,-33.336 v -10.887 h -127.91 v 11.562 c 28.58,0 40.83,2.723 40.83,38.778 v 142.867 c 0,26.531 -11.56,35.383 -33.34,35.383 h -14.97 v 11.558 l 83,7.489 h 11.57 v -50.344 h 1.36 c 19.74,30.617 53.75,50.344 85.72,50.344 31.98,0 63.26,-17.692 75.52,-54.43 25.84,36.055 56.46,54.43 89.12,54.43 34.01,0 81.63,-19.727 81.63,-81.641 V 515.738" /><path
         id="path74"
         style="fill:#ffffff;fill-opacity:1;fill-rule:nonzero;stroke:none"
         d="m 2678.65,601.453 c -45.57,-19.726 -86.39,-19.047 -86.39,-68.031 0,-24.488 17,-44.219 36.73,-44.219 14.29,0 40.14,10.207 49.66,30.617 z m 46.26,-74.832 c 0,-27.894 2.73,-37.418 13.62,-37.418 7.48,0 10.87,6.125 16.32,23.133 h 11.57 c -2.04,-29.938 -19.73,-48.988 -46.95,-48.988 -20.41,0 -32.65,10.211 -40.82,34.019 -23.81,-25.847 -39.45,-34.019 -64.63,-34.019 -37.41,0 -68.71,28.578 -68.71,63.953 0,68.715 93.89,65.992 133.34,89.121 v 17.683 c 0,34.024 -19.72,58.512 -53.74,58.512 -27.21,0 -53.75,-17.008 -63.95,-51.699 l -12.25,3.398 c 10.21,44.903 45.58,74.157 89.12,74.157 40.15,0 87.08,-23.137 87.08,-88.446 V 526.621" /><path
         id="path76"
         style="fill:#ffffff;fill-opacity:1;fill-rule:nonzero;stroke:none"
         d="m 3035.16,523.223 c 0,-31.297 6.79,-40.825 40.82,-40.825 v -11.562 h -128.59 v 11.562 c 32.65,0 41.51,7.485 41.51,29.938 v 125.855 c 0,38.782 -27.9,55.106 -53.74,55.106 -23.82,0 -44.92,-14.969 -68.72,-46.942 V 528.66 c 0,-36.734 4.76,-46.262 40.82,-46.262 v -11.562 h -127.22 v 11.562 c 31.97,0 40.14,2.723 40.14,46.262 v 135.383 c 0,29.254 -7.48,35.383 -40.14,35.383 v 11.558 l 74.83,7.489 h 11.57 v -48.301 c 28.57,32.648 56.46,48.301 87.08,48.301 40.14,0 81.64,-28.575 81.64,-86.403 V 523.223" /><path
         id="path78"
         style="fill:#ffffff;fill-opacity:1;fill-rule:nonzero;stroke:none"
         d="m 942.926,372.406 h -5.684 c -3.008,28.414 -23.066,39.446 -42.457,39.446 -20.058,0 -34.43,-11.032 -34.43,-28.747 0,-35.441 48.805,-44.796 76.215,-72.21 13.375,-13.372 16.715,-25.403 16.715,-38.106 0,-30.086 -24.398,-54.492 -54.484,-54.492 -20.399,0 -37.438,10.027 -43.797,10.027 -3.344,0 -5.684,-2.34 -7.352,-7.347 h -5.683 v 51.812 h 5.683 c 0.34,-35.437 29.418,-47.129 46.133,-47.129 23.067,0 38.442,13.367 38.442,34.09 0,33.098 -51.481,48.473 -72.875,69.867 -11.7,11.699 -16.379,25.074 -16.379,40.113 0,29.415 21.054,49.473 52.144,49.473 20.395,0 30.086,-7.351 37.442,-7.351 3.011,0 3.675,0.664 5.015,5.343 h 5.352 v -44.789" /><path
         id="path80"
         style="fill:#ffffff;fill-opacity:1;fill-rule:nonzero;stroke:none"
         d="m 1080.01,302.875 h -5.68 c -5.02,21.391 -20.06,35.098 -39.78,35.098 -23.4,0 -39.784,-20.051 -39.784,-49.141 0,-32.426 20.394,-59.5 44.454,-59.5 14.37,0 31.77,7.695 44.13,24.734 v -8.691 c -12.7,-17.379 -30.76,-26.078 -52.15,-26.078 -35.095,0 -59.501,24.41 -59.501,59.848 0,36.429 27.41,65.519 61.181,65.519 17.71,0 27.4,-6.691 33.42,-6.691 3.01,0 6.02,2.34 8.03,6.691 h 5.68 v -41.789" /><path
         id="path82"
         style="fill:#ffffff;fill-opacity:1;fill-rule:nonzero;stroke:none"
         d="m 1217.35,251.395 c 0,-18.051 3.34,-22.735 19.06,-22.735 v -5.683 h -61.52 v 5.683 c 16.06,0 19.73,3.684 19.73,19.059 v 58.5 c 0,15.711 -9.36,25.734 -23.73,25.734 -13.38,0 -23.07,-6.348 -34.43,-22.394 v -64.848 c 0,-12.367 5,-16.051 19.72,-16.051 v -5.683 h -63.52 v 5.683 c 17.72,0.34 21.06,3.684 21.06,22.735 v 154.109 c 0,15.375 -4.34,17.715 -21.06,17.715 v 5.687 l 38.11,4.004 h 5.69 V 320.922 c 15.03,17.387 26.07,23.742 41.45,23.742 19.72,0 39.44,-13.043 39.44,-41.117 v -52.152" /><path
         id="path84"
         style="fill:#ffffff;fill-opacity:1;fill-rule:nonzero;stroke:none"
         d="m 1311.65,337.973 c -25.08,0 -40.12,-22.067 -40.12,-56.16 0,-30.418 12.71,-55.829 40.12,-55.829 28.08,0 40.11,27.082 40.11,55.829 0,29.753 -12.71,56.16 -40.11,56.16 z m 0,-118.676 c -37.11,0 -64.86,26.75 -64.86,62.516 0,36.109 27.75,62.851 64.86,62.851 37.1,0 64.84,-26.742 64.84,-62.851 0,-35.766 -27.74,-62.516 -64.84,-62.516" /><path
         id="path86"
         style="fill:#ffffff;fill-opacity:1;fill-rule:nonzero;stroke:none"
         d="m 1461.44,337.973 c -25.07,0 -40.12,-22.067 -40.12,-56.16 0,-30.418 12.7,-55.829 40.12,-55.829 28.08,0 40.11,27.082 40.11,55.829 0,29.753 -12.71,56.16 -40.11,56.16 z m 0,-118.676 c -37.11,0 -64.86,26.75 -64.86,62.516 0,36.109 27.75,62.851 64.86,62.851 37.1,0 64.85,-26.742 64.85,-62.851 0,-35.766 -27.75,-62.516 -64.85,-62.516" /><path
         id="path88"
         style="fill:#ffffff;fill-opacity:1;fill-rule:nonzero;stroke:none"
         d="m 1564.09,407.168 c 0,11.371 -3.67,16.051 -16.04,16.051 h -7.69 v 5.687 l 40.78,4.004 h 5.68 V 245.375 c 0,-12.699 4.01,-16.715 18.39,-16.715 h 3.01 v -5.683 h -65.86 v 5.683 h 6.02 c 12.04,0 15.71,5.02 15.71,22.399 v 156.109" /><path
         id="path90"
         style="fill:#ffffff;fill-opacity:1;fill-rule:nonzero;stroke:none"
         d="m 1760.01,337.973 c -25.06,0 -40.11,-22.067 -40.11,-56.16 0,-30.418 12.7,-55.829 40.11,-55.829 28.09,0 40.12,27.082 40.12,55.829 0,29.753 -12.71,56.16 -40.12,56.16 z m 0,-118.676 c -37.1,0 -64.85,26.75 -64.85,62.516 0,36.109 27.75,62.851 64.85,62.851 37.11,0 64.85,-26.742 64.85,-62.851 0,-35.766 -27.74,-62.516 -64.85,-62.516" /><path
         id="path92"
         style="fill:#ffffff;fill-opacity:1;fill-rule:nonzero;stroke:none"
         d="m 1882.39,246.379 c 0,-13.371 6.02,-17.719 17.05,-17.719 h 5.68 v -5.683 h -67.19 v 5.683 h 5.35 c 12.03,0 16.38,4.348 16.38,15.715 v 87.914 h -16.38 v 5.684 c 8.02,3.343 11.36,4.679 16.38,8.023 v 23.399 c 0,28.75 13.71,63.515 50.81,63.515 13.04,0 25.41,-3.676 33.43,-9.691 l -11.36,-29.754 h -5.68 c 1.67,22.394 -8.36,32.422 -22.41,32.422 -13.03,0 -22.06,-9.692 -22.06,-27.742 V 340.98 h 29.42 v -8.691 h -29.42 v -85.91" /><path
         id="path94"
         style="fill:#ffffff;fill-opacity:1;fill-rule:nonzero;stroke:none"
         d="m 2225.05,408.848 c -16.38,-0.336 -22.73,-11.703 -21.39,-29.762 l 9.7,-117.996 c 2,-23.399 6.02,-30.754 23.73,-32.43 v -5.683 h -68.86 v 5.683 c 15.71,2.684 21.06,9.695 19.72,28.746 l -9.37,123.692 h -0.66 L 2112.4,222.977 h -5.01 l -64.19,158.121 h -0.66 l -10.7,-118.008 c -1.67,-19.383 5.35,-30.746 24.74,-34.43 v -5.683 h -59.5 v 5.683 c 19.38,2.684 22.39,14.043 24.39,35.106 l 11.7,131.707 c -7.34,8.023 -14.03,11.695 -25.05,13.375 v 5.679 h 48.46 l 61.17,-150.761 62.18,150.761 h 45.12 v -5.679" /><path
         id="path96"
         style="fill:#ffffff;fill-opacity:1;fill-rule:nonzero;stroke:none"
         d="m 2343.46,300.867 c 0.99,26.071 -16.72,36.77 -31.76,36.77 -19.73,0 -31.43,-14.703 -32.76,-36.77 z m -64.52,-5.687 c -0.67,-53.145 31.09,-66.52 47.12,-66.52 16.39,0 24.75,5.684 41.8,24.742 v -8.691 c -14.37,-18.387 -28.08,-25.414 -48.82,-25.414 -37.1,0 -63.83,25.742 -63.83,61.512 0,35.769 26.07,63.855 59.5,63.855 27.41,0 52.81,-22.066 51.14,-49.484 h -86.91" /><path
         id="path98"
         style="fill:#ffffff;fill-opacity:1;fill-rule:nonzero;stroke:none"
         d="m 2480.87,317.582 c -9.37,12.707 -22.4,20.055 -34.43,20.055 -21.4,0 -36.1,-19.383 -36.1,-48.133 0,-28.414 13.03,-61.18 51.81,-61.18 13.37,0 18.72,5.356 18.72,18.055 z m 22.73,-71.535 c 0,-13.039 4.68,-17.387 19.73,-17.387 v -5.683 h -68.87 c -50.14,0 -68.86,33.765 -68.86,61.511 0,33.434 24.74,60.176 55.48,60.176 12.71,0 24.75,-4.351 39.79,-14.375 v 72.539 c 0,17.051 -4,20.391 -15.71,20.391 h -6.69 v 5.687 l 39.45,4.004 h 5.68 V 246.047" /><path
         id="path100"
         style="fill:#ffffff;fill-opacity:1;fill-rule:nonzero;stroke:none"
         d="m 2578.51,391.453 c 0,-8.015 -6.35,-14.699 -14.38,-14.699 -8.02,0 -14.71,6.684 -14.71,14.699 0,8.027 6.69,14.375 14.71,14.375 8.03,0 14.38,-6.348 14.38,-14.375 z m -3.34,-146.414 c 0,-11.695 3,-16.379 19.71,-16.379 v -5.683 h -64.84 v 5.683 c 18.05,0 22.39,2.34 22.39,16.379 v 72.543 c 0,16.383 -5.01,17.715 -22.39,17.715 v 5.683 l 39.44,3.684 h 5.69 v -99.625" /><path
         id="path102"
         style="fill:#ffffff;fill-opacity:1;fill-rule:nonzero;stroke:none"
         d="m 2718.58,302.875 h -5.67 c -5.02,21.391 -20.07,35.098 -39.78,35.098 -23.4,0 -39.79,-20.051 -39.79,-49.141 0,-32.426 20.4,-59.5 44.46,-59.5 14.38,0 31.76,7.695 44.12,24.734 v -8.691 c -12.69,-17.379 -30.75,-26.078 -52.13,-26.078 -35.1,0 -59.52,24.41 -59.52,59.848 0,36.429 27.42,65.519 61.19,65.519 17.71,0 27.41,-6.691 33.42,-6.691 3.01,0 6.02,2.34 8.03,6.691 h 5.67 v -41.789" /><path
         id="path104"
         style="fill:#ffffff;fill-opacity:1;fill-rule:nonzero;stroke:none"
         d="m 2777.12,391.453 c 0,-8.015 -6.35,-14.699 -14.38,-14.699 -8.02,0 -14.71,6.684 -14.71,14.699 0,8.027 6.69,14.375 14.71,14.375 8.03,0 14.38,-6.348 14.38,-14.375 z m -3.35,-146.414 c 0,-11.695 3.02,-16.379 19.73,-16.379 v -5.683 h -64.86 v 5.683 c 18.06,0 22.4,2.34 22.4,16.379 v 72.543 c 0,16.383 -5.01,17.715 -22.4,17.715 v 5.683 l 39.45,3.684 h 5.68 v -99.625" /><path
         id="path106"
         style="fill:#ffffff;fill-opacity:1;fill-rule:nonzero;stroke:none"
         d="m 2925.88,248.719 c 0,-15.375 3.35,-20.059 20.07,-20.059 v -5.683 h -63.2 v 5.683 c 16.06,0 20.4,3.684 20.4,14.715 v 61.836 c 0,19.055 -13.71,27.078 -26.4,27.078 -11.71,0 -22.07,-7.351 -33.77,-23.066 v -57.828 c 0,-18.051 2.34,-22.735 20.06,-22.735 v -5.683 h -62.51 v 5.683 c 15.71,0 19.71,1.34 19.71,22.735 v 66.527 c 0,14.367 -3.66,17.375 -19.71,17.375 v 5.683 l 36.76,3.684 h 5.69 v -23.742 c 14.04,16.047 27.75,23.742 42.79,23.742 19.73,0 40.11,-14.043 40.11,-42.457 v -53.488" /><path
         id="path108"
         style="fill:#ffffff;fill-opacity:1;fill-rule:nonzero;stroke:none"
         d="m 3047.26,300.867 c 1,26.071 -16.71,36.77 -31.76,36.77 -19.72,0 -31.42,-14.703 -32.76,-36.77 z m -64.52,-5.687 c -0.66,-53.145 31.09,-66.52 47.13,-66.52 16.39,0 24.74,5.684 41.79,24.742 v -8.691 c -14.37,-18.387 -28.09,-25.414 -48.8,-25.414 -37.12,0 -63.86,25.742 -63.86,61.512 0,35.769 26.08,63.855 59.51,63.855 27.41,0 52.82,-22.066 51.15,-49.484 h -86.92" /><path
         id="path110"
         style="fill:#ffffff;fill-opacity:1;fill-rule:nonzero;stroke:none"
         d="M 0,859.512 V 436.422 C 74.0391,119.051 369.965,14.4141 369.965,14.4141 704.691,142.004 730.707,442.402 730.707,442.402 v 417.11 H 0" /><path
         id="path112"
         style="fill:#18468b;fill-opacity:1;fill-rule:nonzero;stroke:none"
         d="M 17.6914,840.41 V 434.809 c 0,0 52.4141,-270.821 351.9336,-400.6098 0,0 285.785,97.3438 343.191,404.3558 V 840.41 H 17.6914" /><path
         id="path114"
         style="fill:#b20d35;fill-opacity:1;fill-rule:nonzero;stroke:none"
         d="M 699.055,828.258 H 32.1563 V 611.891 H 699.055 v 216.367" /><path
         id="path116"
         style="fill:#18468b;fill-opacity:1;fill-rule:nonzero;stroke:none"
         d="m 556.66,778.164 h -9.926 c 0,0 -23.046,-11.973 -8.414,-36.516 v -41.156 c 0,0 -14.48,-14.633 0,-30.633 v -18.293 h 147.7 v 18.594 c 0,0 14.628,12.043 0.152,30.18 v 41.004 c 0,0 15.547,22.562 -8.688,37.039 h -9.3 c 0,0 -18.289,22.258 -55.938,7.472 0,0 -32.226,14.954 -55.586,-7.691" /><path
         id="path118"
         style="fill:#18468b;fill-opacity:1;fill-rule:nonzero;stroke:none"
         d="m 64.0195,778.164 h -9.9257 c 0,0 -23.043,-11.973 -8.4102,-36.516 v -41.156 c 0,0 -14.4766,-14.633 0,-30.633 V 651.566 H 193.383 v 18.594 c 0,0 14.637,12.043 0.152,30.18 v 41.004 c 0,0 15.547,22.562 -8.687,37.039 h -9.297 c 0,0 -18.289,22.258 -55.942,7.472 0,0 -32.2262,14.954 -55.5895,-7.691" /><path
         id="path120"
         style="fill:#18468b;fill-opacity:1;fill-rule:nonzero;stroke:none"
         d="m 253.297,774.809 c -1.203,-2.379 -53.649,-63.121 -31.727,-95.954 2.383,-3.566 1.985,-3.566 -0.8,-5.16 -2.774,-1.582 -10.305,-7.867 -8.325,-14.215 4.157,-13.292 11.434,-8.402 21.418,-16.648 9.117,-7.531 39.438,-8.984 72.563,27.305 41.64,45.601 82.129,-35.25 149.488,-32.907 45.606,1.579 65.027,36.868 65.027,59.075 0,3.968 0.653,14.05 -12.687,33.312 -10.711,15.449 9.914,37.266 12.297,42.031 2.254,4.504 -49.567,25.77 -48.371,-35.687 0,0 -42.832,-4.266 -24.2,-53.031 1.79,-4.688 11.887,10.699 20.211,15.859 8.336,5.156 16.657,6.348 21.418,-2.094 6.461,-11.433 -28.14,-48.757 -54.32,-12.683 0,0 12.289,19.426 -4.359,32.918 0,0 6.742,19.422 -9.91,21.406 0,0 0.8,22.605 -18.231,22.207 0,0 -2.383,14.266 -19.039,11.105 0,0 -3.18,19.024 -23.395,12.286 0,0 -9.515,20.617 -31.324,5.949 0,0 -8.722,17.84 -27.761,2.781 0,0 -15.469,17.043 -39.649,-7.148 0,0 -2.383,8.332 -4.762,2.785 -2.382,-5.551 -0.789,-7.926 -3.562,-13.492" /><path
         id="path122"
         style="fill:#ffffff;fill-opacity:1;fill-rule:nonzero;stroke:none"
         d="M 32.168,600.301 V 438.465 c 0,0 16.6601,-67.914 49.1054,-125.332 L 368.375,589.559 657.906,313.754 c 0,0 41.192,95.68 41.192,127.238 0,33.715 0,159.801 0,159.801 l -666.93,-0.492" /><path
         id="path124"
         style="fill:#ffffff;fill-opacity:1;fill-rule:nonzero;stroke:none"
         d="m 422.523,447.652 c 0,-27.257 -22.078,-49.347 -49.343,-49.347 -27.246,0 -49.352,22.09 -49.352,49.347 0,27.254 22.106,49.344 49.352,49.344 27.265,0 49.343,-22.09 49.343,-49.344" /><path
         id="path126"
         style="fill:#ffffff;fill-opacity:1;fill-rule:nonzero;stroke:none"
         d="m 576.137,309.824 c 0,-27.258 -22.09,-49.351 -49.344,-49.351 -27.258,0 -49.348,22.093 -49.348,49.351 0,27.25 22.09,49.348 49.348,49.348 27.254,0 49.344,-22.098 49.344,-49.348" /><path
         id="path128"
         style="fill:#ffffff;fill-opacity:1;fill-rule:nonzero;stroke:none"
         d="m 267.039,309.277 c 0,-27.257 -22.09,-49.347 -49.344,-49.347 -27.257,0 -49.343,22.09 -49.343,49.347 0,27.254 22.086,49.352 49.343,49.352 27.254,0 49.344,-22.098 49.344,-49.352" /><path
         id="path130"
         style="fill:#ffffff;fill-opacity:1;fill-rule:nonzero;stroke:none"
         d="m 189.766,168.523 c 0,0 86.64,-82.1558 180.808,-118.2808 0,0 81.367,27.1289 179.305,115.2698 L 369.07,342.555 189.766,168.523" /><path
         id="path132"
         style="fill:#ffffff;fill-opacity:1;fill-rule:nonzero;stroke:none"
         d="m 608.434,687.234 v 92.063 c 0,0 -29.262,11.277 -46.493,-6.856 v -86.886 c 0,0 24.243,7.011 46.493,1.679 z m 53.867,-1.679 v 86.886 c -17.227,18.133 -46.488,6.856 -46.488,6.856 l 0.089,-92.063 c 22.258,5.332 46.399,-1.679 46.399,-1.679 z m 16.398,11.742 v 46.488 c 0,0 13.571,15.848 -3.195,27.285 h -5.188 v -95.113 h -45.418 l -11.738,-4.883 -11.281,4.727 h -47.402 l -0.153,95.269 h -5.336 c 0,0 -16.156,-9.757 -3.203,-27.285 l 0.156,-46.488 c 0,0 -14.785,-12.043 -0.304,-24.082 v -14.184 h 133.062 v 14.184 c 0,0 14.938,10.359 0,24.082" /><path
         id="path134"
         style="fill:#ffffff;fill-opacity:1;fill-rule:nonzero;stroke:none"
         d="m 115.801,687.234 v 92.063 c 0,0 -29.2658,11.277 -46.4885,-6.856 v -86.886 c 0,0 24.2305,7.011 46.4885,1.679 z m 53.863,-1.679 v 86.886 c -17.226,18.133 -46.488,6.856 -46.488,6.856 l 0.09,-92.063 c 22.257,5.332 46.398,-1.679 46.398,-1.679 z m 16.406,11.742 v 46.488 c 0,0 13.563,15.848 -3.203,27.285 h -5.179 v -95.113 h -45.426 l -11.739,-4.883 -11.281,4.727 H 61.8398 l -0.1484,95.269 h -5.3398 c 0,0 -16.1563,-9.757 -3.1953,-27.285 l 0.1484,-46.488 c 0,0 -14.7852,-12.043 -0.3008,-24.082 V 659.031 H 186.07 v 14.184 c 0,0 14.938,10.359 0,24.082" /><path
         id="path136"
         style="fill:#ffffff;fill-opacity:1;fill-rule:nonzero;stroke:none"
         d="m 274.301,767.383 c 0,0 112.691,34.371 149.492,-67.012 1.656,-4.57 3.316,-4.84 4.09,-4.449 1.262,0.641 5.027,13.957 -6.082,17.531 0,0 4.762,16.649 -11.891,19.422 0,0 3.969,22.617 -18.23,19.836 0,0 1.179,13.879 -16.266,9.516 0,0 -1.59,21.015 -24.984,10.308 0,0 -5.547,18.633 -26.16,5.156 0,0 -11.911,19.832 -28.161,-0.402 0,0 -9.91,20.617 -30.921,0.797 0,0 7.921,-7.145 9.113,-10.703 z m 222.851,-28.582 c 0.391,14.672 9.547,25.437 12.692,29.742 3.164,4.363 -34.5,15.07 -29.742,-38.859 0,0 -38.524,3.078 -29.34,-38.059 0.781,-3.543 11.488,18.262 28.148,18.234 15.067,-0.019 18.242,-10.711 18.242,-16.652 0,-5.945 -5.148,-31.723 -39.257,-31.723 -34.102,0 -43.625,76.133 -91.606,94.77 -47.973,18.633 -88.023,4.762 -88.023,4.762 0,0 4.754,-14.278 1.589,-27.36 0,0 8.708,2.809 16.485,0.832 0,0 16.848,22.91 31.094,0.352 4.757,-7.527 15.832,3.617 21.011,1.59 9.118,-3.575 6.746,-16.645 13.883,-15.453 0,0 14.258,3.324 15.461,-8.336 1.191,-11.489 8.727,-5.543 12.289,-10.305 3.574,-4.758 4.762,-8.727 4.762,-11.91 l -6.344,-2.375 c 0,0 -1.183,10.738 -6.742,11.519 -5.832,0.821 -6.75,-2.004 -9.117,8.313 -2.371,10.301 -17.055,1.976 -22.61,10.703 -5.547,8.727 -6.726,10.707 -15.453,6.746 -8.722,-3.965 -12.879,4.148 -14.668,5.941 -3.582,3.567 -8.691,3.668 -15.035,-2.273 0,0 27.899,-20.121 0.363,-42.137 L 310,683.691 c 0,0 11.094,7.536 27.359,7.536 42.813,0 52.739,-46.793 119.344,-46.793 36.481,0 57.496,29.742 57.496,51.945 0,22.605 -17.441,27.754 -17.047,42.422 z M 266.77,692.797 c -2.383,-2.371 -13.875,-12.68 -15.075,-10.297 -1.183,2.371 -5.941,10.688 2.383,13.867 0,0 15.067,-1.195 12.692,-3.57 z m 44.406,21.348 c -2.77,4.003 -9.906,2.382 -9.906,2.382 0,0 3.07,8.844 -3.961,12.7 -8.723,4.773 -22.996,-6.719 -30.93,-15.454 l -1.992,0.782 c 0,0 23.394,34.898 -5.547,54.711 -0.477,0.324 -37.668,-43.672 -34.895,-71.317 1.192,-11.84 7.133,-13.879 7.133,-22.207 0,-8.324 -14.668,-8.277 -11.488,-15.461 3.051,-6.933 13.48,-4.816 18.633,-3.226 5.156,1.586 27.004,10.8 34.886,22.621 1.594,2.383 4.766,3.945 6.348,3.144 1.59,-0.789 2.777,-2.769 1.195,-5.539 -1.586,-2.785 -3.843,-13.48 -43.625,-28.508 -5.156,-1.941 9.559,-4.839 18,-3.714 11.692,1.543 37.918,13.972 50.207,33.402 l -9.906,6.344 c 0,0 26.465,14.09 15.848,29.34" /><path
         id="path138"
         style="fill:#b20d35;fill-opacity:1;fill-rule:nonzero;stroke:none"
         d="M 699.055,828.258 H 32.1563 V 611.891 H 699.055 v 216.367" /><path
         id="path140"
         style="fill:#18468b;fill-opacity:1;fill-rule:nonzero;stroke:none"
         d="m 556.66,778.164 h -9.926 c 0,0 -23.046,-11.973 -8.414,-36.516 v -41.156 c 0,0 -14.48,-14.633 0,-30.633 v -18.293 h 147.7 v 18.594 c 0,0 14.628,12.043 0.152,30.18 v 41.004 c 0,0 15.547,22.562 -8.688,37.039 h -9.3 c 0,0 -18.289,22.258 -55.938,7.472 0,0 -32.226,14.954 -55.586,-7.691" /><path
         id="path142"
         style="fill:#18468b;fill-opacity:1;fill-rule:nonzero;stroke:none"
         d="m 64.0195,778.164 h -9.9257 c 0,0 -23.043,-11.973 -8.4102,-36.516 v -41.156 c 0,0 -14.4766,-14.633 0,-30.633 V 651.566 H 193.383 v 18.594 c 0,0 14.637,12.043 0.152,30.18 v 41.004 c 0,0 15.547,22.562 -8.687,37.039 h -9.297 c 0,0 -18.289,22.258 -55.942,7.472 0,0 -32.2262,14.954 -55.5895,-7.691" /><path
         id="path144"
         style="fill:#18468b;fill-opacity:1;fill-rule:nonzero;stroke:none"
         d="m 253.297,774.809 c -1.203,-2.379 -53.649,-63.121 -31.727,-95.954 2.383,-3.566 1.985,-3.566 -0.8,-5.16 -2.774,-1.582 -10.305,-7.867 -8.325,-14.215 4.157,-13.292 11.434,-8.402 21.418,-16.648 9.117,-7.531 39.438,-8.984 72.563,27.305 41.64,45.601 82.129,-35.25 149.488,-32.907 45.606,1.579 65.027,36.868 65.027,59.075 0,3.968 0.653,14.05 -12.687,33.312 -10.711,15.449 9.914,37.266 12.297,42.031 2.254,4.504 -49.567,25.77 -48.371,-35.687 0,0 -42.832,-4.266 -24.2,-53.031 1.79,-4.688 11.887,10.699 20.211,15.859 8.336,5.156 16.657,6.348 21.418,-2.094 6.461,-11.433 -28.14,-48.757 -54.32,-12.683 0,0 12.289,19.426 -4.359,32.918 0,0 6.742,19.422 -9.91,21.406 0,0 0.8,22.605 -18.231,22.207 0,0 -2.383,14.266 -19.039,11.105 0,0 -3.18,19.024 -23.395,12.286 0,0 -9.515,20.617 -31.324,5.949 0,0 -8.722,17.84 -27.761,2.781 0,0 -15.469,17.043 -39.649,-7.148 0,0 -2.383,8.332 -4.762,2.785 -2.382,-5.551 -0.789,-7.926 -3.562,-13.492" /><path
         id="path146"
         style="fill:#ffffff;fill-opacity:1;fill-rule:nonzero;stroke:none"
         d="M 32.168,600.301 V 438.465 c 0,0 16.6601,-67.914 49.1054,-125.332 L 368.375,589.559 657.906,313.754 c 0,0 41.192,95.68 41.192,127.238 0,33.715 0,159.801 0,159.801 l -666.93,-0.492" /><path
         id="path148"
         style="fill:#ffffff;fill-opacity:1;fill-rule:nonzero;stroke:none"
         d="m 422.523,447.652 c 0,-27.257 -22.078,-49.347 -49.343,-49.347 -27.246,0 -49.352,22.09 -49.352,49.347 0,27.254 22.106,49.344 49.352,49.344 27.265,0 49.343,-22.09 49.343,-49.344" /><path
         id="path150"
         style="fill:#ffffff;fill-opacity:1;fill-rule:nonzero;stroke:none"
         d="m 576.137,309.824 c 0,-27.258 -22.09,-49.351 -49.344,-49.351 -27.258,0 -49.348,22.093 -49.348,49.351 0,27.25 22.09,49.348 49.348,49.348 27.254,0 49.344,-22.098 49.344,-49.348" /><path
         id="path152"
         style="fill:#ffffff;fill-opacity:1;fill-rule:nonzero;stroke:none"
         d="m 267.039,309.277 c 0,-27.257 -22.09,-49.347 -49.344,-49.347 -27.257,0 -49.343,22.09 -49.343,49.347 0,27.254 22.086,49.352 49.343,49.352 27.254,0 49.344,-22.098 49.344,-49.352" /><path
         id="path154"
         style="fill:#ffffff;fill-opacity:1;fill-rule:nonzero;stroke:none"
         d="m 189.766,168.523 c 0,0 86.64,-82.1558 180.808,-118.2808 0,0 81.367,27.1289 179.305,115.2698 L 369.07,342.555 189.766,168.523" /><path
         id="path156"
         style="fill:#ffffff;fill-opacity:1;fill-rule:nonzero;stroke:none"
         d="m 608.434,687.234 v 92.063 c 0,0 -29.262,11.277 -46.493,-6.856 v -86.886 c 0,0 24.243,7.011 46.493,1.679 z m 53.867,-1.679 v 86.886 c -17.227,18.133 -46.488,6.856 -46.488,6.856 l 0.089,-92.063 c 22.258,5.332 46.399,-1.679 46.399,-1.679 z m 16.398,11.742 v 46.488 c 0,0 13.571,15.848 -3.195,27.285 h -5.188 v -95.113 h -45.418 l -11.738,-4.883 -11.281,4.727 h -47.402 l -0.153,95.269 h -5.336 c 0,0 -16.156,-9.757 -3.203,-27.285 l 0.156,-46.488 c 0,0 -14.785,-12.043 -0.304,-24.082 v -14.184 h 133.062 v 14.184 c 0,0 14.938,10.359 0,24.082" /><path
         id="path158"
         style="fill:#ffffff;fill-opacity:1;fill-rule:nonzero;stroke:none"
         d="m 115.801,687.234 v 92.063 c 0,0 -29.2658,11.277 -46.4885,-6.856 v -86.886 c 0,0 24.2305,7.011 46.4885,1.679 z m 53.863,-1.679 v 86.886 c -17.226,18.133 -46.488,6.856 -46.488,6.856 l 0.09,-92.063 c 22.257,5.332 46.398,-1.679 46.398,-1.679 z m 16.406,11.742 v 46.488 c 0,0 13.563,15.848 -3.203,27.285 h -5.179 v -95.113 h -45.426 l -11.739,-4.883 -11.281,4.727 H 61.8398 l -0.1484,95.269 h -5.3398 c 0,0 -16.1563,-9.757 -3.1953,-27.285 l 0.1484,-46.488 c 0,0 -14.7852,-12.043 -0.3008,-24.082 V 659.031 H 186.07 v 14.184 c 0,0 14.938,10.359 0,24.082" /><path
         id="path160"
         style="fill:#ffffff;fill-opacity:1;fill-rule:nonzero;stroke:none"
         d="m 274.301,767.383 c 0,0 112.691,34.371 149.492,-67.012 1.656,-4.57 3.316,-4.84 4.09,-4.449 1.262,0.641 5.027,13.957 -6.082,17.531 0,0 4.762,16.649 -11.891,19.422 0,0 3.969,22.617 -18.23,19.836 0,0 1.179,13.879 -16.266,9.516 0,0 -1.59,21.015 -24.984,10.308 0,0 -5.547,18.633 -26.16,5.156 0,0 -11.911,19.832 -28.161,-0.402 0,0 -9.91,20.617 -30.921,0.797 0,0 7.921,-7.145 9.113,-10.703 z m 222.851,-28.582 c 0.391,14.672 9.547,25.437 12.692,29.742 3.164,4.363 -34.5,15.07 -29.742,-38.859 0,0 -38.524,3.078 -29.34,-38.059 0.781,-3.543 11.488,18.262 28.148,18.234 15.067,-0.019 18.242,-10.711 18.242,-16.652 0,-5.945 -5.148,-31.723 -39.257,-31.723 -34.102,0 -43.625,76.133 -91.606,94.77 -47.973,18.633 -88.023,4.762 -88.023,4.762 0,0 4.754,-14.278 1.589,-27.36 0,0 8.708,2.809 16.485,0.832 0,0 16.848,22.91 31.094,0.352 4.757,-7.527 15.832,3.617 21.011,1.59 9.118,-3.575 6.746,-16.645 13.883,-15.453 0,0 14.258,3.324 15.461,-8.336 1.191,-11.489 8.727,-5.543 12.289,-10.305 3.574,-4.758 4.762,-8.727 4.762,-11.91 l -6.344,-2.375 c 0,0 -1.183,10.738 -6.742,11.519 -5.832,0.821 -6.75,-2.004 -9.117,8.313 -2.371,10.301 -17.055,1.976 -22.61,10.703 -5.547,8.727 -6.726,10.707 -15.453,6.746 -8.722,-3.965 -12.879,4.148 -14.668,5.941 -3.582,3.567 -8.691,3.668 -15.035,-2.273 0,0 27.899,-20.121 0.363,-42.137 L 310,683.691 c 0,0 11.094,7.536 27.359,7.536 42.813,0 52.739,-46.793 119.344,-46.793 36.481,0 57.496,29.742 57.496,51.945 0,22.605 -17.441,27.754 -17.047,42.422 z M 266.77,692.797 c -2.383,-2.371 -13.875,-12.68 -15.075,-10.297 -1.183,2.371 -5.941,10.688 2.383,13.867 0,0 15.067,-1.195 12.692,-3.57 z m 44.406,21.348 c -2.77,4.003 -9.906,2.382 -9.906,2.382 0,0 3.07,8.844 -3.961,12.7 -8.723,4.773 -22.996,-6.719 -30.93,-15.454 l -1.992,0.782 c 0,0 23.394,34.898 -5.547,54.711 -0.477,0.324 -37.668,-43.672 -34.895,-71.317 1.192,-11.84 7.133,-13.879 7.133,-22.207 0,-8.324 -14.668,-8.277 -11.488,-15.461 3.051,-6.933 13.48,-4.816 18.633,-3.226 5.156,1.586 27.004,10.8 34.886,22.621 1.594,2.383 4.766,3.945 6.348,3.144 1.59,-0.789 2.777,-2.769 1.195,-5.539 -1.586,-2.785 -3.843,-13.48 -43.625,-28.508 -5.156,-1.941 9.559,-4.839 18,-3.714 11.692,1.543 37.918,13.972 50.207,33.402 l -9.906,6.344 c 0,0 26.465,14.09 15.848,29.34" /><path
         id="path162"
         style="fill:#18468b;fill-opacity:1;fill-rule:nonzero;stroke:none"
         d="M 17.6914,840.41 V 434.809 c 0,0 52.4141,-270.821 351.9336,-400.6098 0,0 285.785,97.3438 343.191,404.3558 V 840.41 H 17.6914" /><path
         id="path164"
         style="fill:#b20d35;fill-opacity:1;fill-rule:nonzero;stroke:none"
         d="M 699.055,828.258 H 32.1563 V 611.891 H 699.055 v 216.367" /><path
         id="path166"
         style="fill:#18468b;fill-opacity:1;fill-rule:nonzero;stroke:none"
         d="m 556.66,778.164 h -9.926 c 0,0 -23.046,-11.973 -8.414,-36.516 v -41.156 c 0,0 -14.48,-14.633 0,-30.633 v -18.293 h 147.7 v 18.594 c 0,0 14.628,12.043 0.152,30.18 v 41.004 c 0,0 15.547,22.562 -8.688,37.039 h -9.3 c 0,0 -18.289,22.258 -55.938,7.472 0,0 -32.226,14.954 -55.586,-7.691" /><path
         id="path168"
         style="fill:#18468b;fill-opacity:1;fill-rule:nonzero;stroke:none"
         d="m 64.0195,778.164 h -9.9257 c 0,0 -23.043,-11.973 -8.4102,-36.516 v -41.156 c 0,0 -14.4766,-14.633 0,-30.633 V 651.566 H 193.383 v 18.594 c 0,0 14.637,12.043 0.152,30.18 v 41.004 c 0,0 15.547,22.562 -8.687,37.039 h -9.297 c 0,0 -18.289,22.258 -55.942,7.472 0,0 -32.2262,14.954 -55.5895,-7.691" /><path
         id="path170"
         style="fill:#18468b;fill-opacity:1;fill-rule:nonzero;stroke:none"
         d="m 253.297,774.809 c -1.203,-2.379 -53.649,-63.121 -31.727,-95.954 2.383,-3.566 1.985,-3.566 -0.8,-5.16 -2.774,-1.582 -10.305,-7.867 -8.325,-14.215 4.157,-13.292 11.434,-8.402 21.418,-16.648 9.117,-7.531 39.438,-8.984 72.563,27.305 41.64,45.601 82.129,-35.25 149.488,-32.907 45.606,1.579 65.027,36.868 65.027,59.075 0,3.968 0.653,14.05 -12.687,33.312 -10.711,15.449 9.914,37.266 12.297,42.031 2.254,4.504 -49.567,25.77 -48.371,-35.687 0,0 -42.832,-4.266 -24.2,-53.031 1.79,-4.688 11.887,10.699 20.211,15.859 8.336,5.156 16.657,6.348 21.418,-2.094 6.461,-11.433 -28.14,-48.757 -54.32,-12.683 0,0 12.289,19.426 -4.359,32.918 0,0 6.742,19.422 -9.91,21.406 0,0 0.8,22.605 -18.231,22.207 0,0 -2.383,14.266 -19.039,11.105 0,0 -3.18,19.024 -23.395,12.286 0,0 -9.515,20.617 -31.324,5.949 0,0 -8.722,17.84 -27.761,2.781 0,0 -15.469,17.043 -39.649,-7.148 0,0 -2.383,8.332 -4.762,2.785 -2.382,-5.551 -0.789,-7.926 -3.562,-13.492" /><path
         id="path172"
         style="fill:#ffffff;fill-opacity:1;fill-rule:nonzero;stroke:none"
         d="M 32.168,600.301 V 438.465 c 0,0 16.6601,-67.914 49.1054,-125.332 L 368.375,589.559 657.906,313.754 c 0,0 41.192,95.68 41.192,127.238 0,33.715 0,159.801 0,159.801 l -666.93,-0.492" /><path
         id="path174"
         style="fill:#ffffff;fill-opacity:1;fill-rule:nonzero;stroke:none"
         d="m 422.523,447.652 c 0,-27.257 -22.078,-49.347 -49.343,-49.347 -27.246,0 -49.352,22.09 -49.352,49.347 0,27.254 22.106,49.344 49.352,49.344 27.265,0 49.343,-22.09 49.343,-49.344" /><path
         id="path176"
         style="fill:#ffffff;fill-opacity:1;fill-rule:nonzero;stroke:none"
         d="m 576.137,309.824 c 0,-27.258 -22.09,-49.351 -49.344,-49.351 -27.258,0 -49.348,22.093 -49.348,49.351 0,27.25 22.09,49.348 49.348,49.348 27.254,0 49.344,-22.098 49.344,-49.348" /><path
         id="path178"
         style="fill:#ffffff;fill-opacity:1;fill-rule:nonzero;stroke:none"
         d="m 267.039,309.277 c 0,-27.257 -22.09,-49.347 -49.344,-49.347 -27.257,0 -49.343,22.09 -49.343,49.347 0,27.254 22.086,49.352 49.343,49.352 27.254,0 49.344,-22.098 49.344,-49.352" /><path
         id="path180"
         style="fill:#ffffff;fill-opacity:1;fill-rule:nonzero;stroke:none"
         d="m 189.766,168.523 c 0,0 86.64,-82.1558 180.808,-118.2808 0,0 81.367,27.1289 179.305,115.2698 L 369.07,342.555 189.766,168.523" /><path
         id="path182"
         style="fill:#ffffff;fill-opacity:1;fill-rule:nonzero;stroke:none"
         d="m 608.434,687.234 v 92.063 c 0,0 -29.262,11.277 -46.493,-6.856 v -86.886 c 0,0 24.243,7.011 46.493,1.679 z m 53.867,-1.679 v 86.886 c -17.227,18.133 -46.488,6.856 -46.488,6.856 l 0.089,-92.063 c 22.258,5.332 46.399,-1.679 46.399,-1.679 z m 16.398,11.742 v 46.488 c 0,0 13.571,15.848 -3.195,27.285 h -5.188 v -95.113 h -45.418 l -11.738,-4.883 -11.281,4.727 h -47.402 l -0.153,95.269 h -5.336 c 0,0 -16.156,-9.757 -3.203,-27.285 l 0.156,-46.488 c 0,0 -14.785,-12.043 -0.304,-24.082 v -14.184 h 133.062 v 14.184 c 0,0 14.938,10.359 0,24.082" /><path
         id="path184"
         style="fill:#ffffff;fill-opacity:1;fill-rule:nonzero;stroke:none"
         d="m 115.801,687.234 v 92.063 c 0,0 -29.2658,11.277 -46.4885,-6.856 v -86.886 c 0,0 24.2305,7.011 46.4885,1.679 z m 53.863,-1.679 v 86.886 c -17.226,18.133 -46.488,6.856 -46.488,6.856 l 0.09,-92.063 c 22.257,5.332 46.398,-1.679 46.398,-1.679 z m 16.406,11.742 v 46.488 c 0,0 13.563,15.848 -3.203,27.285 h -5.179 v -95.113 h -45.426 l -11.739,-4.883 -11.281,4.727 H 61.8398 l -0.1484,95.269 h -5.3398 c 0,0 -16.1563,-9.757 -3.1953,-27.285 l 0.1484,-46.488 c 0,0 -14.7852,-12.043 -0.3008,-24.082 V 659.031 H 186.07 v 14.184 c 0,0 14.938,10.359 0,24.082" /><path
         id="path186"
         style="fill:#ffffff;fill-opacity:1;fill-rule:nonzero;stroke:none"
         d="m 274.301,767.383 c 0,0 112.691,34.371 149.492,-67.012 1.656,-4.57 3.316,-4.84 4.09,-4.449 1.262,0.641 5.027,13.957 -6.082,17.531 0,0 4.762,16.649 -11.891,19.422 0,0 3.969,22.617 -18.23,19.836 0,0 1.179,13.879 -16.266,9.516 0,0 -1.59,21.015 -24.984,10.308 0,0 -5.547,18.633 -26.16,5.156 0,0 -11.911,19.832 -28.161,-0.402 0,0 -9.91,20.617 -30.921,0.797 0,0 7.921,-7.145 9.113,-10.703 z m 222.851,-28.582 c 0.391,14.672 9.547,25.437 12.692,29.742 3.164,4.363 -34.5,15.07 -29.742,-38.859 0,0 -38.524,3.078 -29.34,-38.059 0.781,-3.543 11.488,18.262 28.148,18.234 15.067,-0.019 18.242,-10.711 18.242,-16.652 0,-5.945 -5.148,-31.723 -39.257,-31.723 -34.102,0 -43.625,76.133 -91.606,94.77 -47.973,18.633 -88.023,4.762 -88.023,4.762 0,0 4.754,-14.278 1.589,-27.36 0,0 8.708,2.809 16.485,0.832 0,0 16.848,22.91 31.094,0.352 4.757,-7.527 15.832,3.617 21.011,1.59 9.118,-3.575 6.746,-16.645 13.883,-15.453 0,0 14.258,3.324 15.461,-8.336 1.191,-11.489 8.727,-5.543 12.289,-10.305 3.574,-4.758 4.762,-8.727 4.762,-11.91 l -6.344,-2.375 c 0,0 -1.183,10.738 -6.742,11.519 -5.832,0.821 -6.75,-2.004 -9.117,8.313 -2.371,10.301 -17.055,1.976 -22.61,10.703 -5.547,8.727 -6.726,10.707 -15.453,6.746 -8.722,-3.965 -12.879,4.148 -14.668,5.941 -3.582,3.567 -8.691,3.668 -15.035,-2.273 0,0 27.899,-20.121 0.363,-42.137 L 310,683.691 c 0,0 11.094,7.536 27.359,7.536 42.813,0 52.739,-46.793 119.344,-46.793 36.481,0 57.496,29.742 57.496,51.945 0,22.605 -17.441,27.754 -17.047,42.422 z M 266.77,692.797 c -2.383,-2.371 -13.875,-12.68 -15.075,-10.297 -1.183,2.371 -5.941,10.688 2.383,13.867 0,0 15.067,-1.195 12.692,-3.57 z m 44.406,21.348 c -2.77,4.003 -9.906,2.382 -9.906,2.382 0,0 3.07,8.844 -3.961,12.7 -8.723,4.773 -22.996,-6.719 -30.93,-15.454 l -1.992,0.782 c 0,0 23.394,34.898 -5.547,54.711 -0.477,0.324 -37.668,-43.672 -34.895,-71.317 1.192,-11.84 7.133,-13.879 7.133,-22.207 0,-8.324 -14.668,-8.277 -11.488,-15.461 3.051,-6.933 13.48,-4.816 18.633,-3.226 5.156,1.586 27.004,10.8 34.886,22.621 1.594,2.383 4.766,3.945 6.348,3.144 1.59,-0.789 2.777,-2.769 1.195,-5.539 -1.586,-2.785 -3.843,-13.48 -43.625,-28.508 -5.156,-1.941 9.559,-4.839 18,-3.714 11.692,1.543 37.918,13.972 50.207,33.402 l -9.906,6.344 c 0,0 26.465,14.09 15.848,29.34" /><path
         id="path188"
         style="fill:#b20d35;fill-opacity:1;fill-rule:nonzero;stroke:none"
         d="M 699.055,828.258 H 32.1563 V 611.891 H 699.055 v 216.367" /><path
         id="path190"
         style="fill:#18468b;fill-opacity:1;fill-rule:nonzero;stroke:none"
         d="m 556.66,778.164 h -9.926 c 0,0 -23.046,-11.973 -8.414,-36.516 v -41.156 c 0,0 -14.48,-14.633 0,-30.633 v -18.293 h 147.7 v 18.594 c 0,0 14.628,12.043 0.152,30.18 v 41.004 c 0,0 15.547,22.562 -8.688,37.039 h -9.3 c 0,0 -18.289,22.258 -55.938,7.472 0,0 -32.226,14.954 -55.586,-7.691" /><path
         id="path192"
         style="fill:#18468b;fill-opacity:1;fill-rule:nonzero;stroke:none"
         d="m 64.0195,778.164 h -9.9257 c 0,0 -23.043,-11.973 -8.4102,-36.516 v -41.156 c 0,0 -14.4766,-14.633 0,-30.633 V 651.566 H 193.383 v 18.594 c 0,0 14.637,12.043 0.152,30.18 v 41.004 c 0,0 15.547,22.562 -8.687,37.039 h -9.297 c 0,0 -18.289,22.258 -55.942,7.472 0,0 -32.2262,14.954 -55.5895,-7.691" /><path
         id="path194"
         style="fill:#18468b;fill-opacity:1;fill-rule:nonzero;stroke:none"
         d="m 253.297,774.809 c -1.203,-2.379 -53.649,-63.121 -31.727,-95.954 2.383,-3.566 1.985,-3.566 -0.8,-5.16 -2.774,-1.582 -10.305,-7.867 -8.325,-14.215 4.157,-13.292 11.434,-8.402 21.418,-16.648 9.117,-7.531 39.438,-8.984 72.563,27.305 41.64,45.601 82.129,-35.25 149.488,-32.907 45.606,1.579 65.027,36.868 65.027,59.075 0,3.968 0.653,14.05 -12.687,33.312 -10.711,15.449 9.914,37.266 12.297,42.031 2.254,4.504 -49.567,25.77 -48.371,-35.687 0,0 -42.832,-4.266 -24.2,-53.031 1.79,-4.688 11.887,10.699 20.211,15.859 8.336,5.156 16.657,6.348 21.418,-2.094 6.461,-11.433 -28.14,-48.757 -54.32,-12.683 0,0 12.289,19.426 -4.359,32.918 0,0 6.742,19.422 -9.91,21.406 0,0 0.8,22.605 -18.231,22.207 0,0 -2.383,14.266 -19.039,11.105 0,0 -3.18,19.024 -23.395,12.286 0,0 -9.515,20.617 -31.324,5.949 0,0 -8.722,17.84 -27.761,2.781 0,0 -15.469,17.043 -39.649,-7.148 0,0 -2.383,8.332 -4.762,2.785 -2.382,-5.551 -0.789,-7.926 -3.562,-13.492" /><path
         id="path196"
         style="fill:#ffffff;fill-opacity:1;fill-rule:nonzero;stroke:none"
         d="M 32.168,600.301 V 438.465 c 0,0 16.6601,-67.914 49.1054,-125.332 L 368.375,589.559 657.906,313.754 c 0,0 41.192,95.68 41.192,127.238 0,33.715 0,159.801 0,159.801 l -666.93,-0.492" /><path
         id="path198"
         style="fill:#ffffff;fill-opacity:1;fill-rule:nonzero;stroke:none"
         d="m 422.523,447.652 c 0,-27.257 -22.078,-49.347 -49.343,-49.347 -27.246,0 -49.352,22.09 -49.352,49.347 0,27.254 22.106,49.344 49.352,49.344 27.265,0 49.343,-22.09 49.343,-49.344" /><path
         id="path200"
         style="fill:#ffffff;fill-opacity:1;fill-rule:nonzero;stroke:none"
         d="m 576.137,309.824 c 0,-27.258 -22.09,-49.351 -49.344,-49.351 -27.258,0 -49.348,22.093 -49.348,49.351 0,27.25 22.09,49.348 49.348,49.348 27.254,0 49.344,-22.098 49.344,-49.348" /><path
         id="path202"
         style="fill:#ffffff;fill-opacity:1;fill-rule:nonzero;stroke:none"
         d="m 267.039,309.277 c 0,-27.257 -22.09,-49.347 -49.344,-49.347 -27.257,0 -49.343,22.09 -49.343,49.347 0,27.254 22.086,49.352 49.343,49.352 27.254,0 49.344,-22.098 49.344,-49.352" /><path
         id="path204"
         style="fill:#ffffff;fill-opacity:1;fill-rule:nonzero;stroke:none"
         d="m 189.766,168.523 c 0,0 86.64,-82.1558 180.808,-118.2808 0,0 81.367,27.1289 179.305,115.2698 L 369.07,342.555 189.766,168.523" /><path
         id="path206"
         style="fill:#ffffff;fill-opacity:1;fill-rule:nonzero;stroke:none"
         d="m 608.434,687.234 v 92.063 c 0,0 -29.262,11.277 -46.493,-6.856 v -86.886 c 0,0 24.243,7.011 46.493,1.679 z m 53.867,-1.679 v 86.886 c -17.227,18.133 -46.488,6.856 -46.488,6.856 l 0.089,-92.063 c 22.258,5.332 46.399,-1.679 46.399,-1.679 z m 16.398,11.742 v 46.488 c 0,0 13.571,15.848 -3.195,27.285 h -5.188 v -95.113 h -45.418 l -11.738,-4.883 -11.281,4.727 h -47.402 l -0.153,95.269 h -5.336 c 0,0 -16.156,-9.757 -3.203,-27.285 l 0.156,-46.488 c 0,0 -14.785,-12.043 -0.304,-24.082 v -14.184 h 133.062 v 14.184 c 0,0 14.938,10.359 0,24.082" /><path
         id="path208"
         style="fill:#ffffff;fill-opacity:1;fill-rule:nonzero;stroke:none"
         d="m 115.801,687.234 v 92.063 c 0,0 -29.2658,11.277 -46.4885,-6.856 v -86.886 c 0,0 24.2305,7.011 46.4885,1.679 z m 53.863,-1.679 v 86.886 c -17.226,18.133 -46.488,6.856 -46.488,6.856 l 0.09,-92.063 c 22.257,5.332 46.398,-1.679 46.398,-1.679 z m 16.406,11.742 v 46.488 c 0,0 13.563,15.848 -3.203,27.285 h -5.179 v -95.113 h -45.426 l -11.739,-4.883 -11.281,4.727 H 61.8398 l -0.1484,95.269 h -5.3398 c 0,0 -16.1563,-9.757 -3.1953,-27.285 l 0.1484,-46.488 c 0,0 -14.7852,-12.043 -0.3008,-24.082 V 659.031 H 186.07 v 14.184 c 0,0 14.938,10.359 0,24.082" /><path
         id="path210"
         style="fill:#ffffff;fill-opacity:1;fill-rule:nonzero;stroke:none"
         d="m 274.301,767.383 c 0,0 112.691,34.371 149.492,-67.012 1.656,-4.57 3.316,-4.84 4.09,-4.449 1.262,0.641 5.027,13.957 -6.082,17.531 0,0 4.762,16.649 -11.891,19.422 0,0 3.969,22.617 -18.23,19.836 0,0 1.179,13.879 -16.266,9.516 0,0 -1.59,21.015 -24.984,10.308 0,0 -5.547,18.633 -26.16,5.156 0,0 -11.911,19.832 -28.161,-0.402 0,0 -9.91,20.617 -30.921,0.797 0,0 7.921,-7.145 9.113,-10.703 z m 222.851,-28.582 c 0.391,14.672 9.547,25.437 12.692,29.742 3.164,4.363 -34.5,15.07 -29.742,-38.859 0,0 -38.524,3.078 -29.34,-38.059 0.781,-3.543 11.488,18.262 28.148,18.234 15.067,-0.019 18.242,-10.711 18.242,-16.652 0,-5.945 -5.148,-31.723 -39.257,-31.723 -34.102,0 -43.625,76.133 -91.606,94.77 -47.973,18.633 -88.023,4.762 -88.023,4.762 0,0 4.754,-14.278 1.589,-27.36 0,0 8.708,2.809 16.485,0.832 0,0 16.848,22.91 31.094,0.352 4.757,-7.527 15.832,3.617 21.011,1.59 9.118,-3.575 6.746,-16.645 13.883,-15.453 0,0 14.258,3.324 15.461,-8.336 1.191,-11.489 8.727,-5.543 12.289,-10.305 3.574,-4.758 4.762,-8.727 4.762,-11.91 l -6.344,-2.375 c 0,0 -1.183,10.738 -6.742,11.519 -5.832,0.821 -6.75,-2.004 -9.117,8.313 -2.371,10.301 -17.055,1.976 -22.61,10.703 -5.547,8.727 -6.726,10.707 -15.453,6.746 -8.722,-3.965 -12.879,4.148 -14.668,5.941 -3.582,3.567 -8.691,3.668 -15.035,-2.273 0,0 27.899,-20.121 0.363,-42.137 L 310,683.691 c 0,0 11.094,7.536 27.359,7.536 42.813,0 52.739,-46.793 119.344,-46.793 36.481,0 57.496,29.742 57.496,51.945 0,22.605 -17.441,27.754 -17.047,42.422 z M 266.77,692.797 c -2.383,-2.371 -13.875,-12.68 -15.075,-10.297 -1.183,2.371 -5.941,10.688 2.383,13.867 0,0 15.067,-1.195 12.692,-3.57 z m 44.406,21.348 c -2.77,4.003 -9.906,2.382 -9.906,2.382 0,0 3.07,8.844 -3.961,12.7 -8.723,4.773 -22.996,-6.719 -30.93,-15.454 l -1.992,0.782 c 0,0 23.394,34.898 -5.547,54.711 -0.477,0.324 -37.668,-43.672 -34.895,-71.317 1.192,-11.84 7.133,-13.879 7.133,-22.207 0,-8.324 -14.668,-8.277 -11.488,-15.461 3.051,-6.933 13.48,-4.816 18.633,-3.226 5.156,1.586 27.004,10.8 34.886,22.621 1.594,2.383 4.766,3.945 6.348,3.144 1.59,-0.789 2.777,-2.769 1.195,-5.539 -1.586,-2.785 -3.843,-13.48 -43.625,-28.508 -5.156,-1.941 9.559,-4.839 18,-3.714 11.692,1.543 37.918,13.972 50.207,33.402 l -9.906,6.344 c 0,0 26.465,14.09 15.848,29.34" /><path
         id="path212"
         style="fill:#18468b;fill-opacity:1;fill-rule:nonzero;stroke:none"
         d="M 17.6914,840.41 V 434.809 c 0,0 52.4141,-270.821 351.9336,-400.6098 0,0 285.785,97.3438 343.191,404.3558 V 840.41 H 17.6914" /><path
         id="path214"
         style="fill:#b20d35;fill-opacity:1;fill-rule:nonzero;stroke:none"
         d="M 699.055,828.258 H 32.1563 V 611.891 H 699.055 v 216.367" /><path
         id="path216"
         style="fill:#18468b;fill-opacity:1;fill-rule:nonzero;stroke:none"
         d="m 556.66,778.164 h -9.926 c 0,0 -23.046,-11.973 -8.414,-36.516 v -41.156 c 0,0 -14.48,-14.633 0,-30.633 v -18.293 h 147.7 v 18.594 c 0,0 14.628,12.043 0.152,30.18 v 41.004 c 0,0 15.547,22.562 -8.688,37.039 h -9.3 c 0,0 -18.289,22.258 -55.938,7.472 0,0 -32.226,14.954 -55.586,-7.691" /><path
         id="path218"
         style="fill:#18468b;fill-opacity:1;fill-rule:nonzero;stroke:none"
         d="m 64.0195,778.164 h -9.9257 c 0,0 -23.043,-11.973 -8.4102,-36.516 v -41.156 c 0,0 -14.4766,-14.633 0,-30.633 V 651.566 H 193.383 v 18.594 c 0,0 14.637,12.043 0.152,30.18 v 41.004 c 0,0 15.547,22.562 -8.687,37.039 h -9.297 c 0,0 -18.289,22.258 -55.942,7.472 0,0 -32.2262,14.954 -55.5895,-7.691" /><path
         id="path220"
         style="fill:#18468b;fill-opacity:1;fill-rule:nonzero;stroke:none"
         d="m 253.297,774.809 c -1.203,-2.379 -53.649,-63.121 -31.727,-95.954 2.383,-3.566 1.985,-3.566 -0.8,-5.16 -2.774,-1.582 -10.305,-7.867 -8.325,-14.215 4.157,-13.292 11.434,-8.402 21.418,-16.648 9.117,-7.531 39.438,-8.984 72.563,27.305 41.64,45.601 82.129,-35.25 149.488,-32.907 45.606,1.579 65.027,36.868 65.027,59.075 0,3.968 0.653,14.05 -12.687,33.312 -10.711,15.449 9.914,37.266 12.297,42.031 2.254,4.504 -49.567,25.77 -48.371,-35.687 0,0 -42.832,-4.266 -24.2,-53.031 1.79,-4.688 11.887,10.699 20.211,15.859 8.336,5.156 16.657,6.348 21.418,-2.094 6.461,-11.433 -28.14,-48.757 -54.32,-12.683 0,0 12.289,19.426 -4.359,32.918 0,0 6.742,19.422 -9.91,21.406 0,0 0.8,22.605 -18.231,22.207 0,0 -2.383,14.266 -19.039,11.105 0,0 -3.18,19.024 -23.395,12.286 0,0 -9.515,20.617 -31.324,5.949 0,0 -8.722,17.84 -27.761,2.781 0,0 -15.469,17.043 -39.649,-7.148 0,0 -2.383,8.332 -4.762,2.785 -2.382,-5.551 -0.789,-7.926 -3.562,-13.492" /><path
         id="path222"
         style="fill:#ffffff;fill-opacity:1;fill-rule:nonzero;stroke:none"
         d="M 32.168,600.301 V 438.465 c 0,0 16.6601,-67.914 49.1054,-125.332 L 368.375,589.559 657.906,313.754 c 0,0 41.192,95.68 41.192,127.238 0,33.715 0,159.801 0,159.801 l -666.93,-0.492" /><path
         id="path224"
         style="fill:#ffffff;fill-opacity:1;fill-rule:nonzero;stroke:none"
         d="m 422.523,447.652 c 0,-27.257 -22.078,-49.347 -49.343,-49.347 -27.246,0 -49.352,22.09 -49.352,49.347 0,27.254 22.106,49.344 49.352,49.344 27.265,0 49.343,-22.09 49.343,-49.344" /><path
         id="path226"
         style="fill:#ffffff;fill-opacity:1;fill-rule:nonzero;stroke:none"
         d="m 576.137,309.824 c 0,-27.258 -22.09,-49.351 -49.344,-49.351 -27.258,0 -49.348,22.093 -49.348,49.351 0,27.25 22.09,49.348 49.348,49.348 27.254,0 49.344,-22.098 49.344,-49.348" /><path
         id="path228"
         style="fill:#ffffff;fill-opacity:1;fill-rule:nonzero;stroke:none"
         d="m 267.039,309.277 c 0,-27.257 -22.09,-49.347 -49.344,-49.347 -27.257,0 -49.343,22.09 -49.343,49.347 0,27.254 22.086,49.352 49.343,49.352 27.254,0 49.344,-22.098 49.344,-49.352" /><path
         id="path230"
         style="fill:#ffffff;fill-opacity:1;fill-rule:nonzero;stroke:none"
         d="m 189.766,168.523 c 0,0 86.64,-82.1558 180.808,-118.2808 0,0 81.367,27.1289 179.305,115.2698 L 369.07,342.555 189.766,168.523" /><path
         id="path232"
         style="fill:#ffffff;fill-opacity:1;fill-rule:nonzero;stroke:none"
         d="m 608.434,687.234 v 92.063 c 0,0 -29.262,11.277 -46.493,-6.856 v -86.886 c 0,0 24.243,7.011 46.493,1.679 z m 53.867,-1.679 v 86.886 c -17.227,18.133 -46.488,6.856 -46.488,6.856 l 0.089,-92.063 c 22.258,5.332 46.399,-1.679 46.399,-1.679 z m 16.398,11.742 v 46.488 c 0,0 13.571,15.848 -3.195,27.285 h -5.188 v -95.113 h -45.418 l -11.738,-4.883 -11.281,4.727 h -47.402 l -0.153,95.269 h -5.336 c 0,0 -16.156,-9.757 -3.203,-27.285 l 0.156,-46.488 c 0,0 -14.785,-12.043 -0.304,-24.082 v -14.184 h 133.062 v 14.184 c 0,0 14.938,10.359 0,24.082" /><path
         id="path234"
         style="fill:#ffffff;fill-opacity:1;fill-rule:nonzero;stroke:none"
         d="m 115.801,687.234 v 92.063 c 0,0 -29.2658,11.277 -46.4885,-6.856 v -86.886 c 0,0 24.2305,7.011 46.4885,1.679 z m 53.863,-1.679 v 86.886 c -17.226,18.133 -46.488,6.856 -46.488,6.856 l 0.09,-92.063 c 22.257,5.332 46.398,-1.679 46.398,-1.679 z m 16.406,11.742 v 46.488 c 0,0 13.563,15.848 -3.203,27.285 h -5.179 v -95.113 h -45.426 l -11.739,-4.883 -11.281,4.727 H 61.8398 l -0.1484,95.269 h -5.3398 c 0,0 -16.1563,-9.757 -3.1953,-27.285 l 0.1484,-46.488 c 0,0 -14.7852,-12.043 -0.3008,-24.082 V 659.031 H 186.07 v 14.184 c 0,0 14.938,10.359 0,24.082" /><path
         id="path236"
         style="fill:#ffffff;fill-opacity:1;fill-rule:nonzero;stroke:none"
         d="m 274.301,767.383 c 0,0 112.691,34.371 149.492,-67.012 1.656,-4.57 3.316,-4.84 4.09,-4.449 1.262,0.641 5.027,13.957 -6.082,17.531 0,0 4.762,16.649 -11.891,19.422 0,0 3.969,22.617 -18.23,19.836 0,0 1.179,13.879 -16.266,9.516 0,0 -1.59,21.015 -24.984,10.308 0,0 -5.547,18.633 -26.16,5.156 0,0 -11.911,19.832 -28.161,-0.402 0,0 -9.91,20.617 -30.921,0.797 0,0 7.921,-7.145 9.113,-10.703 z m 222.851,-28.582 c 0.391,14.672 9.547,25.437 12.692,29.742 3.164,4.363 -34.5,15.07 -29.742,-38.859 0,0 -38.524,3.078 -29.34,-38.059 0.781,-3.543 11.488,18.262 28.148,18.234 15.067,-0.019 18.242,-10.711 18.242,-16.652 0,-5.945 -5.148,-31.723 -39.257,-31.723 -34.102,0 -43.625,76.133 -91.606,94.77 -47.973,18.633 -88.023,4.762 -88.023,4.762 0,0 4.754,-14.278 1.589,-27.36 0,0 8.708,2.809 16.485,0.832 0,0 16.848,22.91 31.094,0.352 4.757,-7.527 15.832,3.617 21.011,1.59 9.118,-3.575 6.746,-16.645 13.883,-15.453 0,0 14.258,3.324 15.461,-8.336 1.191,-11.489 8.727,-5.543 12.289,-10.305 3.574,-4.758 4.762,-8.727 4.762,-11.91 l -6.344,-2.375 c 0,0 -1.183,10.738 -6.742,11.519 -5.832,0.821 -6.75,-2.004 -9.117,8.313 -2.371,10.301 -17.055,1.976 -22.61,10.703 -5.547,8.727 -6.726,10.707 -15.453,6.746 -8.722,-3.965 -12.879,4.148 -14.668,5.941 -3.582,3.567 -8.691,3.668 -15.035,-2.273 0,0 27.899,-20.121 0.363,-42.137 L 310,683.691 c 0,0 11.094,7.536 27.359,7.536 42.813,0 52.739,-46.793 119.344,-46.793 36.481,0 57.496,29.742 57.496,51.945 0,22.605 -17.441,27.754 -17.047,42.422 z M 266.77,692.797 c -2.383,-2.371 -13.875,-12.68 -15.075,-10.297 -1.183,2.371 -5.941,10.688 2.383,13.867 0,0 15.067,-1.195 12.692,-3.57 z m 44.406,21.348 c -2.77,4.003 -9.906,2.382 -9.906,2.382 0,0 3.07,8.844 -3.961,12.7 -8.723,4.773 -22.996,-6.719 -30.93,-15.454 l -1.992,0.782 c 0,0 23.394,34.898 -5.547,54.711 -0.477,0.324 -37.668,-43.672 -34.895,-71.317 1.192,-11.84 7.133,-13.879 7.133,-22.207 0,-8.324 -14.668,-8.277 -11.488,-15.461 3.051,-6.933 13.48,-4.816 18.633,-3.226 5.156,1.586 27.004,10.8 34.886,22.621 1.594,2.383 4.766,3.945 6.348,3.144 1.59,-0.789 2.777,-2.769 1.195,-5.539 -1.586,-2.785 -3.843,-13.48 -43.625,-28.508 -5.156,-1.941 9.559,-4.839 18,-3.714 11.692,1.543 37.918,13.972 50.207,33.402 l -9.906,6.344 c 0,0 26.465,14.09 15.848,29.34" /><path
         id="path238"
         style="fill:#b20d35;fill-opacity:1;fill-rule:nonzero;stroke:none"
         d="M 699.055,828.258 H 32.1563 V 611.891 H 699.055 v 216.367" /><path
         id="path240"
         style="fill:#18468b;fill-opacity:1;fill-rule:nonzero;stroke:none"
         d="m 556.66,778.164 h -9.926 c 0,0 -23.046,-11.973 -8.414,-36.516 v -41.156 c 0,0 -14.48,-14.633 0,-30.633 v -18.293 h 147.7 v 18.594 c 0,0 14.628,12.043 0.152,30.18 v 41.004 c 0,0 15.547,22.562 -8.688,37.039 h -9.3 c 0,0 -18.289,22.258 -55.938,7.472 0,0 -32.226,14.954 -55.586,-7.691" /><path
         id="path242"
         style="fill:#18468b;fill-opacity:1;fill-rule:nonzero;stroke:none"
         d="m 64.0195,778.164 h -9.9257 c 0,0 -23.043,-11.973 -8.4102,-36.516 v -41.156 c 0,0 -14.4766,-14.633 0,-30.633 V 651.566 H 193.383 v 18.594 c 0,0 14.637,12.043 0.152,30.18 v 41.004 c 0,0 15.547,22.562 -8.687,37.039 h -9.297 c 0,0 -18.289,22.258 -55.942,7.472 0,0 -32.2262,14.954 -55.5895,-7.691" /><path
         id="path244"
         style="fill:#18468b;fill-opacity:1;fill-rule:nonzero;stroke:none"
         d="m 253.297,774.809 c -1.203,-2.379 -53.649,-63.121 -31.727,-95.954 2.383,-3.566 1.985,-3.566 -0.8,-5.16 -2.774,-1.582 -10.305,-7.867 -8.325,-14.215 4.157,-13.292 11.434,-8.402 21.418,-16.648 9.117,-7.531 39.438,-8.984 72.563,27.305 41.64,45.601 82.129,-35.25 149.488,-32.907 45.606,1.579 65.027,36.868 65.027,59.075 0,3.968 0.653,14.05 -12.687,33.312 -10.711,15.449 9.914,37.266 12.297,42.031 2.254,4.504 -49.567,25.77 -48.371,-35.687 0,0 -42.832,-4.266 -24.2,-53.031 1.79,-4.688 11.887,10.699 20.211,15.859 8.336,5.156 16.657,6.348 21.418,-2.094 6.461,-11.433 -28.14,-48.757 -54.32,-12.683 0,0 12.289,19.426 -4.359,32.918 0,0 6.742,19.422 -9.91,21.406 0,0 0.8,22.605 -18.231,22.207 0,0 -2.383,14.266 -19.039,11.105 0,0 -3.18,19.024 -23.395,12.286 0,0 -9.515,20.617 -31.324,5.949 0,0 -8.722,17.84 -27.761,2.781 0,0 -15.469,17.043 -39.649,-7.148 0,0 -2.383,8.332 -4.762,2.785 -2.382,-5.551 -0.789,-7.926 -3.562,-13.492" /><path
         id="path246"
         style="fill:#ffffff;fill-opacity:1;fill-rule:nonzero;stroke:none"
         d="M 32.168,600.301 V 438.465 c 0,0 16.6601,-67.914 49.1054,-125.332 L 368.375,589.559 657.906,313.754 c 0,0 41.192,95.68 41.192,127.238 0,33.715 0,159.801 0,159.801 l -666.93,-0.492" /><path
         id="path248"
         style="fill:#ffffff;fill-opacity:1;fill-rule:nonzero;stroke:none"
         d="m 422.523,447.652 c 0,-27.257 -22.078,-49.347 -49.343,-49.347 -27.246,0 -49.352,22.09 -49.352,49.347 0,27.254 22.106,49.344 49.352,49.344 27.265,0 49.343,-22.09 49.343,-49.344" /><path
         id="path250"
         style="fill:#ffffff;fill-opacity:1;fill-rule:nonzero;stroke:none"
         d="m 576.137,309.824 c 0,-27.258 -22.09,-49.351 -49.344,-49.351 -27.258,0 -49.348,22.093 -49.348,49.351 0,27.25 22.09,49.348 49.348,49.348 27.254,0 49.344,-22.098 49.344,-49.348" /><path
         id="path252"
         style="fill:#ffffff;fill-opacity:1;fill-rule:nonzero;stroke:none"
         d="m 267.039,309.277 c 0,-27.257 -22.09,-49.347 -49.344,-49.347 -27.257,0 -49.343,22.09 -49.343,49.347 0,27.254 22.086,49.352 49.343,49.352 27.254,0 49.344,-22.098 49.344,-49.352" /><path
         id="path254"
         style="fill:#ffffff;fill-opacity:1;fill-rule:nonzero;stroke:none"
         d="m 189.766,168.523 c 0,0 86.64,-82.1558 180.808,-118.2808 0,0 81.367,27.1289 179.305,115.2698 L 369.07,342.555 189.766,168.523" /><path
         id="path256"
         style="fill:#ffffff;fill-opacity:1;fill-rule:nonzero;stroke:none"
         d="m 608.434,687.234 v 92.063 c 0,0 -29.262,11.277 -46.493,-6.856 v -86.886 c 0,0 24.243,7.011 46.493,1.679 z m 53.867,-1.679 v 86.886 c -17.227,18.133 -46.488,6.856 -46.488,6.856 l 0.089,-92.063 c 22.258,5.332 46.399,-1.679 46.399,-1.679 z m 16.398,11.742 v 46.488 c 0,0 13.571,15.848 -3.195,27.285 h -5.188 v -95.113 h -45.418 l -11.738,-4.883 -11.281,4.727 h -47.402 l -0.153,95.269 h -5.336 c 0,0 -16.156,-9.757 -3.203,-27.285 l 0.156,-46.488 c 0,0 -14.785,-12.043 -0.304,-24.082 v -14.184 h 133.062 v 14.184 c 0,0 14.938,10.359 0,24.082" /><path
         id="path258"
         style="fill:#ffffff;fill-opacity:1;fill-rule:nonzero;stroke:none"
         d="m 115.801,687.234 v 92.063 c 0,0 -29.2658,11.277 -46.4885,-6.856 v -86.886 c 0,0 24.2305,7.011 46.4885,1.679 z m 53.863,-1.679 v 86.886 c -17.226,18.133 -46.488,6.856 -46.488,6.856 l 0.09,-92.063 c 22.257,5.332 46.398,-1.679 46.398,-1.679 z m 16.406,11.742 v 46.488 c 0,0 13.563,15.848 -3.203,27.285 h -5.179 v -95.113 h -45.426 l -11.739,-4.883 -11.281,4.727 H 61.8398 l -0.1484,95.269 h -5.3398 c 0,0 -16.1563,-9.757 -3.1953,-27.285 l 0.1484,-46.488 c 0,0 -14.7852,-12.043 -0.3008,-24.082 V 659.031 H 186.07 v 14.184 c 0,0 14.938,10.359 0,24.082" /><path
         id="path260"
         style="fill:#ffffff;fill-opacity:1;fill-rule:nonzero;stroke:none"
         d="m 274.301,767.383 c 0,0 112.691,34.371 149.492,-67.012 1.656,-4.57 3.316,-4.84 4.09,-4.449 1.262,0.641 5.027,13.957 -6.082,17.531 0,0 4.762,16.649 -11.891,19.422 0,0 3.969,22.617 -18.23,19.836 0,0 1.179,13.879 -16.266,9.516 0,0 -1.59,21.015 -24.984,10.308 0,0 -5.547,18.633 -26.16,5.156 0,0 -11.911,19.832 -28.161,-0.402 0,0 -9.91,20.617 -30.921,0.797 0,0 7.921,-7.145 9.113,-10.703 z m 222.851,-28.582 c 0.391,14.672 9.547,25.437 12.692,29.742 3.164,4.363 -34.5,15.07 -29.742,-38.859 0,0 -38.524,3.078 -29.34,-38.059 0.781,-3.543 11.488,18.262 28.148,18.234 15.067,-0.019 18.242,-10.711 18.242,-16.652 0,-5.945 -5.148,-31.723 -39.257,-31.723 -34.102,0 -43.625,76.133 -91.606,94.77 -47.973,18.633 -88.023,4.762 -88.023,4.762 0,0 4.754,-14.278 1.589,-27.36 0,0 8.708,2.809 16.485,0.832 0,0 16.848,22.91 31.094,0.352 4.757,-7.527 15.832,3.617 21.011,1.59 9.118,-3.575 6.746,-16.645 13.883,-15.453 0,0 14.258,3.324 15.461,-8.336 1.191,-11.489 8.727,-5.543 12.289,-10.305 3.574,-4.758 4.762,-8.727 4.762,-11.91 l -6.344,-2.375 c 0,0 -1.183,10.738 -6.742,11.519 -5.832,0.821 -6.75,-2.004 -9.117,8.313 -2.371,10.301 -17.055,1.976 -22.61,10.703 -5.547,8.727 -6.726,10.707 -15.453,6.746 -8.722,-3.965 -12.879,4.148 -14.668,5.941 -3.582,3.567 -8.691,3.668 -15.035,-2.273 0,0 27.899,-20.121 0.363,-42.137 L 310,683.691 c 0,0 11.094,7.536 27.359,7.536 42.813,0 52.739,-46.793 119.344,-46.793 36.481,0 57.496,29.742 57.496,51.945 0,22.605 -17.441,27.754 -17.047,42.422 z M 266.77,692.797 c -2.383,-2.371 -13.875,-12.68 -15.075,-10.297 -1.183,2.371 -5.941,10.688 2.383,13.867 0,0 15.067,-1.195 12.692,-3.57 z m 44.406,21.348 c -2.77,4.003 -9.906,2.382 -9.906,2.382 0,0 3.07,8.844 -3.961,12.7 -8.723,4.773 -22.996,-6.719 -30.93,-15.454 l -1.992,0.782 c 0,0 23.394,34.898 -5.547,54.711 -0.477,0.324 -37.668,-43.672 -34.895,-71.317 1.192,-11.84 7.133,-13.879 7.133,-22.207 0,-8.324 -14.668,-8.277 -11.488,-15.461 3.051,-6.933 13.48,-4.816 18.633,-3.226 5.156,1.586 27.004,10.8 34.886,22.621 1.594,2.383 4.766,3.945 6.348,3.144 1.59,-0.789 2.777,-2.769 1.195,-5.539 -1.586,-2.785 -3.843,-13.48 -43.625,-28.508 -5.156,-1.941 9.559,-4.839 18,-3.714 11.692,1.543 37.918,13.972 50.207,33.402 l -9.906,6.344 c 0,0 26.465,14.09 15.848,29.34" /><path
         id="path262"
         style="fill:#b20d35;fill-opacity:1;fill-rule:nonzero;stroke:none"
         d="M 699.055,828.258 H 32.1563 V 611.891 H 699.055 v 216.367" /><path
         id="path264"
         style="fill:#18468b;fill-opacity:1;fill-rule:nonzero;stroke:none"
         d="m 556.66,778.164 h -9.926 c 0,0 -23.046,-11.973 -8.414,-36.516 v -41.156 c 0,0 -14.48,-14.633 0,-30.633 v -18.293 h 147.7 v 18.594 c 0,0 14.628,12.043 0.152,30.18 v 41.004 c 0,0 15.547,22.562 -8.688,37.039 h -9.3 c 0,0 -18.289,22.258 -55.938,7.472 0,0 -32.226,14.954 -55.586,-7.691" /><path
         id="path266"
         style="fill:#18468b;fill-opacity:1;fill-rule:nonzero;stroke:none"
         d="m 64.0195,778.164 h -9.9257 c 0,0 -23.043,-11.973 -8.4102,-36.516 v -41.156 c 0,0 -14.4766,-14.633 0,-30.633 V 651.566 H 193.383 v 18.594 c 0,0 14.637,12.043 0.152,30.18 v 41.004 c 0,0 15.547,22.562 -8.687,37.039 h -9.297 c 0,0 -18.289,22.258 -55.942,7.472 0,0 -32.2262,14.954 -55.5895,-7.691" /><path
         id="path268"
         style="fill:#18468b;fill-opacity:1;fill-rule:nonzero;stroke:none"
         d="m 253.297,774.809 c -1.203,-2.379 -53.649,-63.121 -31.727,-95.954 2.383,-3.566 1.985,-3.566 -0.8,-5.16 -2.774,-1.582 -10.305,-7.867 -8.325,-14.215 4.157,-13.292 11.434,-8.402 21.418,-16.648 9.117,-7.531 39.438,-8.984 72.563,27.305 41.64,45.601 82.129,-35.25 149.488,-32.907 45.606,1.579 65.027,36.868 65.027,59.075 0,3.968 0.653,14.05 -12.687,33.312 -10.711,15.449 9.914,37.266 12.297,42.031 2.254,4.504 -49.567,25.77 -48.371,-35.687 0,0 -42.832,-4.266 -24.2,-53.031 1.79,-4.688 11.887,10.699 20.211,15.859 8.336,5.156 16.657,6.348 21.418,-2.094 6.461,-11.433 -28.14,-48.757 -54.32,-12.683 0,0 12.289,19.426 -4.359,32.918 0,0 6.742,19.422 -9.91,21.406 0,0 0.8,22.605 -18.231,22.207 0,0 -2.383,14.266 -19.039,11.105 0,0 -3.18,19.024 -23.395,12.286 0,0 -9.515,20.617 -31.324,5.949 0,0 -8.722,17.84 -27.761,2.781 0,0 -15.469,17.043 -39.649,-7.148 0,0 -2.383,8.332 -4.762,2.785 -2.382,-5.551 -0.789,-7.926 -3.562,-13.492" /><path
         id="path270"
         style="fill:#ffffff;fill-opacity:1;fill-rule:nonzero;stroke:none"
         d="M 32.168,600.301 V 438.465 c 0,0 16.6601,-67.914 49.1054,-125.332 L 368.375,589.559 657.906,313.754 c 0,0 41.192,95.68 41.192,127.238 0,33.715 0,159.801 0,159.801 l -666.93,-0.492" /><path
         id="path272"
         style="fill:#ffffff;fill-opacity:1;fill-rule:nonzero;stroke:none"
         d="m 422.523,447.652 c 0,-27.257 -22.078,-49.347 -49.343,-49.347 -27.246,0 -49.352,22.09 -49.352,49.347 0,27.254 22.106,49.344 49.352,49.344 27.265,0 49.343,-22.09 49.343,-49.344" /><path
         id="path274"
         style="fill:#ffffff;fill-opacity:1;fill-rule:nonzero;stroke:none"
         d="m 576.137,309.824 c 0,-27.258 -22.09,-49.351 -49.344,-49.351 -27.258,0 -49.348,22.093 -49.348,49.351 0,27.25 22.09,49.348 49.348,49.348 27.254,0 49.344,-22.098 49.344,-49.348" /><path
         id="path276"
         style="fill:#ffffff;fill-opacity:1;fill-rule:nonzero;stroke:none"
         d="m 267.039,309.277 c 0,-27.257 -22.09,-49.347 -49.344,-49.347 -27.257,0 -49.343,22.09 -49.343,49.347 0,27.254 22.086,49.352 49.343,49.352 27.254,0 49.344,-22.098 49.344,-49.352" /><path
         id="path278"
         style="fill:#ffffff;fill-opacity:1;fill-rule:nonzero;stroke:none"
         d="m 189.766,168.523 c 0,0 86.64,-82.1558 180.808,-118.2808 0,0 81.367,27.1289 179.305,115.2698 L 369.07,342.555 189.766,168.523" /><path
         id="path280"
         style="fill:#ffffff;fill-opacity:1;fill-rule:nonzero;stroke:none"
         d="m 608.434,687.234 v 92.063 c 0,0 -29.262,11.277 -46.493,-6.856 v -86.886 c 0,0 24.243,7.011 46.493,1.679 z m 53.867,-1.679 v 86.886 c -17.227,18.133 -46.488,6.856 -46.488,6.856 l 0.089,-92.063 c 22.258,5.332 46.399,-1.679 46.399,-1.679 z m 16.398,11.742 v 46.488 c 0,0 13.571,15.848 -3.195,27.285 h -5.188 v -95.113 h -45.418 l -11.738,-4.883 -11.281,4.727 h -47.402 l -0.153,95.269 h -5.336 c 0,0 -16.156,-9.757 -3.203,-27.285 l 0.156,-46.488 c 0,0 -14.785,-12.043 -0.304,-24.082 v -14.184 h 133.062 v 14.184 c 0,0 14.938,10.359 0,24.082" /><path
         id="path282"
         style="fill:#ffffff;fill-opacity:1;fill-rule:nonzero;stroke:none"
         d="m 115.801,687.234 v 92.063 c 0,0 -29.2658,11.277 -46.4885,-6.856 v -86.886 c 0,0 24.2305,7.011 46.4885,1.679 z m 53.863,-1.679 v 86.886 c -17.226,18.133 -46.488,6.856 -46.488,6.856 l 0.09,-92.063 c 22.257,5.332 46.398,-1.679 46.398,-1.679 z m 16.406,11.742 v 46.488 c 0,0 13.563,15.848 -3.203,27.285 h -5.179 v -95.113 h -45.426 l -11.739,-4.883 -11.281,4.727 H 61.8398 l -0.1484,95.269 h -5.3398 c 0,0 -16.1563,-9.757 -3.1953,-27.285 l 0.1484,-46.488 c 0,0 -14.7852,-12.043 -0.3008,-24.082 V 659.031 H 186.07 v 14.184 c 0,0 14.938,10.359 0,24.082" /><path
         id="path284"
         style="fill:#ffffff;fill-opacity:1;fill-rule:nonzero;stroke:none"
         d="m 274.301,767.383 c 0,0 112.691,34.371 149.492,-67.012 1.656,-4.57 3.316,-4.84 4.09,-4.449 1.262,0.641 5.027,13.957 -6.082,17.531 0,0 4.762,16.649 -11.891,19.422 0,0 3.969,22.617 -18.23,19.836 0,0 1.179,13.879 -16.266,9.516 0,0 -1.59,21.015 -24.984,10.308 0,0 -5.547,18.633 -26.16,5.156 0,0 -11.911,19.832 -28.161,-0.402 0,0 -9.91,20.617 -30.921,0.797 0,0 7.921,-7.145 9.113,-10.703 z m 222.851,-28.582 c 0.391,14.672 9.547,25.437 12.692,29.742 3.164,4.363 -34.5,15.07 -29.742,-38.859 0,0 -38.524,3.078 -29.34,-38.059 0.781,-3.543 11.488,18.262 28.148,18.234 15.067,-0.019 18.242,-10.711 18.242,-16.652 0,-5.945 -5.148,-31.723 -39.257,-31.723 -34.102,0 -43.625,76.133 -91.606,94.77 -47.973,18.633 -88.023,4.762 -88.023,4.762 0,0 4.754,-14.278 1.589,-27.36 0,0 8.708,2.809 16.485,0.832 0,0 16.848,22.91 31.094,0.352 4.757,-7.527 15.832,3.617 21.011,1.59 9.118,-3.575 6.746,-16.645 13.883,-15.453 0,0 14.258,3.324 15.461,-8.336 1.191,-11.489 8.727,-5.543 12.289,-10.305 3.574,-4.758 4.762,-8.727 4.762,-11.91 l -6.344,-2.375 c 0,0 -1.183,10.738 -6.742,11.519 -5.832,0.821 -6.75,-2.004 -9.117,8.313 -2.371,10.301 -17.055,1.976 -22.61,10.703 -5.547,8.727 -6.726,10.707 -15.453,6.746 -8.722,-3.965 -12.879,4.148 -14.668,5.941 -3.582,3.567 -8.691,3.668 -15.035,-2.273 0,0 27.899,-20.121 0.363,-42.137 L 310,683.691 c 0,0 11.094,7.536 27.359,7.536 42.813,0 52.739,-46.793 119.344,-46.793 36.481,0 57.496,29.742 57.496,51.945 0,22.605 -17.441,27.754 -17.047,42.422 z M 266.77,692.797 c -2.383,-2.371 -13.875,-12.68 -15.075,-10.297 -1.183,2.371 -5.941,10.688 2.383,13.867 0,0 15.067,-1.195 12.692,-3.57 z m 44.406,21.348 c -2.77,4.003 -9.906,2.382 -9.906,2.382 0,0 3.07,8.844 -3.961,12.7 -8.723,4.773 -22.996,-6.719 -30.93,-15.454 l -1.992,0.782 c 0,0 23.394,34.898 -5.547,54.711 -0.477,0.324 -37.668,-43.672 -34.895,-71.317 1.192,-11.84 7.133,-13.879 7.133,-22.207 0,-8.324 -14.668,-8.277 -11.488,-15.461 3.051,-6.933 13.48,-4.816 18.633,-3.226 5.156,1.586 27.004,10.8 34.886,22.621 1.594,2.383 4.766,3.945 6.348,3.144 1.59,-0.789 2.777,-2.769 1.195,-5.539 -1.586,-2.785 -3.843,-13.48 -43.625,-28.508 -5.156,-1.941 9.559,-4.839 18,-3.714 11.692,1.543 37.918,13.972 50.207,33.402 l -9.906,6.344 c 0,0 26.465,14.09 15.848,29.34" /><path
         id="path286"
         style="fill:#b20d35;fill-opacity:1;fill-rule:nonzero;stroke:none"
         d="M 699.055,828.258 H 32.1563 V 611.891 H 699.055 v 216.367" /><path
         id="path288"
         style="fill:#18468b;fill-opacity:1;fill-rule:nonzero;stroke:none"
         d="m 556.66,778.164 h -9.926 c 0,0 -23.046,-11.973 -8.414,-36.516 v -41.156 c 0,0 -14.48,-14.633 0,-30.633 v -18.293 h 147.7 v 18.594 c 0,0 14.628,12.043 0.152,30.18 v 41.004 c 0,0 15.547,22.562 -8.688,37.039 h -9.3 c 0,0 -18.289,22.258 -55.938,7.472 0,0 -32.226,14.954 -55.586,-7.691" /><path
         id="path290"
         style="fill:#18468b;fill-opacity:1;fill-rule:nonzero;stroke:none"
         d="m 64.0195,778.164 h -9.9257 c 0,0 -23.043,-11.973 -8.4102,-36.516 v -41.156 c 0,0 -14.4766,-14.633 0,-30.633 V 651.566 H 193.383 v 18.594 c 0,0 14.637,12.043 0.152,30.18 v 41.004 c 0,0 15.547,22.562 -8.687,37.039 h -9.297 c 0,0 -18.289,22.258 -55.942,7.472 0,0 -32.2262,14.954 -55.5895,-7.691" /><path
         id="path292"
         style="fill:#18468b;fill-opacity:1;fill-rule:nonzero;stroke:none"
         d="m 253.297,774.809 c -1.203,-2.379 -53.649,-63.121 -31.727,-95.954 2.383,-3.566 1.985,-3.566 -0.8,-5.16 -2.774,-1.582 -10.305,-7.867 -8.325,-14.215 4.157,-13.292 11.434,-8.402 21.418,-16.648 9.117,-7.531 39.438,-8.984 72.563,27.305 41.64,45.601 82.129,-35.25 149.488,-32.907 45.606,1.579 65.027,36.868 65.027,59.075 0,3.968 0.653,14.05 -12.687,33.312 -10.711,15.449 9.914,37.266 12.297,42.031 2.254,4.504 -49.567,25.77 -48.371,-35.687 0,0 -42.832,-4.266 -24.2,-53.031 1.79,-4.688 11.887,10.699 20.211,15.859 8.336,5.156 16.657,6.348 21.418,-2.094 6.461,-11.433 -28.14,-48.757 -54.32,-12.683 0,0 12.289,19.426 -4.359,32.918 0,0 6.742,19.422 -9.91,21.406 0,0 0.8,22.605 -18.231,22.207 0,0 -2.383,14.266 -19.039,11.105 0,0 -3.18,19.024 -23.395,12.286 0,0 -9.515,20.617 -31.324,5.949 0,0 -8.722,17.84 -27.761,2.781 0,0 -15.469,17.043 -39.649,-7.148 0,0 -2.383,8.332 -4.762,2.785 -2.382,-5.551 -0.789,-7.926 -3.562,-13.492" /><path
         id="path294"
         style="fill:#ffffff;fill-opacity:1;fill-rule:nonzero;stroke:none"
         d="M 32.168,600.301 V 438.465 c 0,0 16.6601,-67.914 49.1054,-125.332 L 368.375,589.559 657.906,313.754 c 0,0 41.192,95.68 41.192,127.238 0,33.715 0,159.801 0,159.801 l -666.93,-0.492" /><path
         id="path296"
         style="fill:#ffffff;fill-opacity:1;fill-rule:nonzero;stroke:none"
         d="m 422.523,447.652 c 0,-27.257 -22.078,-49.347 -49.343,-49.347 -27.246,0 -49.352,22.09 -49.352,49.347 0,27.254 22.106,49.344 49.352,49.344 27.265,0 49.343,-22.09 49.343,-49.344" /><path
         id="path298"
         style="fill:#ffffff;fill-opacity:1;fill-rule:nonzero;stroke:none"
         d="m 576.137,309.824 c 0,-27.258 -22.09,-49.351 -49.344,-49.351 -27.258,0 -49.348,22.093 -49.348,49.351 0,27.25 22.09,49.348 49.348,49.348 27.254,0 49.344,-22.098 49.344,-49.348" /><path
         id="path300"
         style="fill:#ffffff;fill-opacity:1;fill-rule:nonzero;stroke:none"
         d="m 267.039,309.277 c 0,-27.257 -22.09,-49.347 -49.344,-49.347 -27.257,0 -49.343,22.09 -49.343,49.347 0,27.254 22.086,49.352 49.343,49.352 27.254,0 49.344,-22.098 49.344,-49.352" /><path
         id="path302"
         style="fill:#ffffff;fill-opacity:1;fill-rule:nonzero;stroke:none"
         d="m 189.766,168.523 c 0,0 86.64,-82.1558 180.808,-118.2808 0,0 81.367,27.1289 179.305,115.2698 L 369.07,342.555 189.766,168.523" /><path
         id="path304"
         style="fill:#ffffff;fill-opacity:1;fill-rule:nonzero;stroke:none"
         d="m 608.434,687.234 v 92.063 c 0,0 -29.262,11.277 -46.493,-6.856 v -86.886 c 0,0 24.243,7.011 46.493,1.679 z m 53.867,-1.679 v 86.886 c -17.227,18.133 -46.488,6.856 -46.488,6.856 l 0.089,-92.063 c 22.258,5.332 46.399,-1.679 46.399,-1.679 z m 16.398,11.742 v 46.488 c 0,0 13.571,15.848 -3.195,27.285 h -5.188 v -95.113 h -45.418 l -11.738,-4.883 -11.281,4.727 h -47.402 l -0.153,95.269 h -5.336 c 0,0 -16.156,-9.757 -3.203,-27.285 l 0.156,-46.488 c 0,0 -14.785,-12.043 -0.304,-24.082 v -14.184 h 133.062 v 14.184 c 0,0 14.938,10.359 0,24.082" /><path
         id="path306"
         style="fill:#ffffff;fill-opacity:1;fill-rule:nonzero;stroke:none"
         d="m 115.801,687.234 v 92.063 c 0,0 -29.2658,11.277 -46.4885,-6.856 v -86.886 c 0,0 24.2305,7.011 46.4885,1.679 z m 53.863,-1.679 v 86.886 c -17.226,18.133 -46.488,6.856 -46.488,6.856 l 0.09,-92.063 c 22.257,5.332 46.398,-1.679 46.398,-1.679 z m 16.406,11.742 v 46.488 c 0,0 13.563,15.848 -3.203,27.285 h -5.179 v -95.113 h -45.426 l -11.739,-4.883 -11.281,4.727 H 61.8398 l -0.1484,95.269 h -5.3398 c 0,0 -16.1563,-9.757 -3.1953,-27.285 l 0.1484,-46.488 c 0,0 -14.7852,-12.043 -0.3008,-24.082 V 659.031 H 186.07 v 14.184 c 0,0 14.938,10.359 0,24.082" /><path
         id="path308"
         style="fill:#ffffff;fill-opacity:1;fill-rule:nonzero;stroke:none"
         d="m 274.301,767.383 c 0,0 112.691,34.371 149.492,-67.012 1.656,-4.57 3.316,-4.84 4.09,-4.449 1.262,0.641 5.027,13.957 -6.082,17.531 0,0 4.762,16.649 -11.891,19.422 0,0 3.969,22.617 -18.23,19.836 0,0 1.179,13.879 -16.266,9.516 0,0 -1.59,21.015 -24.984,10.308 0,0 -5.547,18.633 -26.16,5.156 0,0 -11.911,19.832 -28.161,-0.402 0,0 -9.91,20.617 -30.921,0.797 0,0 7.921,-7.145 9.113,-10.703 z m 222.851,-28.582 c 0.391,14.672 9.547,25.437 12.692,29.742 3.164,4.363 -34.5,15.07 -29.742,-38.859 0,0 -38.524,3.078 -29.34,-38.059 0.781,-3.543 11.488,18.262 28.148,18.234 15.067,-0.019 18.242,-10.711 18.242,-16.652 0,-5.945 -5.148,-31.723 -39.257,-31.723 -34.102,0 -43.625,76.133 -91.606,94.77 -47.973,18.633 -88.023,4.762 -88.023,4.762 0,0 4.754,-14.278 1.589,-27.36 0,0 8.708,2.809 16.485,0.832 0,0 16.848,22.91 31.094,0.352 4.757,-7.527 15.832,3.617 21.011,1.59 9.118,-3.575 6.746,-16.645 13.883,-15.453 0,0 14.258,3.324 15.461,-8.336 1.191,-11.489 8.727,-5.543 12.289,-10.305 3.574,-4.758 4.762,-8.727 4.762,-11.91 l -6.344,-2.375 c 0,0 -1.183,10.738 -6.742,11.519 -5.832,0.821 -6.75,-2.004 -9.117,8.313 -2.371,10.301 -17.055,1.976 -22.61,10.703 -5.547,8.727 -6.726,10.707 -15.453,6.746 -8.722,-3.965 -12.879,4.148 -14.668,5.941 -3.582,3.567 -8.691,3.668 -15.035,-2.273 0,0 27.899,-20.121 0.363,-42.137 L 310,683.691 c 0,0 11.094,7.536 27.359,7.536 42.813,0 52.739,-46.793 119.344,-46.793 36.481,0 57.496,29.742 57.496,51.945 0,22.605 -17.441,27.754 -17.047,42.422 z M 266.77,692.797 c -2.383,-2.371 -13.875,-12.68 -15.075,-10.297 -1.183,2.371 -5.941,10.688 2.383,13.867 0,0 15.067,-1.195 12.692,-3.57 z m 44.406,21.348 c -2.77,4.003 -9.906,2.382 -9.906,2.382 0,0 3.07,8.844 -3.961,12.7 -8.723,4.773 -22.996,-6.719 -30.93,-15.454 l -1.992,0.782 c 0,0 23.394,34.898 -5.547,54.711 -0.477,0.324 -37.668,-43.672 -34.895,-71.317 1.192,-11.84 7.133,-13.879 7.133,-22.207 0,-8.324 -14.668,-8.277 -11.488,-15.461 3.051,-6.933 13.48,-4.816 18.633,-3.226 5.156,1.586 27.004,10.8 34.886,22.621 1.594,2.383 4.766,3.945 6.348,3.144 1.59,-0.789 2.777,-2.769 1.195,-5.539 -1.586,-2.785 -3.843,-13.48 -43.625,-28.508 -5.156,-1.941 9.559,-4.839 18,-3.714 11.692,1.543 37.918,13.972 50.207,33.402 l -9.906,6.344 c 0,0 26.465,14.09 15.848,29.34" /><path
         id="path310"
         style="fill:#ffffff;fill-opacity:1;fill-rule:nonzero;stroke:none"
         d="M 32.168,600.301 V 438.465 c 0,0 16.6601,-67.914 49.1054,-125.332 L 368.375,589.559 657.906,313.754 c 0,0 41.192,95.68 41.192,127.238 0,33.715 0,159.801 0,159.801 l -666.93,-0.492" /><path
         id="path312"
         style="fill:#ffffff;fill-opacity:1;fill-rule:nonzero;stroke:none"
         d="m 422.523,447.652 c 0,-27.257 -22.078,-49.347 -49.343,-49.347 -27.246,0 -49.352,22.09 -49.352,49.347 0,27.254 22.106,49.344 49.352,49.344 27.265,0 49.343,-22.09 49.343,-49.344" /><path
         id="path314"
         style="fill:#ffffff;fill-opacity:1;fill-rule:nonzero;stroke:none"
         d="m 576.137,309.824 c 0,-27.258 -22.09,-49.351 -49.344,-49.351 -27.258,0 -49.348,22.093 -49.348,49.351 0,27.25 22.09,49.348 49.348,49.348 27.254,0 49.344,-22.098 49.344,-49.348" /><path
         id="path316"
         style="fill:#ffffff;fill-opacity:1;fill-rule:nonzero;stroke:none"
         d="m 267.039,309.277 c 0,-27.257 -22.09,-49.347 -49.344,-49.347 -27.257,0 -49.343,22.09 -49.343,49.347 0,27.254 22.086,49.352 49.343,49.352 27.254,0 49.344,-22.098 49.344,-49.352" /><path
         id="path318"
         style="fill:#ffffff;fill-opacity:1;fill-rule:nonzero;stroke:none"
         d="m 189.766,168.523 c 0,0 86.64,-82.1558 180.808,-118.2808 0,0 81.367,27.1289 179.305,115.2698 L 369.07,342.555 189.766,168.523" /><path
         id="path320"
         style="fill:#ffffff;fill-opacity:1;fill-rule:nonzero;stroke:none"
         d="m 608.434,687.234 v 92.063 c 0,0 -29.262,11.277 -46.493,-6.856 v -86.886 c 0,0 24.243,7.011 46.493,1.679 z m 53.867,-1.679 v 86.886 c -17.227,18.133 -46.488,6.856 -46.488,6.856 l 0.089,-92.063 c 22.258,5.332 46.399,-1.679 46.399,-1.679 z m 16.398,11.742 v 46.488 c 0,0 13.571,15.848 -3.195,27.285 h -5.188 v -95.113 h -45.418 l -11.738,-4.883 -11.281,4.727 h -47.402 l -0.153,95.269 h -5.336 c 0,0 -16.156,-9.757 -3.203,-27.285 l 0.156,-46.488 c 0,0 -14.785,-12.043 -0.304,-24.082 v -14.184 h 133.062 v 14.184 c 0,0 14.938,10.359 0,24.082" /><path
         id="path322"
         style="fill:#ffffff;fill-opacity:1;fill-rule:nonzero;stroke:none"
         d="m 115.801,687.234 v 92.063 c 0,0 -29.2658,11.277 -46.4885,-6.856 v -86.886 c 0,0 24.2305,7.011 46.4885,1.679 z m 53.863,-1.679 v 86.886 c -17.226,18.133 -46.488,6.856 -46.488,6.856 l 0.09,-92.063 c 22.257,5.332 46.398,-1.679 46.398,-1.679 z m 16.406,11.742 v 46.488 c 0,0 13.563,15.848 -3.203,27.285 h -5.179 v -95.113 h -45.426 l -11.739,-4.883 -11.281,4.727 H 61.8398 l -0.1484,95.269 h -5.3398 c 0,0 -16.1563,-9.757 -3.1953,-27.285 l 0.1484,-46.488 c 0,0 -14.7852,-12.043 -0.3008,-24.082 V 659.031 H 186.07 v 14.184 c 0,0 14.938,10.359 0,24.082" /><path
         id="path324"
         style="fill:#ffffff;fill-opacity:1;fill-rule:nonzero;stroke:none"
         d="m 274.301,767.383 c 0,0 112.691,34.371 149.492,-67.012 1.656,-4.57 3.316,-4.84 4.09,-4.449 1.262,0.641 5.027,13.957 -6.082,17.531 0,0 4.762,16.649 -11.891,19.422 0,0 3.969,22.617 -18.23,19.836 0,0 1.179,13.879 -16.266,9.516 0,0 -1.59,21.015 -24.984,10.308 0,0 -5.547,18.633 -26.16,5.156 0,0 -11.911,19.832 -28.161,-0.402 0,0 -9.91,20.617 -30.921,0.797 0,0 7.921,-7.145 9.113,-10.703 z m 222.851,-28.582 c 0.391,14.672 9.547,25.437 12.692,29.742 3.164,4.363 -34.5,15.07 -29.742,-38.859 0,0 -38.524,3.078 -29.34,-38.059 0.781,-3.543 11.488,18.262 28.148,18.234 15.067,-0.019 18.242,-10.711 18.242,-16.652 0,-5.945 -5.148,-31.723 -39.257,-31.723 -34.102,0 -43.625,76.133 -91.606,94.77 -47.973,18.633 -88.023,4.762 -88.023,4.762 0,0 4.754,-14.278 1.589,-27.36 0,0 8.708,2.809 16.485,0.832 0,0 16.848,22.91 31.094,0.352 4.757,-7.527 15.832,3.617 21.011,1.59 9.118,-3.575 6.746,-16.645 13.883,-15.453 0,0 14.258,3.324 15.461,-8.336 1.191,-11.489 8.727,-5.543 12.289,-10.305 3.574,-4.758 4.762,-8.727 4.762,-11.91 l -6.344,-2.375 c 0,0 -1.183,10.738 -6.742,11.519 -5.832,0.821 -6.75,-2.004 -9.117,8.313 -2.371,10.301 -17.055,1.976 -22.61,10.703 -5.547,8.727 -6.726,10.707 -15.453,6.746 -8.722,-3.965 -12.879,4.148 -14.668,5.941 -3.582,3.567 -8.691,3.668 -15.035,-2.273 0,0 27.899,-20.121 0.363,-42.137 L 310,683.691 c 0,0 11.094,7.536 27.359,7.536 42.813,0 52.739,-46.793 119.344,-46.793 36.481,0 57.496,29.742 57.496,51.945 0,22.605 -17.441,27.754 -17.047,42.422 z M 266.77,692.797 c -2.383,-2.371 -13.875,-12.68 -15.075,-10.297 -1.183,2.371 -5.941,10.688 2.383,13.867 0,0 15.067,-1.195 12.692,-3.57 z m 44.406,21.348 c -2.77,4.003 -9.906,2.382 -9.906,2.382 0,0 3.07,8.844 -3.961,12.7 -8.723,4.773 -22.996,-6.719 -30.93,-15.454 l -1.992,0.782 c 0,0 23.394,34.898 -5.547,54.711 -0.477,0.324 -37.668,-43.672 -34.895,-71.317 1.192,-11.84 7.133,-13.879 7.133,-22.207 0,-8.324 -14.668,-8.277 -11.488,-15.461 3.051,-6.933 13.48,-4.816 18.633,-3.226 5.156,1.586 27.004,10.8 34.886,22.621 1.594,2.383 4.766,3.945 6.348,3.144 1.59,-0.789 2.777,-2.769 1.195,-5.539 -1.586,-2.785 -3.843,-13.48 -43.625,-28.508 -5.156,-1.941 9.559,-4.839 18,-3.714 11.692,1.543 37.918,13.972 50.207,33.402 l -9.906,6.344 c 0,0 26.465,14.09 15.848,29.34" /></g></g></svg>