<?xml version="1.0" encoding="UTF-8" standalone="no"?>
<svg
   xmlns:dc="http://purl.org/dc/elements/1.1/"
   xmlns:cc="http://creativecommons.org/ns#"
   xmlns:rdf="http://www.w3.org/1999/02/22-rdf-syntax-ns#"
   xmlns:svg="http://www.w3.org/2000/svg"
   xmlns="http://www.w3.org/2000/svg"
   viewBox="0 0 404.72 114.96"
   height="114.96"
   width="404.72"
   xml:space="preserve"
   id="svg2"
   version="1.1"><metadata
     id="metadata8"><rdf:RDF><cc:Work
         rdf:about=""><dc:format>image/svg+xml</dc:format><dc:type
           rdf:resource="http://purl.org/dc/dcmitype/StillImage" /></cc:Work></rdf:RDF></metadata><defs
     id="defs6" /><g
     transform="matrix(1.3333333,0,0,-1.3333333,0,114.96)"
     id="g10"><g
       transform="scale(0.1)"
       id="g12"><path
         id="path14"
         style="fill:#18468b;fill-opacity:1;fill-rule:nonzero;stroke:none"
         d="m 831.43,85.0195 c 0,-22.414 6.09,-39.5468 29.941,-39.5468 21.934,0 33.457,14.7226 33.457,40.3554 V 130.32 c 0,3.368 -0.633,6.075 -0.965,8.649 -0.797,5.773 -6.25,8.008 -13.758,8.804 v 4.176 h 37.786 v -4.176 c -7.692,-0.796 -12.981,-3.031 -13.782,-8.804 -0.32,-2.574 -0.941,-5.281 -0.941,-8.649 V 85.1836 c 0,-34.4219 -21.941,-47.2461 -42.586,-47.2461 -34.117,0 -44.68,17.3047 -44.68,46.2734 v 47.7151 c 0,14.894 0.653,14.082 -13.761,15.847 v 4.176 h 43.054 v -4.176 C 830.785,146.008 831.43,146.82 831.43,131.926 V 85.0195" /><path
         id="path16"
         style="fill:#18468b;fill-opacity:1;fill-rule:nonzero;stroke:none"
         d="M 1008.53,39.8672 C 988.887,63.0859 968.496,87.4258 948.363,111.137 V 56.5273 c 0,-2.5781 0.5,-4.6718 0.746,-6.6445 0.621,-4.457 4.813,-6.207 12.965,-6.7969 v -3.2187 h -30.261 v 3.2187 c 5.937,0.5899 10.003,2.3399 10.625,6.7969 0.242,1.9727 0.742,4.0664 0.742,6.6445 v 58.2147 c -3.457,4.43 -7.297,8.383 -14.328,8.383 v 3.223 h 22.476 c 18.406,-22.364 37.559,-45.098 55.962,-67.4613 h 0.24 v 50.7693 c 0,2.602 -0.49,4.699 -0.74,6.676 -0.61,4.453 -4.82,6.18 -12.966,6.793 v 3.223 h 30.266 v -3.223 c -5.81,-0.613 -10.01,-2.34 -10.62,-6.793 -0.25,-1.977 -0.74,-4.074 -0.74,-6.676 V 39.8672 h -4.2" /><path
         id="path18"
         style="fill:#18468b;fill-opacity:1;fill-rule:nonzero;stroke:none"
         d="m 1071.9,55.3164 c 0,-11.5 -0.5,-10.875 10.62,-12.2305 v -3.2187 h -33.23 v 3.2187 c 11.12,1.3555 10.62,0.7305 10.62,12.2305 v 55.5816 c 0,11.485 0.5,10.864 -10.62,12.227 v 3.223 h 33.23 v -3.223 c -11.12,-1.363 -10.62,-0.742 -10.62,-12.227 V 55.3164" /><path
         id="path20"
         style="fill:#18468b;fill-opacity:1;fill-rule:nonzero;stroke:none"
         d="m 1135.15,123.125 c -6.81,0 -11.75,-1.984 -7.67,-13.828 4.82,-14.5782 11.99,-35.8282 18.41,-54.6056 7.9,18.9024 15.43,37.9219 23.09,56.8286 3.1,7.773 -0.11,11.605 -8.52,11.605 v 3.223 h 26.68 v -3.223 c -3.58,0 -7.65,-1.234 -10.25,-7.41 -10.38,-25.3166 -20.87,-50.5392 -31.26,-75.8478 h -6.29 c -7.53,21.3594 -15.94,45.2305 -23.46,66.2228 -4.58,13.203 -8.4,17.035 -14.34,17.035 v 3.223 h 33.61 v -3.223" /><path
         id="path22"
         style="fill:#18468b;fill-opacity:1;fill-rule:nonzero;stroke:none"
         d="m 1206.17,43.0859 c 11.11,1.3555 10.62,0.7305 10.62,12.2305 v 55.5816 c 0,11.485 0.49,10.864 -10.62,12.227 v 3.223 h 55.22 v -19.914 h -3.21 c -1.24,9.156 -3.72,15.949 -12.6,15.949 h -16.81 V 87.0742 h 10.39 c 7.77,0 11.1,3.0625 11.36,10.7461 h 3.21 V 71.5 h -3.21 c -0.26,7.2734 -3.09,11.6094 -11.36,11.6094 h -10.39 V 55.168 c 0,-10.4883 4.83,-11.3516 15.95,-11.3516 17.9,0 17.04,5.0625 22.72,18.2891 h 3.21 l -3.7,-22.2383 h -60.78 v 3.2187" /><path
         id="path24"
         style="fill:#18468b;fill-opacity:1;fill-rule:nonzero;stroke:none"
         d="m 1312.16,82.1055 h 10.25 c 10.75,0 15.69,8.1601 15.69,22.1175 0,13.472 -7.42,18.16 -16.43,18.16 h -9.51 z m -22.61,44.2425 h 35.96 c 12.46,0 24.93,-6.559 24.93,-21.004 0,-12.7307 -7.76,-21.4963 -17.28,-25.2151 l 12.1,-18.4062 c 6.19,-9.0079 13.1,-17.6602 17.42,-20.2579 v -1.5976 h -12.71 c -7.29,0 -11.26,13.4609 -26.22,38.3164 h -11.59 V 55.3164 c 0,-11.5 -0.5,-10.875 10.62,-12.2305 v -3.2187 h -33.23 v 3.2187 c 11.11,1.3555 10.62,0.7305 10.62,12.2305 v 55.5816 c 0,11.485 0.49,10.864 -10.62,12.227 v 3.223" /><path
         id="path26"
         style="fill:#18468b;fill-opacity:1;fill-rule:nonzero;stroke:none"
         d="m 1423.84,107.945 c -1.01,8.633 -5.7,15.567 -15.57,15.567 -7.17,0 -13.59,-3.723 -13.59,-12.848 0,-8.648 8.64,-13.8476 21.01,-23.1249 13.08,-9.7422 17.27,-16.0391 17.27,-26.3125 0,-14.6875 -15.06,-22.836 -29.88,-22.836 -7.91,0 -14.69,1.4766 -21.13,3.9375 -0.49,0.2657 -0.86,0.7578 -0.86,1.7344 v 17.7773 h 3.21 c 1.36,-13.6914 10.38,-19.1367 19.89,-19.1367 8.78,0 15.93,6.6758 15.93,15.6875 0,8.0352 -4.31,14.586 -22.85,26.8125 -6.67,4.4649 -14.95,9.2735 -14.95,22.7419 0,11.114 12.36,19.875 26.56,19.875 5.31,0 12.37,-0.617 17.29,-2.336 0.74,-0.254 0.87,-0.738 0.87,-1.359 v -16.18 h -3.2" /><path
         id="path28"
         style="fill:#18468b;fill-opacity:1;fill-rule:nonzero;stroke:none"
         d="m 1477.82,55.3164 c 0,-11.5 -0.49,-10.875 10.6,-12.2305 v -3.2187 h -33.21 v 3.2187 c 11.12,1.3555 10.62,0.7305 10.62,12.2305 v 55.5816 c 0,11.485 0.5,10.864 -10.62,12.227 v 3.223 h 33.21 v -3.223 c -11.09,-1.363 -10.6,-0.742 -10.6,-12.227 V 55.3164" /><path
         id="path30"
         style="fill:#18468b;fill-opacity:1;fill-rule:nonzero;stroke:none"
         d="m 1549.46,55.3164 c 0,-11.5 -0.5,-10.875 10.63,-12.2305 v -3.2187 h -33.24 v 3.2187 c 11.13,1.3555 10.62,0.7305 10.62,12.2305 v 67.0666 h -11.1 c -10.75,0 -13.22,-6.793 -17.31,-14.942 h -3.09 l 3.33,18.907 h 68.33 l 3.33,-18.907 h -3.09 c -4.07,8.149 -6.56,14.942 -17.3,14.942 h -11.11 V 55.3164" /><path
         id="path32"
         style="fill:#18468b;fill-opacity:1;fill-rule:nonzero;stroke:none"
         d="m 1616.91,43.0859 c 11.11,1.3555 10.63,0.7305 10.63,12.2305 v 19.0078 l -19.04,37.6918 c -4.07,8.035 -7.53,11.109 -13.21,11.109 v 3.223 h 31.49 v -3.223 c -9.37,0 -8.52,-4.687 -5.44,-11.109 l 14.97,-31.0043 17.04,31.0043 c 4.2,7.535 0.24,11.109 -7.06,11.109 v 3.223 h 25.45 v -3.223 c -3.45,0 -6.78,-1.602 -10.12,-7.535 l -20.61,-37.4064 c -1.24,-2.4844 -1.51,-5.9492 -1.51,-9.0469 V 55.3164 c 0,-11.5 -0.47,-10.875 10.64,-12.2305 v -3.2187 h -33.23 v 3.2187" /><path
         id="path34"
         style="fill:#18468b;fill-opacity:1;fill-rule:nonzero;stroke:none"
         d="m 1784.02,100.699 c 0,16.653 -10.06,17.309 -12.62,17.309 -17.31,0 -28.68,-31.0549 -28.68,-51.8947 0,-8.3203 1.46,-23.3594 13.31,-23.3594 18.25,0 27.99,30.0977 27.99,57.9451 z M 1728,69.4727 c 0,20.9726 18.08,52.3673 44.83,52.3673 21.31,0 25.92,-14.418 25.92,-28.8166 0,-17.6093 -14.08,-55.0859 -44.66,-55.0859 -20.5,0 -26.09,16.4961 -26.09,31.5352" /><path
         id="path36"
         style="fill:#18468b;fill-opacity:1;fill-rule:nonzero;stroke:none"
         d="m 1879.29,116.559 -3.84,-3.371 h -20.98 C 1846.64,75.0938 1833.82,24.332 1824.71,0 h -7.22 l 22.9,113.188 h -15.19 l 1.42,6.718 h 15.05 c 8.5,34.11 36.66,37.637 43.38,37.637 3.68,0 11.38,-0.648 13.78,-2.887 l -1.94,-10.554 -3.99,-1.93 c -2.25,4.312 -7.36,9.281 -14.09,9.281 -9.61,0 -16.81,-6.566 -20.67,-23.851 l -1.73,-7.696 h 23.53 l -0.65,-3.347" /><path
         id="path38"
         style="fill:#18468b;fill-opacity:1;fill-rule:nonzero;stroke:none"
         d="m 1976.93,59.8672 c 0,-14.8789 -0.62,-14.082 13.77,-15.8516 v -4.1484 h -43.07 v 4.1484 c 14.42,1.7696 13.78,0.9727 13.78,15.8516 v 72.0588 c 0,14.894 0.64,14.082 -13.78,15.847 v 4.176 h 41.95 c 26.58,0 39.71,-10.566 39.71,-29.804 0,-23.0473 -20.81,-35.5278 -45.31,-34.0708 v 3.1914 c 20.02,-0.3086 29.28,11.6794 29.28,29.2854 0,17.949 -8.63,26.269 -26.56,26.269 h -9.77 V 59.8672" /><path
         id="path40"
         style="fill:#18468b;fill-opacity:1;fill-rule:nonzero;stroke:none"
         d="m 2051.35,43.0859 c 11.13,1.3555 10.62,0.7305 10.62,12.2305 v 55.5816 c 0,11.485 0.51,10.864 -10.62,12.227 v 3.223 h 55.23 v -19.914 h -3.22 c -1.25,9.156 -3.69,15.949 -12.59,15.949 h -16.8 V 87.0742 h 10.37 c 7.79,0 11.13,3.0625 11.37,10.7461 h 3.21 V 71.5 h -3.21 c -0.24,7.2734 -3.09,11.6094 -11.37,11.6094 h -10.37 V 55.168 c 0,-10.4883 4.82,-11.3516 15.93,-11.3516 17.91,0 17.06,5.0625 22.73,18.2891 h 3.22 l -3.72,-22.2383 h -60.78 v 3.2187" /><path
         id="path42"
         style="fill:#18468b;fill-opacity:1;fill-rule:nonzero;stroke:none"
         d="m 2213.92,39.8672 c -19.64,23.2187 -40.01,47.5586 -60.15,71.2698 V 56.5273 c 0,-2.5781 0.49,-4.6718 0.73,-6.6445 0.62,-4.457 4.82,-6.207 12.97,-6.7969 v -3.2187 h -30.24 v 3.2187 c 5.91,0.5899 9.98,2.3399 10.6,6.7969 0.26,1.9727 0.74,4.0664 0.74,6.6445 v 58.2147 c -3.45,4.43 -7.27,8.383 -14.32,8.383 v 3.223 h 22.47 c 18.42,-22.364 37.56,-45.098 55.97,-67.4613 h 0.24 v 50.7693 c 0,2.602 -0.49,4.699 -0.72,6.676 -0.63,4.453 -4.82,6.18 -13,6.793 v 3.223 h 30.27 v -3.223 c -5.78,-0.613 -10.01,-2.34 -10.6,-6.793 -0.26,-1.977 -0.75,-4.074 -0.75,-6.676 V 39.8672 h -4.21" /><path
         id="path44"
         style="fill:#18468b;fill-opacity:1;fill-rule:nonzero;stroke:none"
         d="m 2324.61,39.8672 c -19.65,23.2187 -40.02,47.5586 -60.18,71.2698 V 56.5273 c 0,-2.5781 0.51,-4.6718 0.75,-6.6445 0.62,-4.457 4.82,-6.207 12.96,-6.7969 v -3.2187 h -30.23 v 3.2187 c 5.9,0.5899 9.98,2.3399 10.6,6.7969 0.27,1.9727 0.74,4.0664 0.74,6.6445 v 58.2147 c -3.46,4.43 -7.29,8.383 -14.33,8.383 v 3.223 h 22.48 c 18.42,-22.364 37.56,-45.098 55.96,-67.4613 h 0.26 v 50.7693 c 0,2.602 -0.49,4.699 -0.73,6.676 -0.62,4.453 -4.81,6.18 -13.01,6.793 v 3.223 h 30.28 v -3.223 c -5.78,-0.613 -10,-2.34 -10.6,-6.793 -0.26,-1.977 -0.76,-4.074 -0.76,-6.676 V 39.8672 h -4.19" /><path
         id="path46"
         style="fill:#18468b;fill-opacity:1;fill-rule:nonzero;stroke:none"
         d="m 2405.01,107.945 c -0.98,8.633 -5.66,15.567 -15.55,15.567 -7.17,0 -13.6,-3.723 -13.6,-12.848 0,-8.648 8.65,-13.8476 21,-23.1249 13.11,-9.7422 17.31,-16.0391 17.31,-26.3125 0,-14.6875 -15.07,-22.836 -29.89,-22.836 -7.91,0 -14.71,1.4766 -21.15,3.9375 -0.46,0.2657 -0.85,0.7578 -0.85,1.7344 v 17.7773 h 3.22 c 1.35,-13.6914 10.36,-19.1367 19.88,-19.1367 8.77,0 15.93,6.6758 15.93,15.6875 0,8.0352 -4.31,14.586 -22.84,26.8125 -6.67,4.4649 -14.94,9.2735 -14.94,22.7419 0,11.114 12.33,19.875 26.53,19.875 5.32,0 12.38,-0.617 17.31,-2.336 0.76,-0.254 0.85,-0.738 0.85,-1.359 v -16.18 h -3.21" /><path
         id="path48"
         style="fill:#18468b;fill-opacity:1;fill-rule:nonzero;stroke:none"
         d="m 2454.79,43.0859 c 11.15,1.3555 10.63,0.7305 10.63,12.2305 v 19.0078 l -19,37.6918 c -4.09,8.035 -7.54,11.109 -13.24,11.109 v 3.223 h 31.52 v -3.223 c -9.4,0 -8.55,-4.687 -5.44,-11.109 l 14.94,-31.0043 17.04,31.0043 c 4.19,7.535 0.26,11.109 -7.03,11.109 v 3.223 h 25.45 v -3.223 c -3.48,0 -6.82,-1.602 -10.12,-7.535 l -20.63,-37.4064 c -1.25,-2.4844 -1.49,-5.9492 -1.49,-9.0469 V 55.3164 c 0,-11.5 -0.51,-10.875 10.6,-12.2305 v -3.2187 h -33.23 v 3.2187" /><path
         id="path50"
         style="fill:#18468b;fill-opacity:1;fill-rule:nonzero;stroke:none"
         d="m 2529.9,43.0859 c 11.13,1.3555 10.63,0.7305 10.63,12.2305 v 55.5816 c 0,11.485 0.5,10.864 -10.63,12.227 v 3.223 h 33.23 v -3.223 c -11.12,-1.363 -10.62,-0.742 -10.62,-12.227 V 53.3281 c 0,-8.6484 4.81,-9.5117 15.81,-9.5117 17.93,0 17.17,5.0625 22.85,18.2891 h 3.1 l -3.72,-22.2383 h -60.65 v 3.2187" /><path
         id="path52"
         style="fill:#18468b;fill-opacity:1;fill-rule:nonzero;stroke:none"
         d="m 2637.39,123.125 c -6.79,0 -11.76,-1.984 -7.67,-13.828 4.82,-14.5782 11.97,-35.8282 18.41,-54.6056 7.91,18.9024 15.44,37.9219 23.1,56.8286 3.1,7.773 -0.12,11.605 -8.52,11.605 v 3.223 h 26.68 v -3.223 c -3.57,0 -7.67,-1.234 -10.25,-7.41 -10.39,-25.3166 -20.88,-50.5392 -31.27,-75.8478 h -6.29 c -7.54,21.3594 -15.95,45.2305 -23.47,66.2228 -4.59,13.203 -8.4,17.035 -14.32,17.035 v 3.223 h 33.6 v -3.223" /><path
         id="path54"
         style="fill:#18468b;fill-opacity:1;fill-rule:nonzero;stroke:none"
         d="m 2739.79,73.207 -13.11,40.168 h -0.23 l -14.7,-40.168 z m -29.91,-4.6914 -5.67,-16.539 c -1.62,-4.8125 0.73,-8.8907 6.17,-8.8907 v -3.2187 h -22.46 v 3.2187 c 3.33,0 6.9,2.0977 8.88,6.1797 5.32,10.8633 19.76,51.2654 30.01,78.5544 h 6.93 c 8.39,-24.828 21.01,-62.8708 25.19,-73.8708 2.73,-6.9297 4.69,-10.8633 10.02,-10.8633 v -3.2187 h -28.79 v 3.2187 c 7.78,0 8.53,4.0782 6.54,9.5118 l -5.3,15.9179 h -31.52" /><path
         id="path56"
         style="fill:#18468b;fill-opacity:1;fill-rule:nonzero;stroke:none"
         d="m 2864.05,39.8672 c -19.64,23.2187 -40.04,47.5586 -60.14,71.2698 V 56.5273 c 0,-2.5781 0.47,-4.6718 0.73,-6.6445 0.62,-4.457 4.82,-6.207 12.98,-6.7969 v -3.2187 h -30.29 v 3.2187 c 5.94,0.5899 10.02,2.3399 10.64,6.7969 0.24,1.9727 0.74,4.0664 0.74,6.6445 v 58.2147 c -3.46,4.43 -7.29,8.383 -14.33,8.383 v 3.223 h 22.47 c 18.4,-22.364 37.56,-45.098 55.96,-67.4613 h 0.25 v 50.7693 c 0,2.602 -0.47,4.699 -0.74,6.676 -0.61,4.453 -4.82,6.18 -12.96,6.793 v 3.223 h 30.27 v -3.223 c -5.82,-0.613 -10.02,-2.34 -10.64,-6.793 -0.23,-1.977 -0.74,-4.074 -0.74,-6.676 V 39.8672 h -4.2" /><path
         id="path58"
         style="fill:#18468b;fill-opacity:1;fill-rule:nonzero;stroke:none"
         d="m 2922.48,55.3164 c 0,-11.5 -0.48,-10.875 10.63,-12.2305 v -3.2187 h -33.23 v 3.2187 c 11.11,1.3555 10.63,0.7305 10.63,12.2305 v 55.5816 c 0,11.485 0.48,10.864 -10.63,12.227 v 3.223 h 33.23 v -3.223 c -11.11,-1.363 -10.63,-0.742 -10.63,-12.227 V 55.3164" /><path
         id="path60"
         style="fill:#18468b;fill-opacity:1;fill-rule:nonzero;stroke:none"
         d="m 3004,73.207 -13.08,40.168 h -0.27 l -14.67,-40.168 z m -29.88,-4.6914 -5.69,-16.539 c -1.6,-4.8125 0.73,-8.8907 6.19,-8.8907 v -3.2187 h -22.49 v 3.2187 c 3.33,0 6.91,2.0977 8.88,6.1797 5.32,10.8633 19.78,51.2654 30.03,78.5544 h 6.92 c 8.41,-24.828 21,-62.8708 25.2,-73.8708 2.72,-6.9297 4.67,-10.8633 9.99,-10.8633 v -3.2187 h -28.77 v 3.2187 c 7.77,0 8.53,4.0782 6.54,9.5118 l -5.29,15.9179 h -31.51" /><path
         id="path62"
         style="fill:#18468b;fill-opacity:1;fill-rule:nonzero;stroke:none"
         d="m 901.516,670.844 c 17.687,-6.121 27.894,-6.801 48.304,-6.801 57.83,0 94.56,31.293 94.56,84.359 0,41.5 -23.13,97.286 -94.56,97.286 h -48.304 z m 0,-126.531 c 0,-48.301 11.57,-61.915 44.222,-61.915 V 470.836 H 805.59 v 11.562 c 27.219,0 44.219,8.848 44.219,60.551 v 244.227 c 0,47.629 -11.563,61.914 -44.219,61.914 v 11.562 h 142.187 c 107.493,0 151.033,-57.14 151.033,-110.886 0,-64.633 -48.99,-100.688 -137.427,-100.688 -17.008,0 -31.293,0.68 -59.867,4.082 V 544.313" /><path
         id="path64"
         style="fill:#18468b;fill-opacity:1;fill-rule:nonzero;stroke:none"
         d="m 1283.33,629.348 c 2.05,53.062 -34.01,74.836 -64.62,74.836 -40.15,0 -63.95,-29.934 -66.67,-74.836 z m -131.29,-11.567 c -1.37,-108.168 63.26,-135.383 95.92,-135.383 33.33,0 50.35,11.567 85.04,50.34 v -17.679 c -29.25,-37.422 -57.15,-51.711 -99.32,-51.711 -75.52,0 -129.94,52.39 -129.94,125.183 0,72.793 53.06,129.942 121.09,129.942 55.79,0 107.49,-44.903 104.09,-100.692 h -176.88" /><path
         id="path66"
         style="fill:#18468b;fill-opacity:1;fill-rule:nonzero;stroke:none"
         d="m 1442.54,516.418 c 0,-26.535 8.16,-34.02 40.14,-34.02 v -11.562 h -127.22 v 11.562 c 36.74,0 40.82,9.528 40.82,46.262 v 131.301 c 0,35.375 -8.84,39.465 -49.66,39.465 v 11.558 l 84.36,7.489 h 11.56 v -52.387 c 44.9,38.777 65.99,52.387 82.32,52.387 13.61,0 31.97,-8.164 44.22,-19.047 l -18.37,-42.867 c -19.73,10.886 -40.82,21.086 -57.15,21.086 -15.64,0 -29.25,-8.157 -51.02,-29.247 v -131.98" /><path
         id="path68"
         style="fill:#18468b;fill-opacity:1;fill-rule:nonzero;stroke:none"
         d="m 1773.35,629.348 c 2.04,53.062 -34.01,74.836 -64.63,74.836 -40.14,0 -63.95,-29.934 -66.67,-74.836 z m -131.3,-11.567 c -1.37,-108.168 63.26,-135.383 95.92,-135.383 33.34,0 50.35,11.567 85.04,50.34 v -17.679 c -29.26,-37.422 -57.15,-51.711 -99.32,-51.711 -75.52,0 -129.94,52.39 -129.94,125.183 0,72.793 53.06,129.942 121.09,129.942 55.79,0 107.49,-44.903 104.09,-100.692 h -176.88" /><path
         id="path70"
         style="fill:#18468b;fill-opacity:1;fill-rule:nonzero;stroke:none"
         d="m 1891.74,805.273 c 0,23.133 -7.49,32.661 -32.66,32.661 h -15.65 v 11.562 l 83,8.164 H 1938 V 516.418 c 0,-25.855 8.16,-34.02 37.41,-34.02 h 6.12 v -11.562 h -134.02 v 11.562 h 12.25 c 24.49,0 31.98,10.207 31.98,45.586 v 277.289" /><path
         id="path72"
         style="fill:#18468b;fill-opacity:1;fill-rule:nonzero;stroke:none"
         d="m 2428.51,515.738 c 0,-24.492 8.16,-33.34 40.83,-33.34 v -11.562 h -127.91 v 11.562 c 34.02,0 40.83,6.805 40.83,46.262 v 114.293 c 0,31.297 -20.42,49.664 -52.4,49.664 -25.86,0 -46.94,-14.289 -68.02,-46.262 V 517.098 c 0,-25.172 7.48,-34.7 40.13,-34.7 v -11.562 h -126.54 v 11.562 c 32.66,0 40.14,3.403 40.14,46.262 v 111.574 c 0,36.059 -25.17,52.383 -51.02,52.383 -27.22,0 -53.75,-19.047 -69.39,-46.262 V 515.059 c 0,-24.496 10.2,-33.336 40.82,-33.336 v -10.887 h -127.91 v 11.562 c 28.57,0 40.83,2.723 40.83,38.778 v 142.867 c 0,26.531 -11.57,35.383 -33.34,35.383 h -14.97 v 11.558 l 82.99,7.489 h 11.58 v -50.344 h 1.35 c 19.74,30.617 53.75,50.344 85.73,50.344 31.97,0 63.26,-17.692 75.51,-54.43 25.84,36.055 56.46,54.43 89.13,54.43 34.01,0 81.63,-19.727 81.63,-81.641 V 515.738" /><path
         id="path74"
         style="fill:#18468b;fill-opacity:1;fill-rule:nonzero;stroke:none"
         d="m 2638.08,601.453 c -45.58,-19.726 -86.4,-19.047 -86.4,-68.031 0,-24.488 17,-44.219 36.74,-44.219 14.29,0 40.13,10.207 49.66,30.617 z m 46.26,-74.832 c 0,-27.894 2.72,-37.418 13.61,-37.418 7.48,0 10.88,6.125 16.33,23.133 h 11.56 c -2.04,-29.938 -19.73,-48.988 -46.94,-48.988 -20.41,0 -32.66,10.211 -40.82,34.019 -23.81,-25.847 -39.46,-34.019 -64.63,-34.019 -37.41,0 -68.71,28.578 -68.71,63.953 0,68.715 93.88,65.992 133.34,89.121 v 17.683 c 0,34.024 -19.73,58.512 -53.74,58.512 -27.22,0 -53.75,-17.008 -63.96,-51.699 l -12.25,3.398 c 10.21,44.903 45.58,74.157 89.13,74.157 40.14,0 87.08,-23.137 87.08,-88.446 V 526.621" /><path
         id="path76"
         style="fill:#18468b;fill-opacity:1;fill-rule:nonzero;stroke:none"
         d="m 2994.58,523.223 c 0,-31.297 6.8,-40.825 40.82,-40.825 v -11.562 h -128.58 v 11.562 c 32.64,0 41.5,7.485 41.5,29.938 v 125.855 c 0,38.782 -27.9,55.106 -53.74,55.106 -23.82,0 -44.91,-14.969 -68.72,-46.942 V 528.66 c 0,-36.734 4.77,-46.262 40.82,-46.262 v -11.562 h -127.22 v 11.562 c 31.98,0 40.14,2.723 40.14,46.262 v 135.383 c 0,29.254 -7.48,35.383 -40.14,35.383 v 11.558 l 74.84,7.489 h 11.56 v -48.301 c 28.57,32.648 56.46,48.301 87.08,48.301 40.15,0 81.64,-28.575 81.64,-86.403 V 523.223" /><path
         id="path78"
         style="fill:#ffffff;fill-opacity:1;fill-rule:nonzero;stroke:none"
         d="M 5.79688,855.355 V 456.609 C 51.7031,164.551 359.871,45.3203 359.871,45.3203 686.801,185.598 705.914,456.609 705.914,456.609 V 855.355 H 5.79688" /><path
         id="path80"
         style="fill:none;stroke:#18468b;stroke-width:15;stroke-linecap:butt;stroke-linejoin:miter;stroke-miterlimit:4;stroke-dasharray:none;stroke-opacity:1"
         d="m 166.656,173.27 v 0 C 262.422,82.9688 362.113,44.1875 362.113,44.1875 445.426,80.0898 506.684,123.457 554.625,169.746 v 0 C 506.742,122.742 444.07,78.2539 362.113,44.1875 c 0,0 -100.05,38.0781 -195.457,129.0825 z" /><path
         id="path82"
         style="fill:none;stroke:#18468b;stroke-width:15;stroke-linecap:butt;stroke-linejoin:miter;stroke-miterlimit:4;stroke-dasharray:none;stroke-opacity:1"
         d="m 62.3516,308.43 v 0 C 42.1914,344.402 25.3164,384.355 13.5664,428.508 23.5938,383.594 42.2617,345.234 62.3516,308.43 Z" /><path
         id="path84"
         style="fill:none;stroke:#18468b;stroke-width:15;stroke-linecap:butt;stroke-linejoin:miter;stroke-miterlimit:4;stroke-dasharray:none;stroke-opacity:1"
         d="m 705.918,624.996 v -173.68 c 0,0 -7.141,-60.828 -45.879,-137.437 l 0.199,0.562 c 39.617,79.668 45.68,137.637 45.68,137.637 v 172.918 z" /><path
         id="path86"
         style="fill:none;stroke:#18468b;stroke-width:15;stroke-linecap:butt;stroke-linejoin:miter;stroke-miterlimit:4;stroke-dasharray:none;stroke-opacity:1"
         d="M 7.51563,624.996 H 705.918 V 854.703 H 7.51563 V 451.316 c 1.70703,-8.218 3.99997,-14.882 6.05077,-22.808 -1.6367,7.742 -3.1484,15.574 -5.66015,23.57 z" /><path
         id="path88"
         style="fill:#18468b;fill-opacity:1;fill-rule:nonzero;stroke:none"
         d="m 418.84,460.051 c 0,-30.012 -24.328,-54.336 -54.328,-54.336 -29.992,0 -54.313,24.324 -54.313,54.336 0,29.976 24.321,54.312 54.313,54.312 30,0 54.328,-24.336 54.328,-54.312 z m 103.355,-87.199 c 30.008,0 54.325,-24.329 54.325,-54.317 0,-30.019 -24.317,-54.324 -54.325,-54.324 -29.992,0 -54.308,24.305 -54.308,54.324 0,29.988 24.316,54.317 54.308,54.317 z M 204.805,264.211 c -30,0 -54.325,24.305 -54.325,54.324 0,29.988 24.325,54.317 54.325,54.317 30,0 54.328,-24.329 54.328,-54.317 0,-30.019 -24.328,-54.324 -54.328,-54.324 z M 57.7578,309.57 C 88.2227,253.43 126.602,207.188 165.781,169.813 L 360.527,357.695 556.238,166.262 c 49.469,48.543 83.192,99.773 106.102,145.047 L 360.527,600.555 57.7578,309.57" /><path
         id="path90"
         style="fill:none;stroke:#18468b;stroke-width:7.5;stroke-linecap:butt;stroke-linejoin:miter;stroke-miterlimit:4;stroke-dasharray:none;stroke-opacity:1"
         d="m 418.84,460.051 c 0,-30.012 -24.328,-54.336 -54.328,-54.336 -29.992,0 -54.313,24.324 -54.313,54.336 0,29.976 24.321,54.312 54.313,54.312 30,0 54.328,-24.336 54.328,-54.312 z m 103.355,-87.199 c 30.008,0 54.325,-24.329 54.325,-54.317 0,-30.019 -24.317,-54.324 -54.325,-54.324 -29.992,0 -54.308,24.305 -54.308,54.324 0,29.988 24.316,54.317 54.308,54.317 z M 204.805,264.211 c -30,0 -54.325,24.305 -54.325,54.324 0,29.988 24.325,54.317 54.325,54.317 30,0 54.328,-24.329 54.328,-54.317 0,-30.019 -24.328,-54.324 -54.328,-54.324 z M 57.7578,309.57 C 88.2227,253.43 126.602,207.188 165.781,169.813 L 360.527,357.695 556.238,166.262 c 49.469,48.543 83.192,99.773 106.102,145.047 L 360.527,600.555 Z" /><path
         id="path92"
         style="fill:#a80c30;fill-opacity:1;fill-rule:nonzero;stroke:none"
         d="m 104.094,802.852 c 0.078,0.019 0.144,0.043 0.219,0.066 -0.333,0.148 -1.672,0.66 -3.817,1.355 2.231,-0.808 3.524,-1.421 3.524,-1.421 V 697.969 H 48.8984 v -0.172 h 55.5356 v 0.238 h -0.141 l -0.199,104.817" /><path
         id="path94"
         style="fill:none;stroke:#154281;stroke-width:7.5;stroke-linecap:butt;stroke-linejoin:miter;stroke-miterlimit:4;stroke-dasharray:none;stroke-opacity:1"
         d="m 104.094,802.852 c 0.078,0.019 0.144,0.043 0.219,0.066 -0.333,0.148 -1.672,0.66 -3.817,1.355 2.231,-0.808 3.524,-1.421 3.524,-1.421 V 697.969 H 48.8984 v -0.172 h 55.5356 v 0.238 h -0.141 z" /><path
         id="path96"
         style="fill:#a80c30;fill-opacity:1;fill-rule:nonzero;stroke:none"
         d="m 107.23,803.855 c 0.43,0.149 0.84,0.286 1.254,0.418 -0.449,-0.148 -0.871,-0.281 -1.254,-0.418" /><path
         id="path98"
         style="fill:none;stroke:#154281;stroke-width:7.5;stroke-linecap:butt;stroke-linejoin:miter;stroke-miterlimit:4;stroke-dasharray:none;stroke-opacity:1"
         d="m 107.23,803.855 c 0.43,0.149 0.84,0.286 1.254,0.418 -0.449,-0.148 -0.871,-0.281 -1.254,-0.418 z" /><path
         id="path100"
         style="fill:#b20d35;fill-opacity:1;fill-rule:nonzero;stroke:none"
         d="M 681.387,673.152 H 537.48 v 16.493 c -14.992,14.062 0.008,28.07 0.008,28.07 v 44.808 c -14.363,21.879 5.942,32.75 5.942,32.75 h 10.656 c 0,0 0.008,0.008 0,0 v 0 0 c 23.285,22.895 55.129,7.743 55.129,7.743 V 697.969 h -55.129 v -0.172 h 55.539 v 0.238 h -0.145 l -0.199,104.981 c 0.137,0.05 0.262,0.074 0.399,0.125 l 0.004,-0.289 c 0,0 -33.625,14.222 -55.598,-7.579 20.762,21.95 55.34,7.743 55.34,7.743 35.746,13.125 49.074,-2.567 55.617,-7.743 -25.117,23.504 -55.359,7.579 -55.359,7.579 l -0.004,0.289 c 34.23,14.515 52.078,-4.668 55.363,-7.868 l 0.039,-97.238 h -55.453 v -0.238 h 55.598 l -0.184,97.476 v 0 c -0.023,0.024 0.02,-0.023 0,0 h 10.395 c 0,0 20.292,-10.871 5.941,-32.75 v -44.808 c 0,0 14.992,-14.008 0.008,-28.07 z m -173.496,19.891 c -41.774,-64.445 -117.715,-20.367 -117.715,-20.367 -64.785,56.312 -90.512,24.144 -90.512,24.144 -41.019,-48.195 -75.891,-43.632 -84.016,-29.437 -16.25,3.238 -15.867,16.449 -7.66,20.414 11.848,5.715 7.078,9.234 7.078,9.234 -31.296,25.266 36.317,104.324 36.317,104.324 0,0 5.527,6.954 13.555,8.954 8.265,2.07 14.82,2.765 19.847,-7.536 6.969,5.243 8.168,9.059 16.875,9.059 5.387,0 12.25,-3.523 14,-8.543 0,0 26.41,13.766 27.875,-6.277 l 5.016,1.254 c 8.054,1.281 19.094,4.257 19.094,-13.063 l 9.281,0.477 c 5.082,-2.028 8.137,-5.66 8.137,-11.028 5.953,0 10.308,1.594 15.105,-1.754 5.668,-3.91 5.227,-10.316 5.227,-17.429 6.976,-1.453 12.203,-6.543 12.203,-13.656 0,-2.922 0,-4.356 0,-7.262 0,-1.883 2.914,-1.602 4.078,-2.91 3.359,-3.653 3.187,-16.758 0.039,-26.016 29.867,-45.992 60.512,-8.805 60.512,-8.805 15.687,26.41 -5.789,28.68 -5.789,28.68 -18.407,2.266 -32.571,-27.16 -32.571,-27.16 -18.762,54.808 26.082,52.832 26.082,52.832 -3.426,62.363 41.422,40.766 41.422,40.766 -27.969,-31.235 -10.734,-46.809 -10.734,-46.809 21.062,-26.414 7.254,-52.086 7.254,-52.086 z M 176.195,673.152 H 32.2852 v 16.493 c -14.9844,14.062 0.0039,28.07 0.0039,28.07 v 44.808 c -14.3555,21.879 5.9414,32.852 5.9414,32.852 h 10.6758 c 0,-0.016 -0.004,-0.016 -0.004,-0.016 l -0.0039,-0.043 v -0.625 c 1.5547,1.829 3.1914,3.403 4.8907,4.782 -1.6368,-1.188 -3.2422,-2.485 -4.7735,-4.02 2.1953,2.328 4.5625,4.164 7.0196,5.746 15.4882,10.856 34.5468,6.446 43.25,3.492 3.0698,-0.906 4.9528,-1.675 4.9528,-1.675 7.11,2.648 13.45,4.039 19.102,4.605 21.441,2.563 31.344,-6.82 35.234,-10.894 0.047,-0.032 0.082,-0.086 0.125,-0.125 0.477,-0.504 0.895,-0.942 1.184,-1.227 v -97.34 h -55.449 v -0.238 h 55.601 v 97.465 0.019 c -0.031,0.035 -0.055,0.051 -0.078,0.094 h 10.281 c 0,0 20.309,-10.973 5.946,-32.852 v -44.808 c 0,0 14.992,-14.008 0.011,-28.07 z M 8.40625,854.703 V 624.996 H 706.316 V 854.703 H 8.40625" /><path
         id="path102"
         style="fill:none;stroke:#18468b;stroke-width:7.5;stroke-linecap:butt;stroke-linejoin:miter;stroke-miterlimit:4;stroke-dasharray:none;stroke-opacity:1"
         d="M 681.387,673.152 H 537.48 v 16.493 c -14.992,14.062 0.008,28.07 0.008,28.07 v 44.808 c -14.363,21.879 5.942,32.75 5.942,32.75 h 10.656 c 0,0 0.008,0.008 0,0 v 0 0 c 23.285,22.895 55.129,7.743 55.129,7.743 V 697.969 h -55.129 v -0.172 h 55.539 v 0.238 h -0.145 l -0.199,104.981 c 0.137,0.05 0.262,0.074 0.399,0.125 l 0.004,-0.289 c 0,0 -33.625,14.222 -55.598,-7.579 20.762,21.95 55.34,7.743 55.34,7.743 35.746,13.125 49.074,-2.567 55.617,-7.743 -25.117,23.504 -55.359,7.579 -55.359,7.579 l -0.004,0.289 c 34.23,14.515 52.078,-4.668 55.363,-7.868 l 0.039,-97.238 h -55.453 v -0.238 h 55.598 l -0.184,97.476 v 0 c -0.023,0.024 0.02,-0.023 0,0 h 10.395 c 0,0 20.292,-10.871 5.941,-32.75 v -44.808 c 0,0 14.992,-14.008 0.008,-28.07 z m -173.496,19.891 c -41.774,-64.445 -117.715,-20.367 -117.715,-20.367 -64.785,56.312 -90.512,24.144 -90.512,24.144 -41.019,-48.195 -75.891,-43.632 -84.016,-29.437 -16.25,3.238 -15.867,16.449 -7.66,20.414 11.848,5.715 7.078,9.234 7.078,9.234 -31.296,25.266 36.317,104.324 36.317,104.324 0,0 5.527,6.954 13.555,8.954 8.265,2.07 14.82,2.765 19.847,-7.536 6.969,5.243 8.168,9.059 16.875,9.059 5.387,0 12.25,-3.523 14,-8.543 0,0 26.41,13.766 27.875,-6.277 l 5.016,1.254 c 8.054,1.281 19.094,4.257 19.094,-13.063 l 9.281,0.477 c 5.082,-2.028 8.137,-5.66 8.137,-11.028 5.953,0 10.308,1.594 15.105,-1.754 5.668,-3.91 5.227,-10.316 5.227,-17.429 6.976,-1.453 12.203,-6.543 12.203,-13.656 0,-2.922 0,-4.356 0,-7.262 0,-1.883 2.914,-1.602 4.078,-2.91 3.359,-3.653 3.187,-16.758 0.039,-26.016 29.867,-45.992 60.512,-8.805 60.512,-8.805 15.687,26.41 -5.789,28.68 -5.789,28.68 -18.407,2.266 -32.571,-27.16 -32.571,-27.16 -18.762,54.808 26.082,52.832 26.082,52.832 -3.426,62.363 41.422,40.766 41.422,40.766 -27.969,-31.235 -10.734,-46.809 -10.734,-46.809 21.062,-26.414 7.254,-52.086 7.254,-52.086 z M 176.195,673.152 H 32.2852 v 16.493 c -14.9844,14.062 0.0039,28.07 0.0039,28.07 v 44.808 c -14.3555,21.879 5.9414,32.852 5.9414,32.852 h 10.6758 c 0,-0.016 -0.004,-0.016 -0.004,-0.016 l -0.0039,-0.043 v -0.625 c 1.5547,1.829 3.1914,3.403 4.8907,4.782 -1.6368,-1.188 -3.2422,-2.485 -4.7735,-4.02 2.1953,2.328 4.5625,4.164 7.0196,5.746 15.4882,10.856 34.5468,6.446 43.25,3.492 3.0698,-0.906 4.9528,-1.675 4.9528,-1.675 7.11,2.648 13.45,4.039 19.102,4.605 21.441,2.563 31.344,-6.82 35.234,-10.894 0.047,-0.032 0.082,-0.086 0.125,-0.125 0.477,-0.504 0.895,-0.942 1.184,-1.227 v -97.34 h -55.449 v -0.238 h 55.601 v 97.465 0.019 c -0.031,0.035 -0.055,0.051 -0.078,0.094 h 10.281 c 0,0 20.309,-10.973 5.946,-32.852 v -44.808 c 0,0 14.992,-14.008 0.011,-28.07 z M 8.40625,854.703 V 624.996 H 706.316 v 229.707 z" /><path
         id="path104"
         style="fill:#18468b;fill-opacity:1;fill-rule:nonzero;stroke:none"
         d="m 266.27,697.891 c -1.204,-3.094 -11.29,-20.336 -50.622,-30.508 0,0 43.09,11.18 50.622,30.508" /><path
         id="path106"
         style="fill:none;stroke:#18468b;stroke-width:7.5;stroke-linecap:butt;stroke-linejoin:round;stroke-miterlimit:4;stroke-dasharray:none;stroke-opacity:1"
         d="m 266.27,697.891 c -1.204,-3.094 -11.29,-20.336 -50.622,-30.508 0,0 43.09,11.18 50.622,30.508 z" /><path
         id="path108"
         style="fill:#18468b;fill-opacity:1;fill-rule:nonzero;stroke:none"
         d="m 100.496,804.273 c -0.383,0.137 -0.7851,0.274 -1.2108,0.418 -8.8399,2.61 -27.9024,6.329 -43.25,-3.492 -0.7618,-0.547 -1.5196,-1.117 -2.2461,-1.726 16.875,12.289 38.0507,7.543 46.7069,4.8" /><path
         id="path110"
         style="fill:none;stroke:#18468b;stroke-width:7.5;stroke-linecap:butt;stroke-linejoin:miter;stroke-miterlimit:4;stroke-dasharray:none;stroke-opacity:1"
         d="m 100.496,804.273 c -0.383,0.137 -0.7851,0.274 -1.2108,0.418 -8.8399,2.61 -27.9024,6.329 -43.25,-3.492 -0.7618,-0.547 -1.5196,-1.117 -2.2461,-1.726 16.875,12.289 38.0507,7.543 46.7069,4.8 z" /><path
         id="path112"
         style="fill:#18468b;fill-opacity:1;fill-rule:nonzero;stroke:none"
         d="m 107.23,803.855 c -0.968,-0.312 -1.902,-0.566 -2.917,-0.937 0.058,-0.023 0.167,-0.066 0.167,-0.066 0,0 1.032,0.437 2.75,1.003" /><path
         id="path114"
         style="fill:none;stroke:#18468b;stroke-width:7.5;stroke-linecap:butt;stroke-linejoin:miter;stroke-miterlimit:4;stroke-dasharray:none;stroke-opacity:1"
         d="m 107.23,803.855 c -0.968,-0.312 -1.902,-0.566 -2.917,-0.937 0.058,-0.023 0.167,-0.066 0.167,-0.066 0,0 1.032,0.437 2.75,1.003 z" /><path
         id="path116"
         style="fill:#18468b;fill-opacity:1;fill-rule:nonzero;stroke:none"
         d="m 159.32,795.922 c -0.16,0.176 -0.371,0.422 -0.621,0.68 -0.043,0.039 -0.082,0.093 -0.125,0.125 -3.418,3.562 -14.621,12.941 -35.234,10.894 -4.414,-0.535 -9.402,-1.648 -14.856,-3.348 9.387,2.957 33.489,8.25 50.836,-8.351" /><path
         id="path118"
         style="fill:none;stroke:#18468b;stroke-width:7.5;stroke-linecap:butt;stroke-linejoin:miter;stroke-miterlimit:4;stroke-dasharray:none;stroke-opacity:1"
         d="m 159.32,795.922 c -0.16,0.176 -0.371,0.422 -0.621,0.68 -0.043,0.039 -0.082,0.093 -0.125,0.125 -3.418,3.562 -14.621,12.941 -35.234,10.894 -4.414,-0.535 -9.402,-1.648 -14.856,-3.348 9.387,2.957 33.489,8.25 50.836,-8.351 z" /><path
         id="path120"
         style="fill:#18468b;fill-opacity:1;fill-rule:nonzero;stroke:none"
         d="m 48.707,697.969 h 0.1914 v 96.722 c -0.0703,-0.058 -0.1328,-0.125 -0.1914,-0.195 v -96.527" /><path
         id="path122"
         style="fill:none;stroke:#18468b;stroke-width:7.5;stroke-linecap:butt;stroke-linejoin:miter;stroke-miterlimit:4;stroke-dasharray:none;stroke-opacity:1"
         d="m 48.707,697.969 h 0.1914 v 96.722 c -0.0703,-0.058 -0.1328,-0.125 -0.1914,-0.195 z" /><path
         id="path124"
         style="fill:#18468b;fill-opacity:1;fill-rule:nonzero;stroke:none"
         d="m 104.434,698.035 v 0 l 0.046,104.817 z" /><path
         id="path126"
         style="fill:none;stroke:#18468b;stroke-width:7.5;stroke-linecap:butt;stroke-linejoin:miter;stroke-miterlimit:4;stroke-dasharray:none;stroke-opacity:1"
         d="m 104.434,698.035 v 0 l 0.046,104.817 z" /><path
         id="path128"
         style="fill:#18468b;fill-opacity:1;fill-rule:nonzero;stroke:none"
         d="m 609.68,801.836 v 0 l -0.055,-103.801 h 0.004 l 0.051,103.801" /><path
         id="path130"
         style="fill:none;stroke:#18468b;stroke-width:7.5;stroke-linecap:butt;stroke-linejoin:miter;stroke-miterlimit:4;stroke-dasharray:none;stroke-opacity:1"
         d="m 609.68,801.836 v 0 l -0.055,-103.801 h 0.004 z" /><path
         id="path132"
         style="fill:#18468b;fill-opacity:1;fill-rule:nonzero;stroke:none"
         d="m 553.891,697.969 h -0.051 l -0.012,97.304 c 0.192,-0.043 0.309,0.043 0.258,0 l -0.195,-97.304" /><path
         id="path134"
         style="fill:none;stroke:#18468b;stroke-width:7.5;stroke-linecap:butt;stroke-linejoin:miter;stroke-miterlimit:4;stroke-dasharray:none;stroke-opacity:1"
         d="m 553.891,697.969 h -0.051 l -0.012,97.304 c 0.192,-0.043 0.309,0.043 0.258,0 z" /><path
         id="path136"
         style="fill:#18468b;fill-opacity:1;fill-rule:nonzero;stroke:none"
         d="m 261.168,784.004 c 127.918,31.668 151.227,-66.555 151.227,-66.555 2.445,-4.969 6.332,-7.367 8.8,-11.105 0.094,0.242 0.176,0.504 0.258,0.765 -2.348,3.594 -6.082,5.805 -8.406,10.489 0,0 -23.363,98.59 -151.879,66.406" /><path
         id="path138"
         style="fill:none;stroke:#18468b;stroke-width:7.5;stroke-linecap:butt;stroke-linejoin:miter;stroke-miterlimit:4;stroke-dasharray:none;stroke-opacity:1"
         d="m 261.168,784.004 c 127.918,31.668 151.227,-66.555 151.227,-66.555 2.445,-4.969 6.332,-7.367 8.8,-11.105 0.094,0.242 0.176,0.504 0.258,0.765 -2.348,3.594 -6.082,5.805 -8.406,10.489 0,0 -23.363,98.59 -151.879,66.406 z" /><path
         id="path140"
         style="fill:#154281;fill-opacity:1;fill-rule:nonzero;stroke:none"
         d="m 290.969,746.16 h -0.008 c -0.258,-0.144 -0.121,-0.074 0.008,0" /><path
         id="path142"
         style="fill:none;stroke:#154281;stroke-width:1.89119005;stroke-linecap:butt;stroke-linejoin:miter;stroke-miterlimit:4;stroke-dasharray:none;stroke-opacity:1"
         d="m 290.969,746.16 h -0.008 c -0.258,-0.144 -0.121,-0.074 0.008,0 z" /><path
         id="path144"
         style="fill:#18468b;fill-opacity:1;fill-rule:nonzero;stroke:none"
         d="m 240.688,700.961 13.496,10.5 -11.813,2.758 c -4.437,-2.731 -5.281,-9.43 -1.683,-13.258" /><path
         id="path146"
         style="fill:none;stroke:#18468b;stroke-width:1.89119005;stroke-linecap:butt;stroke-linejoin:miter;stroke-miterlimit:4;stroke-dasharray:none;stroke-opacity:1"
         d="m 240.688,700.961 13.496,10.5 -11.813,2.758 c -4.437,-2.731 -5.281,-9.43 -1.683,-13.258 z" /><path
         id="path148"
         style="fill:#18468b;fill-opacity:1;fill-rule:nonzero;stroke:none"
         d="m 289.629,703.879 c 14.48,6.027 16.937,18.078 17.043,21.879 0.254,8.793 -3.055,15.172 -10.406,20.008 -1.262,0.961 -2.457,1.797 -3.633,2.554 4.051,2.789 8.484,6.157 12.933,6.157 5.52,0 5.821,-5.512 10.18,-8.418 6.387,-4.067 12.481,4.363 19.453,0.867 6.395,-3.192 5.524,-12.192 12.793,-12.192 17.434,0 18.016,-5.531 18.016,-15.121 9.875,0 12.207,-2.609 14.523,-12.203 l 5.231,1.735 c -2.324,9.605 -5.805,16.285 -15.696,16.285 0,9.59 -6.968,17.429 -17.429,13.945 -6.883,-2.305 -6.387,12.496 -12.789,15.699 -6.965,3.473 -13.934,-7.558 -20.336,-3.496 -4.36,2.899 -5.762,9.418 -11.043,11.047 -7.551,2.324 -21.5,-2.332 -23.242,-9.891 l 0.293,-0.515 c -17.731,7.426 -19.575,-9.461 -17.981,1.258 1,6.855 3.824,19.527 -5.027,34.382 -2.633,4.422 -7.856,7.801 -9.824,11.395 0,0 5.796,8.945 13.843,10.957 8.254,2.062 13.805,2.754 18.824,-7.539 6.973,5.234 9.18,9.066 17.891,9.066 5.367,0 11.231,-3.539 12.992,-8.558 0,0 27.422,13.758 28.883,-6.266 l 5.02,1.234 c 8.05,1.301 19.082,4.278 19.082,-13.062 l 9.285,0.5 c 5.082,-2.035 8.133,-5.664 8.133,-11.035 5.957,0 10.316,1.601 15.113,-1.75 5.668,-3.93 5.234,-10.317 5.234,-17.434 6.961,-1.445 12.2,-6.551 12.2,-13.668 0,-2.898 0,-4.359 0,-7.261 0,-1.883 2.902,-1.602 4.066,-2.911 3.488,-3.761 3.184,-17.722 -0.293,-27.023 l 4.641,-1.168 3.488,16.277 c -0.582,5.231 -4.07,11.914 -7.555,15.68 -1.164,1.324 0,9.891 0,12.805 0,7.121 -4.062,8.418 -11.039,9.879 0,7.121 -2.469,14.664 -8.137,18.601 -4.804,3.344 -4.5,2.899 -10.468,2.899 0,5.371 -5.586,12.152 -12.364,12.652 l -7.386,-1.613 c 0.726,8.707 -7.469,15.578 -16.973,15.679 l -6.27,-2.32 c -3.277,4.324 -5.543,9.273 -11.921,10.754 -12.219,2.82 -19.969,-5.172 -19.969,-5.172 -2.77,4.023 -5.16,9.543 -10.539,9.543 -8.711,0 -10.864,-1.797 -17.84,-7.039 -4.215,5.094 -6.57,6.73 -13.262,6.73 -5.73,0 -13.601,-0.949 -18.629,-6.73 l -6.625,-6.859 c -0.211,-0.094 -0.902,-0.977 -1.722,-2.184 -2.957,5.465 -3.52,7.359 -3.52,7.359 0,0 -1.594,-12.207 -7.711,-22.418 12.953,14.102 38.535,-25.398 14.039,-54.652 6.192,6.523 19.672,19.484 26.883,16.992 0,0 3.277,0.637 7.106,-0.914 0,0 3.394,-2.316 3.281,-2.371 1.894,-2.144 1.215,-4.156 1.676,-10.527 0,0 14.308,2.761 12.05,-13.301 -0.527,-3.691 -2.515,-9.801 -17.507,-19.844 l 11.48,-6.777 10.539,7.414 h -19.078" /><path
         id="path150"
         style="fill:none;stroke:#18468b;stroke-width:1.89119005;stroke-linecap:butt;stroke-linejoin:miter;stroke-miterlimit:4;stroke-dasharray:none;stroke-opacity:1"
         d="m 289.629,703.879 c 14.48,6.027 16.937,18.078 17.043,21.879 0.254,8.793 -3.055,15.172 -10.406,20.008 -1.262,0.961 -2.457,1.797 -3.633,2.554 4.051,2.789 8.484,6.157 12.933,6.157 5.52,0 5.821,-5.512 10.18,-8.418 6.387,-4.067 12.481,4.363 19.453,0.867 6.395,-3.192 5.524,-12.192 12.793,-12.192 17.434,0 18.016,-5.531 18.016,-15.121 9.875,0 12.207,-2.609 14.523,-12.203 l 5.231,1.735 c -2.324,9.605 -5.805,16.285 -15.696,16.285 0,9.59 -6.968,17.429 -17.429,13.945 -6.883,-2.305 -6.387,12.496 -12.789,15.699 -6.965,3.473 -13.934,-7.558 -20.336,-3.496 -4.36,2.899 -5.762,9.418 -11.043,11.047 -7.551,2.324 -21.5,-2.332 -23.242,-9.891 l 0.293,-0.515 c -17.731,7.426 -19.575,-9.461 -17.981,1.258 1,6.855 3.824,19.527 -5.027,34.382 -2.633,4.422 -7.856,7.801 -9.824,11.395 0,0 5.796,8.945 13.843,10.957 8.254,2.062 13.805,2.754 18.824,-7.539 6.973,5.234 9.18,9.066 17.891,9.066 5.367,0 11.231,-3.539 12.992,-8.558 0,0 27.422,13.758 28.883,-6.266 l 5.02,1.234 c 8.05,1.301 19.082,4.278 19.082,-13.062 l 9.285,0.5 c 5.082,-2.035 8.133,-5.664 8.133,-11.035 5.957,0 10.316,1.601 15.113,-1.75 5.668,-3.93 5.234,-10.317 5.234,-17.434 6.961,-1.445 12.2,-6.551 12.2,-13.668 0,-2.898 0,-4.359 0,-7.261 0,-1.883 2.902,-1.602 4.066,-2.911 3.488,-3.761 3.184,-17.722 -0.293,-27.023 l 4.641,-1.168 3.488,16.277 c -0.582,5.231 -4.07,11.914 -7.555,15.68 -1.164,1.324 0,9.891 0,12.805 0,7.121 -4.062,8.418 -11.039,9.879 0,7.121 -2.469,14.664 -8.137,18.601 -4.804,3.344 -4.5,2.899 -10.468,2.899 0,5.371 -5.586,12.152 -12.364,12.652 l -7.386,-1.613 c 0.726,8.707 -7.469,15.578 -16.973,15.679 l -6.27,-2.32 c -3.277,4.324 -5.543,9.273 -11.921,10.754 -12.219,2.82 -19.969,-5.172 -19.969,-5.172 -2.77,4.023 -5.16,9.543 -10.539,9.543 -8.711,0 -10.864,-1.797 -17.84,-7.039 -4.215,5.094 -6.57,6.73 -13.262,6.73 -5.73,0 -13.601,-0.949 -18.629,-6.73 l -6.625,-6.859 c -0.211,-0.094 -0.902,-0.977 -1.722,-2.184 -2.957,5.465 -3.52,7.359 -3.52,7.359 0,0 -1.594,-12.207 -7.711,-22.418 12.953,14.102 38.535,-25.398 14.039,-54.652 6.192,6.523 19.672,19.484 26.883,16.992 0,0 3.277,0.637 7.106,-0.914 0,0 3.394,-2.316 3.281,-2.371 1.894,-2.144 1.215,-4.156 1.676,-10.527 0,0 14.308,2.761 12.05,-13.301 -0.527,-3.691 -2.515,-9.801 -17.507,-19.844 l 11.48,-6.777 10.539,7.414 z" /><path
         id="path152"
         style="fill:#18468b;fill-opacity:1;fill-rule:nonzero;stroke:none"
         d="m 105.348,703.004 c 21.707,9.371 55.203,-0.68 55.203,-0.68 l 0.012,-4.625 h -36.75 l -18.465,-7.41 -18.473,7.41 H 50.3008 l 0.0156,4.625 c 0,0 33.332,10.051 55.0316,0.68" /><path
         id="path154"
         style="fill:none;stroke:#18468b;stroke-width:1.89119005;stroke-linecap:butt;stroke-linejoin:miter;stroke-miterlimit:4;stroke-dasharray:none;stroke-opacity:1"
         d="m 105.348,703.004 c 21.707,9.371 55.203,-0.68 55.203,-0.68 l 0.012,-4.625 h -36.75 l -18.465,-7.41 -18.473,7.41 H 50.3008 l 0.0156,4.625 c 0,0 33.332,10.051 55.0316,0.68" /><path
         id="path156"
         style="fill:#18468b;fill-opacity:1;fill-rule:nonzero;stroke:none"
         d="m 610.543,703.004 c 21.703,9.371 55.199,-0.68 55.199,-0.68 l 0.016,-4.625 h -36.75 l -18.465,-7.41 -18.465,7.41 h -36.574 l 0.004,4.625 c 0,0 33.332,10.051 55.035,0.68" /><path
         id="path158"
         style="fill:none;stroke:#18468b;stroke-width:1.89119005;stroke-linecap:butt;stroke-linejoin:miter;stroke-miterlimit:4;stroke-dasharray:none;stroke-opacity:1"
         d="m 610.543,703.004 c 21.703,9.371 55.199,-0.68 55.199,-0.68 l 0.016,-4.625 h -36.75 l -18.465,-7.41 -18.465,7.41 h -36.574 l 0.004,4.625 c 0,0 33.332,10.051 55.035,0.68" /><path
         id="path160"
         style="fill:#18468b;fill-opacity:1;fill-rule:nonzero;stroke:none"
         d="m 902.348,372.406 h -5.684 c -3.008,28.414 -23.066,39.446 -42.453,39.446 -20.063,0 -34.43,-11.032 -34.43,-28.747 0,-35.437 48.805,-44.796 76.215,-72.21 13.375,-13.372 16.715,-25.403 16.715,-38.106 0,-30.086 -24.398,-54.492 -54.488,-54.492 -20.395,0 -37.438,10.027 -43.793,10.027 -3.344,0 -5.684,-2.34 -7.356,-7.347 h -5.683 v 51.812 h 5.683 c 0.344,-35.437 29.418,-47.129 46.133,-47.129 23.066,0 38.441,13.367 38.441,34.09 0,33.098 -51.476,48.473 -72.875,69.867 -11.699,11.699 -16.375,25.074 -16.375,40.113 0,29.415 21.055,49.473 52.145,49.473 20.395,0 30.086,-7.351 37.437,-7.351 3.016,0 3.68,0.664 5.016,5.343 h 5.352 v -44.789" /><path
         id="path162"
         style="fill:#18468b;fill-opacity:1;fill-rule:nonzero;stroke:none"
         d="m 1039.43,302.875 h -5.68 c -5.02,21.391 -20.05,35.098 -39.781,35.098 -23.399,0 -39.781,-20.051 -39.781,-49.141 0,-32.426 20.39,-59.5 44.46,-59.5 14.372,0 31.762,7.695 44.132,24.734 v -8.691 c -12.71,-17.375 -30.76,-26.078 -52.155,-26.078 -35.098,0 -59.504,24.41 -59.504,59.848 0,36.429 27.414,65.519 61.18,65.519 17.709,0 27.409,-6.691 33.429,-6.691 3,0 6.02,2.34 8.02,6.691 h 5.68 v -41.789" /><path
         id="path164"
         style="fill:#18468b;fill-opacity:1;fill-rule:nonzero;stroke:none"
         d="m 1176.77,251.395 c 0,-18.051 3.35,-22.735 19.06,-22.735 v -5.683 h -61.51 v 5.683 c 16.05,0 19.72,3.684 19.72,19.059 v 58.504 c 0,15.707 -9.36,25.73 -23.73,25.73 -13.37,0 -23.07,-6.348 -34.43,-22.394 v -64.848 c 0,-12.367 5.01,-16.051 19.72,-16.051 v -5.683 h -63.52 v 5.683 c 17.72,0.34 21.06,3.684 21.06,22.735 v 154.109 c 0,15.375 -4.34,17.715 -21.06,17.715 v 5.687 l 38.12,4.004 h 5.68 V 320.922 c 15.04,17.387 26.07,23.742 41.45,23.742 19.72,0 39.44,-13.043 39.44,-41.117 v -52.152" /><path
         id="path166"
         style="fill:#18468b;fill-opacity:1;fill-rule:nonzero;stroke:none"
         d="m 1271.07,337.973 c -25.07,0 -40.11,-22.067 -40.11,-56.16 0,-30.418 12.7,-55.829 40.11,-55.829 28.09,0 40.12,27.082 40.12,55.829 0,29.753 -12.71,56.16 -40.12,56.16 z m 0,-118.676 c -37.11,0 -64.85,26.75 -64.85,62.516 0,36.109 27.74,62.851 64.85,62.851 37.1,0 64.85,-26.742 64.85,-62.851 0,-35.766 -27.75,-62.516 -64.85,-62.516" /><path
         id="path168"
         style="fill:#18468b;fill-opacity:1;fill-rule:nonzero;stroke:none"
         d="m 1420.86,337.973 c -25.07,0 -40.11,-22.067 -40.11,-56.16 0,-30.418 12.7,-55.829 40.11,-55.829 28.09,0 40.12,27.082 40.12,55.829 0,29.753 -12.71,56.16 -40.12,56.16 z m 0,-118.676 c -37.11,0 -64.85,26.75 -64.85,62.516 0,36.109 27.74,62.851 64.85,62.851 37.1,0 64.85,-26.742 64.85,-62.851 0,-35.766 -27.75,-62.516 -64.85,-62.516" /><path
         id="path170"
         style="fill:#18468b;fill-opacity:1;fill-rule:nonzero;stroke:none"
         d="m 1523.52,407.168 c 0,11.371 -3.68,16.051 -16.05,16.051 h -7.69 v 5.687 l 40.79,4.004 h 5.68 V 245.375 c 0,-12.699 4.01,-16.715 18.38,-16.715 h 3.01 v -5.683 h -65.86 v 5.683 h 6.03 c 12.03,0 15.71,5.02 15.71,22.399 v 156.109" /><path
         id="path172"
         style="fill:#18468b;fill-opacity:1;fill-rule:nonzero;stroke:none"
         d="m 1719.43,337.973 c -25.06,0 -40.11,-22.067 -40.11,-56.16 0,-30.418 12.71,-55.829 40.11,-55.829 28.09,0 40.12,27.082 40.12,55.829 0,29.753 -12.7,56.16 -40.12,56.16 z m 0,-118.676 c -37.1,0 -64.85,26.75 -64.85,62.516 0,36.109 27.75,62.851 64.85,62.851 37.11,0 64.86,-26.742 64.86,-62.851 0,-35.766 -27.75,-62.516 -64.86,-62.516" /><path
         id="path174"
         style="fill:#18468b;fill-opacity:1;fill-rule:nonzero;stroke:none"
         d="m 1841.82,246.379 c 0,-13.371 6.01,-17.719 17.05,-17.719 h 5.67 v -5.683 h -67.19 v 5.683 h 5.36 c 12.03,0 16.37,4.348 16.37,15.715 v 87.914 h -16.37 v 5.684 c 8.01,3.343 11.35,4.679 16.37,8.023 v 23.399 c 0,28.75 13.71,63.515 50.81,63.515 13.04,0 25.41,-3.676 33.43,-9.691 l -11.36,-29.75 h -5.68 c 1.67,22.39 -8.36,32.422 -22.4,32.422 -13.04,0 -22.06,-9.696 -22.06,-27.746 V 340.98 h 29.41 v -8.691 h -29.41 v -85.91" /><path
         id="path176"
         style="fill:#18468b;fill-opacity:1;fill-rule:nonzero;stroke:none"
         d="m 2184.47,408.848 c -16.37,-0.336 -22.72,-11.703 -21.38,-29.762 l 9.69,-117.996 c 2.01,-23.399 6.02,-30.754 23.73,-32.43 v -5.683 h -68.85 v 5.683 c 15.7,2.684 21.05,9.695 19.71,28.746 l -9.36,123.692 h -0.67 l -65.51,-158.121 h -5.01 l -64.19,158.121 h -0.67 l -10.7,-118.008 c -1.67,-19.383 5.35,-30.746 24.75,-34.43 v -5.683 h -59.51 v 5.683 c 19.38,2.684 22.4,14.043 24.4,35.106 l 11.7,131.707 c -7.35,8.023 -14.04,11.695 -25.06,13.375 v 5.679 h 48.47 l 61.17,-150.761 62.18,150.761 h 45.11 v -5.679" /><path
         id="path178"
         style="fill:#18468b;fill-opacity:1;fill-rule:nonzero;stroke:none"
         d="m 2302.88,300.867 c 1,26.071 -16.72,36.77 -31.76,36.77 -19.72,0 -31.42,-14.703 -32.76,-36.77 z m -64.52,-5.687 c -0.66,-53.145 31.09,-66.52 47.13,-66.52 16.39,0 24.74,5.688 41.8,24.742 v -8.691 c -14.38,-18.387 -28.09,-25.414 -48.82,-25.414 -37.1,0 -63.84,25.742 -63.84,61.512 0,35.769 26.07,63.855 59.5,63.855 27.41,0 52.81,-22.066 51.14,-49.484 h -86.91" /><path
         id="path180"
         style="fill:#18468b;fill-opacity:1;fill-rule:nonzero;stroke:none"
         d="m 2440.29,317.582 c -9.36,12.707 -22.4,20.055 -34.43,20.055 -21.4,0 -36.09,-19.383 -36.09,-48.133 0,-28.414 13.02,-61.18 51.8,-61.18 13.37,0 18.72,5.356 18.72,18.055 z m 22.74,-71.535 c 0,-13.039 4.68,-17.387 19.72,-17.387 v -5.683 h -68.86 c -50.15,0 -68.87,33.765 -68.87,61.511 0,33.434 24.75,60.176 55.49,60.176 12.7,0 24.74,-4.351 39.78,-14.375 v 72.539 c 0,17.051 -4,20.391 -15.71,20.391 h -6.69 v 5.687 l 39.45,4.004 h 5.69 V 246.047" /><path
         id="path182"
         style="fill:#18468b;fill-opacity:1;fill-rule:nonzero;stroke:none"
         d="m 2537.93,391.453 c 0,-8.015 -6.35,-14.699 -14.38,-14.699 -8.01,0 -14.7,6.684 -14.7,14.699 0,8.027 6.69,14.375 14.7,14.375 8.03,0 14.38,-6.348 14.38,-14.375 z m -3.34,-146.414 c 0,-11.695 3.01,-16.379 19.72,-16.379 v -5.683 h -64.85 v 5.683 c 18.05,0 22.4,2.34 22.4,16.379 v 72.543 c 0,16.383 -5.01,17.715 -22.4,17.715 v 5.683 l 39.45,3.684 h 5.68 v -99.625" /><path
         id="path184"
         style="fill:#18468b;fill-opacity:1;fill-rule:nonzero;stroke:none"
         d="m 2678.01,302.875 h -5.68 c -5.02,21.391 -20.06,35.098 -39.78,35.098 -23.4,0 -39.79,-20.051 -39.79,-49.141 0,-32.426 20.4,-59.5 44.47,-59.5 14.37,0 31.75,7.695 44.12,24.734 v -8.691 c -12.7,-17.375 -30.75,-26.078 -52.14,-26.078 -35.1,0 -59.51,24.41 -59.51,59.848 0,36.429 27.41,65.519 61.18,65.519 17.71,0 27.41,-6.691 33.43,-6.691 3,0 6.01,2.34 8.02,6.691 h 5.68 v -41.789" /><path
         id="path186"
         style="fill:#18468b;fill-opacity:1;fill-rule:nonzero;stroke:none"
         d="m 2736.54,391.453 c 0,-8.015 -6.34,-14.699 -14.37,-14.699 -8.03,0 -14.72,6.684 -14.72,14.699 0,8.027 6.69,14.375 14.72,14.375 8.03,0 14.37,-6.348 14.37,-14.375 z m -3.35,-146.414 c 0,-11.695 3.02,-16.379 19.73,-16.379 v -5.683 h -64.85 v 5.683 c 18.05,0 22.39,2.34 22.39,16.379 v 72.543 c 0,16.383 -5.01,17.715 -22.39,17.715 v 5.683 l 39.44,3.684 h 5.68 v -99.625" /><path
         id="path188"
         style="fill:#18468b;fill-opacity:1;fill-rule:nonzero;stroke:none"
         d="m 2885.3,248.723 c 0,-15.379 3.35,-20.063 20.07,-20.063 v -5.683 h -63.19 v 5.683 c 16.05,0 20.4,3.684 20.4,14.715 v 61.836 c 0,19.055 -13.71,27.078 -26.41,27.078 -11.71,0 -22.07,-7.351 -33.77,-23.066 v -57.828 c 0,-18.051 2.35,-22.735 20.06,-22.735 v -5.683 h -62.51 v 5.683 c 15.71,0 19.72,1.34 19.72,22.735 v 66.527 c 0,14.367 -3.66,17.375 -19.72,17.375 v 5.683 l 36.77,3.684 h 5.68 v -23.742 c 14.05,16.047 27.76,23.742 42.8,23.742 19.72,0 40.1,-14.043 40.1,-42.457 v -53.484" /><path
         id="path190"
         style="fill:#18468b;fill-opacity:1;fill-rule:nonzero;stroke:none"
         d="m 3006.68,300.867 c 1.01,26.071 -16.71,36.77 -31.76,36.77 -19.71,0 -31.41,-14.703 -32.75,-36.77 z m -64.51,-5.687 c -0.67,-53.145 31.08,-66.52 47.13,-66.52 16.38,0 24.73,5.688 41.78,24.742 v -8.691 c -14.37,-18.387 -28.08,-25.414 -48.79,-25.414 -37.12,0 -63.86,25.742 -63.86,61.512 0,35.769 26.07,63.855 59.5,63.855 27.41,0 52.82,-22.066 51.15,-49.484 h -86.91" /></g></g></svg>